<svg id="Layer_1" data-name="Layer 1" xmlns="http://www.w3.org/2000/svg" viewBox="0 0 1000 1000"><defs><style>.cls-1{fill:#f3f5f2;}.cls-2{fill:#dce0da;}.cls-3{fill:#fff;}.cls-4{fill:#ced6c9;}.cls-5{fill:#a14126;}.cls-6{fill:#d87d55;}.cls-7{fill:#3f2a28;}.cls-8{fill:#ffb9a4;}.cls-9{fill:#d62952;}.cls-10{fill:#e8385a;}.cls-11{fill:#ff5065;}.cls-12{fill:#ffc9b6;}</style></defs><title>icon_online</title><path class="cls-1" d="M569.82,765.68,362.09,885.09c-.81,10.65.08,21.2,4.51,29,9.32,16.44,39.17,28,39.17,28l88,43.82L683,876.94,695.25,884V869.9L591.64,810.09C578.32,802.39,568.39,785,569.82,765.68Z"/><path class="cls-2" d="M573.29,750.43c10.53-26.69,41.7-112.79,42-113.65l-11.48-4.16c-.16.44-8.36,23.09-17.74,48.68-38.45,23-195.57,113.75-195.57,113.75s-16.79,41.72-21.88,57.86a149.22,149.22,0,0,0-6.54,32.18L569.82,765.68A51.94,51.94,0,0,1,573.29,750.43Z"/><path class="cls-2" d="M493.78,985.9l-103.6-59.82c-16.77-9.68-28.21-34.64-18.35-59.65,10.53-26.7,41.7-112.79,42-113.66l-11.48-4.16c-.32.87-31.43,86.81-41.89,113.34-12.28,31.14,2.36,62.44,23.6,74.71L493.78,1000Z"/><polygon class="cls-2" points="695.25 869.9 493.78 985.9 493.78 1000 695.25 884.01 695.25 869.9"/><polygon class="cls-2" points="180.05 965.04 180.05 428.13 906.18 9.81 906.18 546.72 180.05 965.04"/><polygon class="cls-1" points="900.25 542.63 185.01 955.58 185.01 431.88 900.25 18.93 900.25 542.63"/><polygon class="cls-3" points="890.34 483.86 193.2 886.35 193.2 439.71 890.34 37.22 890.34 483.86"/><polygon class="cls-4" points="214.99 449.85 873.17 70.7 873.17 472.36 214.99 851.52 214.99 449.85"/><path class="cls-3" d="M536.84,736.8c-5.4,0-11.22-4.37-11.22-14,0-9.22,5.57-19.66,12.67-23.76l48.48-28a13.06,13.06,0,0,1,6.55-1.88c5.4,0,11.22,4.36,11.22,13.95,0,9.22-5.56,19.66-12.67,23.76l-48.48,28a13.07,13.07,0,0,1-6.54,1.89Z"/><path class="cls-1" d="M540.84,730.49l48.48-28c5.57-3.21,10.12-11.91,10.12-19.34h0c0-7.42-4.55-10.87-10.12-7.65l-48.48,28c-5.57,3.22-10.12,11.92-10.12,19.34h0C530.72,730.27,535.27,733.71,540.84,730.49Z"/><polygon class="cls-2" points="180.05 428.13 163.65 418.67 163.65 955.58 180.05 965.04 180.05 428.13"/><polygon class="cls-1" points="906.18 9.81 888.8 0 163.65 418.67 180.05 428.13 906.18 9.81"/><polygon class="cls-5" points="613.47 284.25 578.47 304.45 578.47 257.8 613.47 237.59 613.47 284.25"/><polygon class="cls-6" points="648.46 264.05 613.47 284.25 613.47 237.59 648.46 217.39 648.46 264.05"/><polygon class="cls-6" points="613.47 330.91 578.47 351.11 578.47 304.45 613.47 284.25 613.47 330.91"/><polygon class="cls-5" points="648.46 310.71 613.47 330.91 613.47 284.25 648.46 264.05 648.46 310.71"/><polygon class="cls-5" points="683.45 243.84 648.46 264.05 648.46 217.39 683.45 197.19 683.45 243.84"/><polygon class="cls-6" points="718.45 223.64 683.45 243.84 683.45 197.19 718.45 176.98 718.45 223.64"/><polygon class="cls-6" points="683.45 290.5 648.46 310.71 648.46 264.05 683.45 243.84 683.45 290.5"/><polygon class="cls-5" points="718.45 270.3 683.45 290.5 683.45 243.84 718.45 223.64 718.45 270.3"/><polygon class="cls-5" points="613.47 377.57 578.47 397.77 578.47 351.11 613.47 330.91 613.47 377.57"/><polygon class="cls-6" points="648.46 357.36 613.47 377.57 613.47 330.91 648.46 310.71 648.46 357.36"/><polygon class="cls-6" points="613.47 424.23 578.47 444.43 578.47 397.77 613.47 377.57 613.47 424.23"/><polygon class="cls-5" points="648.46 404.02 613.47 424.23 613.47 377.57 648.46 357.36 648.46 404.02"/><polygon class="cls-5" points="683.45 337.16 648.46 357.36 648.46 310.71 683.45 290.5 683.45 337.16"/><polygon class="cls-6" points="718.45 316.96 683.45 337.16 683.45 290.5 718.45 270.3 718.45 316.96"/><polygon class="cls-6" points="683.45 383.82 648.46 404.02 648.46 357.36 683.45 337.16 683.45 383.82"/><polygon class="cls-5" points="718.45 363.62 683.45 383.82 683.45 337.16 718.45 316.96 718.45 363.62"/><polygon class="cls-5" points="753.44 203.44 718.45 223.64 718.45 176.98 753.44 156.78 753.44 203.44"/><polygon class="cls-6" points="788.43 183.23 753.44 203.44 753.44 156.78 788.43 136.58 788.43 183.23"/><polygon class="cls-6" points="753.44 250.09 718.45 270.3 718.45 223.64 753.44 203.44 753.44 250.09"/><polygon class="cls-5" points="788.43 229.89 753.44 250.09 753.44 203.44 788.43 183.23 788.43 229.89"/><polygon class="cls-5" points="823.43 163.03 788.43 183.23 788.43 136.58 823.43 116.37 823.43 163.03"/><polygon class="cls-6" points="858.42 142.83 823.43 163.03 823.43 116.37 858.42 96.17 858.42 142.83"/><polygon class="cls-6" points="823.43 209.69 788.43 229.89 788.43 183.23 823.43 163.03 823.43 209.69"/><polygon class="cls-5" points="858.42 189.49 823.43 209.69 823.43 163.03 858.42 142.83 858.42 189.49"/><polygon class="cls-5" points="753.44 296.75 718.45 316.96 718.45 270.3 753.44 250.09 753.44 296.75"/><polygon class="cls-6" points="788.43 276.55 753.44 296.75 753.44 250.09 788.43 229.89 788.43 276.55"/><polygon class="cls-6" points="753.44 343.41 718.45 363.62 718.45 316.96 753.44 296.75 753.44 343.41"/><polygon class="cls-5" points="788.43 323.21 753.44 343.41 753.44 296.75 788.43 276.55 788.43 323.21"/><polygon class="cls-5" points="823.43 256.35 788.43 276.55 788.43 229.89 823.43 209.69 823.43 256.35"/><polygon class="cls-6" points="858.42 236.14 823.43 256.35 823.43 209.69 858.42 189.49 858.42 236.14"/><polygon class="cls-6" points="823.43 303 788.43 323.21 788.43 276.55 823.43 256.35 823.43 303"/><polygon class="cls-5" points="858.42 282.8 823.43 303 823.43 256.35 858.42 236.14 858.42 282.8"/><polygon class="cls-5" points="613.47 470.88 578.47 491.09 578.47 444.43 613.47 424.23 613.47 470.88"/><polygon class="cls-6" points="648.46 450.68 613.47 470.88 613.47 424.23 648.46 404.02 648.46 450.68"/><polygon class="cls-6" points="613.47 517.54 578.47 537.75 578.47 491.09 613.47 470.88 613.47 517.54"/><polygon class="cls-5" points="648.46 497.34 613.47 517.54 613.47 470.88 648.46 450.68 648.46 497.34"/><polygon class="cls-5" points="683.45 430.48 648.46 450.68 648.46 404.02 683.45 383.82 683.45 430.48"/><polygon class="cls-6" points="718.45 410.27 683.45 430.48 683.45 383.82 718.45 363.62 718.45 410.27"/><polygon class="cls-6" points="683.45 477.13 648.46 497.34 648.46 450.68 683.45 430.48 683.45 477.13"/><polygon class="cls-5" points="718.45 456.93 683.45 477.13 683.45 430.48 718.45 410.27 718.45 456.93"/><polygon class="cls-5" points="613.47 564.2 578.47 584.4 578.47 537.75 613.47 517.54 613.47 564.2"/><polygon class="cls-6" points="648.46 544 613.47 564.2 613.47 517.54 648.46 497.34 648.46 544"/><polygon class="cls-6" points="613.47 610.86 578.47 631.06 578.47 584.4 613.47 564.2 613.47 610.86"/><polygon class="cls-5" points="648.46 590.65 613.47 610.86 613.47 564.2 648.46 544 648.46 590.65"/><polygon class="cls-5" points="683.45 523.79 648.46 544 648.46 497.34 683.45 477.13 683.45 523.79"/><polygon class="cls-6" points="718.45 503.59 683.45 523.79 683.45 477.13 718.45 456.93 718.45 503.59"/><polygon class="cls-6" points="683.45 570.45 648.46 590.65 648.46 544 683.45 523.79 683.45 570.45"/><polygon class="cls-5" points="718.45 550.25 683.45 570.45 683.45 523.79 718.45 503.59 718.45 550.25"/><polygon class="cls-5" points="753.44 390.07 718.45 410.27 718.45 363.62 753.44 343.41 753.44 390.07"/><polygon class="cls-6" points="788.43 369.87 753.44 390.07 753.44 343.41 788.43 323.21 788.43 369.87"/><polygon class="cls-6" points="753.44 436.73 718.45 456.93 718.45 410.27 753.44 390.07 753.44 436.73"/><polygon class="cls-5" points="788.43 416.52 753.44 436.73 753.44 390.07 788.43 369.87 788.43 416.52"/><polygon class="cls-5" points="823.43 349.66 788.43 369.87 788.43 323.21 823.43 303 823.43 349.66"/><polygon class="cls-6" points="858.42 329.46 823.43 349.66 823.43 303 858.42 282.8 858.42 329.46"/><polygon class="cls-6" points="823.43 396.32 788.43 416.52 788.43 369.87 823.43 349.66 823.43 396.32"/><polygon class="cls-5" points="858.42 376.12 823.43 396.32 823.43 349.66 858.42 329.46 858.42 376.12"/><polygon class="cls-5" points="753.44 483.39 718.45 503.59 718.45 456.93 753.44 436.73 753.44 483.39"/><polygon class="cls-6" points="788.43 463.18 753.44 483.39 753.44 436.73 788.43 416.52 788.43 463.18"/><polygon class="cls-6" points="753.44 530.04 718.45 550.25 718.45 503.59 753.44 483.39 753.44 530.04"/><polygon class="cls-5" points="788.43 509.84 753.44 530.04 753.44 483.39 788.43 463.18 788.43 509.84"/><polygon class="cls-5" points="823.43 442.98 788.43 463.18 788.43 416.52 823.43 396.32 823.43 442.98"/><polygon class="cls-6" points="858.42 422.77 823.43 442.98 823.43 396.32 858.42 376.12 858.42 422.77"/><polygon class="cls-6" points="823.43 489.64 788.43 509.84 788.43 463.18 823.43 442.98 823.43 489.64"/><polygon class="cls-5" points="858.42 469.43 823.43 489.64 823.43 442.98 858.42 422.77 858.42 469.43"/><path class="cls-7" d="M810.94,413.21c0,3.69-2.24,8-5,9.57s-5-.1-5-3.79,2.24-8,5-9.56S810.94,409.52,810.94,413.21Z"/><path class="cls-7" d="M809.72,430.42A66.93,66.93,0,0,1,809,417.8l-3.11,2.49-3.11,1.11a76.37,76.37,0,0,1-.68,13.4,39,39,0,0,1-3.94,11.7v6.94l6.5-3.75,2.46-1.42,6.5-3.75v-6.95A11.27,11.27,0,0,1,809.72,430.42Z"/><path class="cls-3" d="M601,487.27c0,3.69-2.25,8-5,9.57s-5-.1-5-3.79,2.24-8,5-9.56S601,483.58,601,487.27Z"/><path class="cls-3" d="M599.76,504.48a66.93,66.93,0,0,1-.68-12.62L596,494.35l-3.11,1.11a76.37,76.37,0,0,1-.68,13.4,39,39,0,0,1-3.94,11.7v6.94l6.5-3.75,2.45-1.42,6.51-3.75v-7A11.22,11.22,0,0,1,599.76,504.48Z"/><path class="cls-3" d="M775.94,386.1c0,3.69-2.24,8-5,9.57s-5-.1-5-3.79,2.24-8,5-9.57S775.94,382.41,775.94,386.1Z"/><path class="cls-3" d="M774.73,403.31a66.94,66.94,0,0,1-.68-12.62l-3.11,2.49-3.12,1.1a75.69,75.69,0,0,1-.67,13.41,39,39,0,0,1-3.94,11.7v6.94l6.5-3.75,2.45-1.42,6.51-3.76v-6.94A11.22,11.22,0,0,1,774.73,403.31Z"/><path class="cls-3" d="M671,492.64c0,3.69-2.24,8-5,9.57s-5-.1-5-3.79,2.24-8,5-9.56S671,489,671,492.64Z"/><path class="cls-3" d="M669.75,509.85a66.93,66.93,0,0,1-.68-12.62L666,499.72l-3.12,1.11a75.58,75.58,0,0,1-.67,13.4,38.87,38.87,0,0,1-3.95,11.7v7l6.51-3.76,2.45-1.42,6.51-3.75v-7A11.2,11.2,0,0,1,669.75,509.85Z"/><path class="cls-7" d="M671,306c0,3.69-2.24,8-5,9.57s-5-.1-5-3.79,2.24-8,5-9.57S671,302.32,671,306Z"/><path class="cls-7" d="M669.75,323.22a66.93,66.93,0,0,1-.68-12.62L666,313.09l-3.12,1.11a75.58,75.58,0,0,1-.67,13.4,39,39,0,0,1-3.95,11.7v6.94l6.51-3.75,2.45-1.42,6.51-3.75v-6.95A11.22,11.22,0,0,1,669.75,323.22Z"/><path class="cls-7" d="M601,300.64c0,3.68-2.25,8-5,9.56s-5-.09-5-3.78,2.24-8,5-9.57S601,297,601,300.64Z"/><path class="cls-7" d="M599.76,317.85a66.94,66.94,0,0,1-.68-12.62L596,307.72l-3.11,1.1a76.36,76.36,0,0,1-.68,13.4,39,39,0,0,1-3.94,11.71v6.94l6.5-3.76,2.45-1.41,6.51-3.76V325A11.22,11.22,0,0,1,599.76,317.85Z"/><path class="cls-7" d="M636,279.56c0,3.68-2.24,8-5,9.56s-5-.1-5-3.78,2.25-8,5-9.57S636,275.87,636,279.56Z"/><path class="cls-7" d="M634.75,296.77a66.94,66.94,0,0,1-.68-12.62L631,286.64l-3.11,1.1a76.36,76.36,0,0,1-.68,13.4,38.51,38.51,0,0,1-3.94,11.7v7l6.51-3.76,2.45-1.41,6.5-3.76v-6.94A11.3,11.3,0,0,1,634.75,296.77Z"/><path class="cls-7" d="M776.89,199.47c0,3.68-2.24,8-5,9.56s-5-.09-5-3.78,2.24-8,5-9.57S776.89,195.78,776.89,199.47Z"/><path class="cls-7" d="M775.67,216.68a66.34,66.34,0,0,1-.67-12.62l-3.12,2.49-3.11,1.1a76.82,76.82,0,0,1-.67,13.4,38.77,38.77,0,0,1-4,11.7v6.95l6.51-3.76,2.45-1.41,6.5-3.76v-6.94A11.27,11.27,0,0,1,775.67,216.68Z"/><path class="cls-3" d="M693.61,419.54V408.22s-10.21.16-6.37-11.93c2.93-9.24,10.28-11.05,13.26-8.74s4.13,25.63,4.13,25.63Z"/><path class="cls-3" d="M708.28,411.07V399.75s10.22-11.64,6.38-19.3c-2.93-5.84-10.28.82-13.26,6.58s-4.13,30.4-4.13,30.4Z"/><path class="cls-3" d="M704.92,382.17c0,4.49-1.78,9.16-4,10.43s-4-1.35-4-5.85,1.78-9.16,4-10.43S704.92,377.67,704.92,382.17Z"/><path class="cls-7" d="M658.62,254V242.67s-10.22.16-6.38-11.93c2.94-9.24,10.28-11.05,13.27-8.74s4.13,25.63,4.13,25.63Z"/><path class="cls-7" d="M673.29,245.52V234.2s10.22-11.64,6.38-19.3c-2.94-5.84-10.28.82-13.26,6.58s-4.14,30.4-4.14,30.4Z"/><path class="cls-7" d="M669.92,216.62c0,4.49-1.77,9.17-4,10.43s-4-1.35-4-5.85,1.77-9.16,4-10.43S669.92,212.12,669.92,216.62Z"/><polygon class="cls-3" points="815.74 331.71 814.84 313.08 810.06 333.74 805.93 316.8 801.8 338.51 797.02 323.37 796.12 343.04 788.97 330.42 793.88 363.48 805.93 356.52 817.98 349.56 822.89 310.84 815.74 331.71"/><polygon class="cls-7" points="745.76 277.35 744.85 258.72 740.08 279.38 735.94 262.44 731.81 284.15 727.04 269.01 726.13 288.68 718.99 276.06 723.89 309.12 735.94 302.16 747.99 295.2 752.9 256.48 745.76 277.35"/><path class="cls-8" d="M659.73,259.35c-16.62,7.2-27.38,7-44.68,12.42,1.73-7.58.56-14.59-3.88-22.34-1.49-2.59-5.82-2.16-6.52.85-4.39,19-8.85,32.84-18,49.64-6.88,7.18-22.88,29.45-40.5,46.2-15.33,14.57-32.36,35.12-32.36,35.12s3.34,48.4,10.77,50.16,14.18.55,24.44-7.92,43.2-80.13,62-113.53c18.45-12.79,20.12-6.4,42-11.41,9.9-2.26,22.14-12.37,29-21.15C691.91,265,672.92,253.63,659.73,259.35Z"/><path class="cls-2" d="M486.54,374.58s2.89-9.66,15.12-6.25c5.85,1.62,16.38,3.6,24.74,11.43,3.29,3.08,15,57.1,3.12,65.25s-21.7,5.44-30,6.65-24.3-3.79-23.35-16.06S486.54,374.58,486.54,374.58Z"/><path class="cls-1" d="M505.44,409.72c.7-14.65.32-20.66-4.63-34.09-23.86-16.09-41.24-33.49-64.47-44.43-15.82-7.45-35.64-27.92-53.71-11.73-19.28,17.28-23.74,60.3-9,83.28,21.2,32.93,47.2,25.33,79.22,31.7,11.18,2.23,25.78,7.63,38.54,10.48C501.11,435.07,504.71,425,505.44,409.72Z"/><path class="cls-9" d="M396.13,746.56q8.42-4.72,16.77-9.55c27.26-15.82,56.13-30.5,83.38-47.2a2.38,2.38,0,0,1,0-.26c-5.45-36.29-40.6-126-40.6-126l-84.54,47.78s-11.42,50,5.36,90.32C381.15,713,388.29,729.14,396.13,746.56Z"/><path class="cls-10" d="M290,807.45c39.53-25.84,82.09-46.76,122.88-70.44,1.4-.81,2.83-1.6,4.23-2.4l.65-4.77s44.79-29.23,21.83-103c-14.37-46.17-109.92-26.13-109.92-26.13s-17.22,24.34-30.93,67.17c-9.65,30.1-8.08,102.3-8.08,102.3S290.09,787.22,290,807.45Z"/><path class="cls-11" d="M270.14,426c3.48-17.68,5.92-30.24,19.51-42.47,26.66-24,83.31-52.4,115.09-47.81,23,18.3,40,32.2,48.32,54.14,7.5,19.84,13.61,35.21,13.61,67.6,0,62.71,10.64,133.15,16,156.9-4.31,8.13-18,23.22-24,29.29-6.24-3.82-11.25-12.12-19-16.79-7.3,18.13-14.58,33.75-21,34.72-42.42,6.4-117.1-5.05-122.46-17.93,3.2-41.6-4.32-96.76-21.76-143.82C265.09,474.68,264.68,453.68,270.14,426Z"/><path class="cls-8" d="M394.62,316s-4.59,30.37,6.54,40.89,11.2,32.13-11.08,39.4c-27,8.8-46.08-10.67-62.91-24.08,7.28-15.41,10.83-15.32,10.83-58.57C338,278.39,394.62,316,394.62,316Z"/><path class="cls-3" d="M364.89,401.63C383,417.15,399.76,460.09,412,476.88s23.47,22.94,28.09,4c5.9-24.15-2.3-82.56-19.86-105.29-7.64,5-13.46,16.67-23.78,19.91C381.81,400.12,367.92,392.28,364.89,401.63Z"/><path class="cls-7" d="M408.49,420.66s2.2,29.79,3.3,50.91c.06,1.07.11,2.91.16,5.31,6.63,9.69,13.81,19,21.11,28.34,2.57-8,4.95-16.1,7-24.3-.43-2.17-.84-4.16-1.2-5.9C433,446.75,428.67,433.49,425,417.25c3.7-15-4.22-32.06-4.22-32.06-7.49-5.43-31.91,3.71-30.67,11.05C392.7,411.68,408.49,420.66,408.49,420.66Z"/><path class="cls-1" d="M337,342.4s5.22,18.36,19.18,28.87C373.05,384,404.74,386,404.74,394.69c-9.2,0-11,.54-11,7.17,0,12.44-3.67,15.29-3.67,15.29s-22.86-6.51-39.35-13.38c-20.64-8.6-30-37.16-30-37.16S324.75,341.25,337,342.4Z"/><polygon class="cls-10" points="374 573.31 317.73 609.61 327.17 620.26 382.95 585.17 374 573.31"/><path class="cls-1" d="M404.74,343.35s13.38,14.54,19.12,21.23,2.38,19,5.25,24.57a74.36,74.36,0,0,1,4.14,9.29S421.31,396,419,389.15s-14.26,5.54-14.26,5.54l-8.44-6.93s12.74-8.16,8.44-16.86-11.47-20.18-11.47-20.18Z"/><path class="cls-12" d="M345.7,241.07c16.74-18.52,60.87-26.13,76.68,1,11.9,20.42,12.4,56.77,9.17,73.47-6.78,35.07-35.57,56-68.74,29C331.18,318.85,316.84,273,345.7,241.07Z"/><path class="cls-7" d="M428.91,228.12c-13.87-16.11-16.83-21-35.64-25.89-21.76-5.61-75.49,11.4-66.1,47.11-24.83,11.8-17.17,39.36-10.71,50.58,6.58,11.4,21.34,34,21.34,34s14-16.94,18.41-62c10.52,9,37.06,13.34,52.28-6.75,22.52,2.87,44-8.32,44.15-14.77A149.56,149.56,0,0,1,428.91,228.12Z"/><path class="cls-12" d="M363,294.52s-9.67-14.65-18.27-3.5,9,22,9,22Z"/><path class="cls-1" d="M284.76,570c24.9-25.1,41.39-84.26,45.33-101.57,6.31-27.73,3.14-52.74-12.36-72.5-16-20.37-22.14-28.3-48.29-7.53-30.67,24.35-32.1,43.73-40.42,82-2.52,11.62-6.33,41.2-12.59,77.28,0,17.92,22.85,26.65,41.92,34.17C269.89,586.4,273.36,581.46,284.76,570Z"/><path class="cls-12" d="M425,329.39a24.3,24.3,0,0,1-11.71-11.51c-2.57,8.66-16.86,16-16.86,16s9.48,10.09,16.86,6A37.52,37.52,0,0,0,425,329.39Z"/><path class="cls-8" d="M267.72,513a300.77,300.77,0,0,0-20.2-27.5c-13-15.9-42.45-47.94-49.93-60.14-11.1-18.1-30.64-27.16-35.92-36.37s-7.4,2.93-6.35,8.49,8.46,15.15,2.12,16.12S123.1,425.92,109.36,412s-20.2,1.21-11.75,22.08,46.62,15.11,56.13,14.9,21.62-3.4,25.34,6S198.71,515.62,208,529s10.7,33.56,30.78,28.27S277.61,527.2,267.72,513Z"/><path class="cls-2" d="M226.12,573.31c2,.66,13.63,8.54,36.44-5.22s27.7-26.89,30.1-37.84-5.57-25.58-10.77-30.63-26.71-7.07-26.71-7.07,8.54,15.19,11.41,23.52c-1.44,6.82-19.34,25.9-39.94,25.9C213,542,208,529,208,529s-3,.8-5.68,13.48C200.28,552.41,208.68,567.5,226.12,573.31Z"/></svg>