<svg id="Layer_1" data-name="Layer 1" xmlns="http://www.w3.org/2000/svg" viewBox="0 0 250 250"><defs><style>.cls-1{opacity:0.5;}.cls-2{fill:#96c;}.cls-3{fill:#a14126;}.cls-4{fill:#b3502f;}.cls-5{fill:#fff;}.cls-6{fill:#5b4140;}.cls-7{fill:#ca6b3b;}.cls-8{fill:#bebfba;}.cls-9{fill:#f3f5f2;}.cls-10{fill:#dce0da;}</style></defs><title>icon_tour</title><g class="cls-1"><circle class="cls-2" cx="125" cy="126" r="105.56"/></g><polygon class="cls-3" points="67.44 250 5.55 213.79 5.55 102.2 67.44 138.41 67.44 250"/><polygon class="cls-4" points="244.45 147.8 67.44 250 67.44 138.41 244.45 36.21 244.45 147.8"/><polygon class="cls-3" points="236.78 47.88 236.78 143.14 73.14 237.76 73.14 241.43 240.2 144.82 240.2 45.9 236.78 47.88"/><polygon class="cls-5" points="236.78 47.88 73.14 142.5 73.14 237.76 236.78 143.14 236.78 47.88"/><polygon class="cls-6" points="160.46 97.83 160.46 182.74 162.17 181.75 162.17 96.84 160.46 97.83"/><polygon class="cls-7" points="244.45 36.21 182.56 0 5.55 102.2 67.44 138.41 244.45 36.21"/><polygon class="cls-4" points="235.36 36.8 181.94 5.32 13.81 101.62 67.22 133.1 235.36 36.8"/><path class="cls-8" d="M96,93.15V97c0,4.27-6.15,7.73-13.73,7.73S68.5,101.29,68.5,97V93.15Z"/><path class="cls-9" d="M68.5,93.15c0,4.26,6.15,7.72,13.73,7.72S96,97.41,96,93.15s-6.15-7.73-13.73-7.73S68.5,88.88,68.5,93.15Z"/><path class="cls-10" d="M92,71.69V92.36c0,3-4.35,5.47-9.72,5.47s-9.71-2.45-9.71-5.47V71.69Z"/><path class="cls-8" d="M96,69.75v3.88c0,4.27-6.15,7.73-13.73,7.73S68.5,77.9,68.5,73.63V69.75Z"/><path class="cls-9" d="M68.5,69.75c0,4.27,6.15,7.73,13.73,7.73S96,74,96,69.75,89.81,62,82.23,62,68.5,65.48,68.5,69.75Z"/><path class="cls-8" d="M190.61,38.51v3.87c0,4.27-6.15,7.73-13.73,7.73s-13.73-3.46-13.73-7.73V38.51Z"/><path class="cls-9" d="M163.15,38.51c0,4.26,6.15,7.72,13.73,7.72s13.73-3.46,13.73-7.72-6.15-7.73-13.73-7.73S163.15,34.24,163.15,38.51Z"/><path class="cls-10" d="M167.16,30.94v6.78c0,3,4.35,5.47,9.72,5.47s9.72-2.45,9.72-5.47V30.94Z"/><path class="cls-8" d="M190.61,27.44v3.88c0,4.26-6.15,7.72-13.73,7.72s-13.73-3.46-13.73-7.72V27.44Z"/><path class="cls-9" d="M163.15,27.44c0,4.27,6.15,7.73,13.73,7.73s13.73-3.46,13.73-7.73-6.15-7.73-13.73-7.73S163.15,23.17,163.15,27.44Z"/><path class="cls-6" d="M112.12,167.47c0,2.8,1.7,4.08,3.8,2.87s3.8-4.46,3.8-7.26-1.7-4.09-3.8-2.88S112.12,164.67,112.12,167.47Z"/><polygon class="cls-6" points="114.53 141.1 115.92 140.3 115.92 131.16 114.53 131.97 114.53 141.1"/><polygon class="cls-6" points="114.53 202.78 115.92 201.98 115.92 190.25 114.53 191.05 114.53 202.78"/><polygon class="cls-6" points="96.49 177.42 96.49 175.56 89.47 179.62 89.19 181.64 96.49 177.42"/><polygon class="cls-6" points="142.75 150.71 142.75 148.85 133.96 153.93 133.96 155.79 142.75 150.71"/><polygon class="cls-6" points="105.32 150.17 106.53 148.55 103.37 143 102.2 144.69 105.32 150.17"/><polygon class="cls-6" points="128.28 190.46 129.5 188.84 125.13 181.18 123.92 182.8 128.28 190.46"/><polygon class="cls-6" points="98.78 163.17 99.5 161.16 94.26 160.02 93.51 162.02 98.78 163.17"/><polygon class="cls-6" points="138.51 171.84 139.22 169.82 131.67 168.18 130.95 170.19 138.51 171.84"/><polygon class="cls-6" points="124.43 139.14 123.22 138.92 127.59 126.21 128.8 126.43 124.43 139.14"/><polygon class="cls-6" points="101.47 205.94 100.26 205.72 104.63 193.01 105.84 193.24 101.47 205.94"/><polygon class="cls-6" points="131.08 144.79 130.38 143.59 137.99 133.31 138.69 134.51 131.08 144.79"/><polygon class="cls-6" points="91.24 198.61 90.75 197.12 97.98 187.36 98.68 188.56 91.24 198.61"/><polygon class="cls-6" points="106.53 185.44 117.4 165.67 109.3 152.04 108.19 153.53 115.11 165.75 104.99 184.17 106.53 185.44"/><path class="cls-6" d="M136.15,123.23c-5.72-3.29-13-2.73-20.5,1.61C98.74,134.6,85,160.86,85,183.37c0,12,3.94,21.13,10.81,25.1a16,16,0,0,0,8.12,2.12,24.94,24.94,0,0,0,12.39-3.72c16.91-9.76,30.66-36,30.66-58.53C147,136.35,143,127.2,136.15,123.23ZM86.28,183.37c0-22.1,13.46-47.86,30-57.41A23.65,23.65,0,0,1,128,122.41a14.74,14.74,0,0,1,7.47,2c6.46,3.73,10.16,12.47,10.16,24,0,22.1-13.46,47.85-30,57.41-7.08,4.09-13.91,4.66-19.21,1.6C90,203.62,86.28,194.88,86.28,183.37Z"/><path class="cls-6" d="M196.85,117.66c0,2.8,1.71,4.09,3.81,2.88s3.8-4.47,3.8-7.27-1.7-4.09-3.8-2.87S196.85,114.86,196.85,117.66Z"/><polygon class="cls-6" points="199.26 91.3 200.66 90.49 200.66 81.36 199.26 82.16 199.26 91.3"/><polygon class="cls-6" points="199.26 152.98 200.66 152.17 200.66 140.44 199.26 141.25 199.26 152.98"/><polygon class="cls-6" points="181.23 127.61 181.23 125.75 174.2 129.81 173.92 131.83 181.23 127.61"/><polygon class="cls-6" points="227.49 100.9 227.49 99.04 218.69 104.12 218.69 105.98 227.49 100.9"/><polygon class="cls-6" points="190.06 100.37 191.27 98.74 188.1 93.19 186.94 94.89 190.06 100.37"/><polygon class="cls-6" points="213.02 140.66 214.23 139.03 209.86 131.37 208.65 132.99 213.02 140.66"/><polygon class="cls-6" points="183.52 113.36 184.23 111.35 178.99 110.21 178.24 112.22 183.52 113.36"/><polygon class="cls-6" points="223.24 122.03 223.96 120.02 216.4 118.37 215.69 120.38 223.24 122.03"/><polygon class="cls-6" points="209.16 89.33 207.95 89.11 212.32 76.4 213.53 76.63 209.16 89.33"/><polygon class="cls-6" points="186.2 156.14 184.99 155.91 189.36 143.21 190.57 143.43 186.2 156.14"/><polygon class="cls-6" points="215.81 94.99 215.11 93.78 222.72 83.5 223.42 84.7 215.81 94.99"/><polygon class="cls-6" points="175.97 148.81 175.49 147.31 182.71 137.56 183.41 138.76 175.97 148.81"/><polygon class="cls-6" points="191.27 135.64 202.13 115.87 194.04 102.23 192.92 103.73 199.84 115.95 189.73 134.36 191.27 135.64"/><path class="cls-6" d="M220.88,73.43c-5.72-3.3-13-2.73-20.5,1.6-16.91,9.76-30.67,36-30.67,58.54,0,12,3.95,21.13,10.82,25.1a16,16,0,0,0,8.11,2.11A25,25,0,0,0,201,157.07c16.91-9.77,30.67-36,30.67-58.54C231.7,86.55,227.75,77.4,220.88,73.43ZM171,133.57c0-22.11,13.47-47.86,30-57.41a23.56,23.56,0,0,1,11.74-3.55,14.75,14.75,0,0,1,7.47,1.94c6.45,3.73,10.16,12.47,10.16,24,0,22.1-13.47,47.86-30,57.41-7.08,4.1-13.9,4.66-19.21,1.6C174.72,153.81,171,145.08,171,133.57Z"/></svg>