<svg id="Layer_1" data-name="Layer 1" xmlns="http://www.w3.org/2000/svg" viewBox="0 0 250 250"><defs><style>.cls-1{opacity:0.5;}.cls-2{fill:#96c;}.cls-3{fill:#4d4d4d;}.cls-4{fill:gray;}.cls-5{fill:#333;}.cls-6{fill:#fba53b;}.cls-7{fill:#ffdeab;}.cls-8{fill:#ffc375;}.cls-9{fill:#fff;}</style></defs><title>icon_group</title><g class="cls-1"><circle class="cls-2" cx="125" cy="126" r="105.56"/></g><path d="M155.08,100.7l-7.07,12c-13.88-5.36-32.12-5.36-46,0l-7.07-12c-10.76,7.74-11.88,17.75-11.32,30.87-.49,6.47,3.54,13,12.09,18,16.18,9.35,42.42,9.35,58.6,0,8.55-4.93,12.58-11.5,12.09-18C167,118.45,165.84,108.44,155.08,100.7Z"/><ellipse class="cls-3" cx="125.01" cy="112.48" rx="36.4" ry="21.02"/><path d="M151.33,104.65A44.26,44.26,0,0,1,146.16,93h-42.3a44.24,44.24,0,0,1-5.12,11.58c-3.43,5.72-1.22,12.23,6.58,16.73,10.87,6.28,28.51,6.28,39.38,0,7.8-4.5,10-11,6.63-16.65Z"/><path class="cls-3" d="M141.57,94.62c9.15,5.28,9.15,13.84,0,19.12s-24,5.28-33.12,0-9.15-13.84,0-19.12S132.42,89.34,141.57,94.62Z"/><path class="cls-3" d="M103.61,109.68s-8.15-6-8.15-16.69a33.32,33.32,0,0,1,4.79-17.6,46.43,46.43,0,0,1-4.79,2.27c-.72.12-14.26-7.07-14.26-7.07s-4.56-7.19,0-13.9S96.18,30,96.18,30s.52-4.19,1-6.11,4.53-5.27,5.37-9.11,5.28-5.63,5.28-5.63V0l13.9,4.5S147.36,0,155.15,19.18s-3.48,47.46-3.48,47.46-3,17.33-1,24.83l-2.3,13.22Z"/><path d="M95.46,77.66s-6.07-4-1-13.78,15.18-23.61,15.5-25.69a40,40,0,0,1,1.6-5.59s8.15-3.83,8.47-5.27a10.19,10.19,0,0,1,2.08-4.8,16.46,16.46,0,0,1,4-3.19V10.07l6.08,2.23s20.55-6.43,25.38,16.36,0,58.43,0,58.43l-6.25,17.48-9.55,13.13c-9.2,2.82-17.7,3.17-25-.86,0,0-13.07-7.54-7.32-22.88s20.3-31.32,25.89-44.74c0,0-11.82,11.82-21.41,9.75l-5.43,3.35S106.73,79.58,95.46,77.66Z"/><polygon points="107.81 0 116.8 14.26 126.06 10.07 121.71 4.5 107.81 0"/><polygon points="111.52 32.6 102.41 31.02 97.16 23.85 96.18 29.96 109.92 38.19 111.52 32.6"/><path class="cls-4" d="M111.61,51.2c-5,6-5,6-10,8.55-.3,3,.88,11.22-3.76,12.31a3.07,3.07,0,0,1-2-.2,4.78,4.78,0,0,0,1,2.1c6-1.15,7.92-9.58,8.22-12.44l.17-1.66,8-5,1.33.29a8,8,0,0,0,1.65.17c6.25,0,14.15-6.5,16.66-9l1.32-2.86C129.49,48.53,118.86,52.87,111.61,51.2Z"/><path class="cls-4" d="M154.24,29.08C153,23,150.48,18.9,146.83,16.59a26.06,26.06,0,0,1,3,8.37c4.37,22.18.47,56.35,0,60.24l-6.66,19.72.91,1.61a7.15,7.15,0,0,1,.82,5.31c-.65,2.63-2.87,5.22-6.27,7.3A27.2,27.2,0,0,1,134.9,121,30.3,30.3,0,0,0,143,117.9c3.4-2,5.62-4.41,6.27-6.89a6.43,6.43,0,0,0-.82-5l-.9-1.53,6.65-18.63C154.68,82.15,158.58,49.86,154.24,29.08Z"/><path class="cls-4" d="M163,131.16a70,70,0,0,0-.23-11.35,23.7,23.7,0,0,1-6.47,7.39v16.45c4.63-3.64,7-8,6.72-12.29Z"/><path d="M85.72,164.93l-7.07,12c-13.88-5.36-32.12-5.36-46,0l-7.06-12c-10.77,7.74-11.88,17.76-11.33,30.87-.49,6.47,3.54,13,12.1,18,16.18,9.34,42.41,9.34,58.59,0,8.56-4.94,12.58-11.5,12.09-18C97.6,182.69,96.49,172.67,85.72,164.93Z"/><ellipse class="cls-3" cx="55.65" cy="176.72" rx="36.4" ry="21.02"/><path d="M55.65,137.93H41.39c-2.79,14.38-6,19.17-12,30.87C26,174.53,28.16,181,36,185.53c5.44,3.14,12.56,4.71,19.69,4.71s14.26-1.57,19.7-4.71c7.79-4.5,10-11,6.62-16.64-6.07-11.79-9.26-16.58-12-31Z"/><path class="cls-5" d="M73.43,120.25c9.81,5.67,9.81,14.86,0,20.52s-25.73,5.67-35.55,0-9.81-14.85,0-20.52S63.61,114.58,73.43,120.25Z"/><path class="cls-3" d="M67.78,116.54c6.69,3.87,6.69,10.14,0,14s-17.55,3.86-24.25,0-6.69-10.13,0-14S61.08,112.68,67.78,116.54Z"/><path d="M78.36,107.46A22.71,22.71,0,1,1,55.65,84.75,22.71,22.71,0,0,1,78.36,107.46Z"/><path class="cls-4" d="M79.09,170.2c-.94-1.79-1.66-3.16-2.33-4.45-.9-1.73-1.73-3.32-2.5-4.85a74.55,74.55,0,0,1-5.82-14.82,39.8,39.8,0,0,1-6.12,1.37c2.58,12.15,4.06,24.24,9.52,35.64.63-.3,1.24-.62,1.82-1,3.39-2,5.62-4.41,6.26-6.9A6.41,6.41,0,0,0,79.09,170.2Z"/><path class="cls-4" d="M93.92,195.59a71,71,0,0,0-.24-11.35,23.5,23.5,0,0,1-6.46,7.38v16.46c4.63-3.65,7-8,6.71-12.3Z"/><path class="cls-4" d="M73.44,105.08c1-.59,1.45-2,1.32-3.64a12.6,12.6,0,0,0-1.57-4.69c-2-3.51-5.2-5.48-7.08-4.39s-1.77,4.82.25,8.33A12.15,12.15,0,0,0,69.14,104C71,105.36,72.42,105.67,73.44,105.08Z"/><path d="M224.41,164.93l-7.06,12c-13.88-5.36-32.12-5.36-46,0l-7.07-12c-10.77,7.74-11.88,17.76-11.32,30.87-.49,6.47,3.53,13,12.09,18,16.18,9.34,42.41,9.34,58.59,0,8.56-4.94,12.59-11.5,12.1-18C236.29,182.69,235.18,172.67,224.41,164.93Z"/><ellipse class="cls-3" cx="194.35" cy="176.72" rx="36.4" ry="21.02"/><path d="M194.35,137.93H180.08c-2.79,14.38-6,19.17-12,30.87-3.43,5.73-1.22,12.23,6.57,16.73,5.44,3.14,12.57,4.71,19.7,4.71s14.25-1.57,19.69-4.71c7.8-4.5,10-11,6.62-16.64-6.06-11.79-9.26-16.58-12-31Z"/><path class="cls-5" d="M212.12,120.25c9.81,5.67,9.81,14.86,0,20.52s-25.73,5.67-35.55,0-9.81-14.85,0-20.52S202.3,114.58,212.12,120.25Z"/><path class="cls-3" d="M206.47,116.54c6.69,3.87,6.69,10.14,0,14s-17.55,3.86-24.25,0-6.69-10.13,0-14S199.77,112.68,206.47,116.54Z"/><path d="M217.05,107.46a22.71,22.71,0,1,1-22.7-22.71A22.7,22.7,0,0,1,217.05,107.46Z"/><path class="cls-4" d="M217.79,170.2c-.95-1.79-1.66-3.16-2.33-4.45-.9-1.73-1.74-3.32-2.51-4.85a75.16,75.16,0,0,1-5.82-14.82,39.8,39.8,0,0,1-6.12,1.37c2.59,12.15,4.06,24.24,9.52,35.64.63-.3,1.24-.62,1.82-1,3.4-2,5.62-4.41,6.26-6.9A6.45,6.45,0,0,0,217.79,170.2Z"/><path class="cls-4" d="M232.61,195.59a68.74,68.74,0,0,0-.24-11.35,23.5,23.5,0,0,1-6.46,7.38v16.46c4.63-3.65,7-8,6.72-12.3Z"/><path class="cls-4" d="M212.14,105.08c1-.59,1.45-2,1.31-3.64a12.43,12.43,0,0,0-1.57-4.69c-2-3.51-5.2-5.48-7.08-4.39s-1.77,4.82.26,8.33a12,12,0,0,0,2.77,3.33C209.72,105.36,211.12,105.67,212.14,105.08Z"/><path class="cls-6" d="M155.07,194.15l-7.07,12c-13.88-5.36-32.12-5.36-46,0l-7.07-12C84.17,201.9,83.05,211.92,83.61,225c-.49,6.47,3.54,13,12.09,18,16.18,9.35,42.42,9.35,58.6,0,8.55-4.94,12.58-11.49,12.09-18C167,211.92,165.83,201.9,155.07,194.15Z"/><ellipse class="cls-7" cx="125" cy="205.94" rx="36.4" ry="21.02"/><path class="cls-6" d="M125,167.15H110.74c-2.79,14.38-6,19.18-12,30.88-3.44,5.72-1.23,12.23,6.57,16.73,5.44,3.14,12.56,4.71,19.69,4.71s14.25-1.57,19.69-4.71c7.8-4.5,10-11,6.63-16.65-6.07-11.78-9.27-16.58-12.06-31Z"/><path class="cls-8" d="M142.77,149.48c9.82,5.66,9.82,14.85,0,20.52s-25.73,5.67-35.54,0-9.82-14.86,0-20.52S133,143.81,142.77,149.48Z"/><path class="cls-7" d="M137.12,145.77c6.7,3.86,6.7,10.13,0,14s-17.55,3.87-24.24,0-6.7-10.13,0-14S130.43,141.9,137.12,145.77Z"/><path class="cls-6" d="M147.71,136.68A22.71,22.71,0,1,1,125,114,22.71,22.71,0,0,1,147.71,136.68Z"/><path class="cls-9" d="M148.44,199.43,146.11,195c-.9-1.72-1.73-3.31-2.51-4.85a75.68,75.68,0,0,1-5.82-14.81,40.59,40.59,0,0,1-6.11,1.36c2.58,12.15,4.05,24.24,9.52,35.64.63-.3,1.23-.61,1.81-.95,3.4-2,5.62-4.41,6.27-6.89A6.41,6.41,0,0,0,148.44,199.43Z"/><path class="cls-9" d="M163.27,224.81a71,71,0,0,0-.24-11.35,23.7,23.7,0,0,1-6.47,7.39V237.3c4.63-3.64,7.05-8,6.72-12.29Z"/><path class="cls-9" d="M142.79,134.31c1-.59,1.45-2,1.31-3.64a12.31,12.31,0,0,0-1.57-4.69c-2-3.51-5.19-5.48-7.08-4.39s-1.77,4.81.26,8.32a11.89,11.89,0,0,0,2.78,3.34C140.37,134.58,141.77,134.89,142.79,134.31Z"/></svg>