<svg id="Layer_1" data-name="Layer 1" xmlns="http://www.w3.org/2000/svg" viewBox="0 0 1000 1000"><defs><style>.cls-1{fill:#725454;}.cls-2{fill:#ff6c85;}.cls-3{fill:#e8385a;}.cls-4{fill:#ff5065;}.cls-5{fill:#5b4140;}.cls-6{fill:#e83d38;}.cls-7{fill:#bebfba;}.cls-8{fill:#ced6c9;}.cls-9{fill:#fff;}.cls-10{fill:#ffb19c;}.cls-11{fill:#caccc6;}.cls-12{fill:#ffc1ae;}.cls-13{fill:#4f3636;}.cls-14,.cls-21{fill:#f3f5f2;}.cls-15{fill:#dce0da;}.cls-16{fill:#ca6b3b;}.cls-17{fill:#b3502f;}.cls-18{fill:#a14126;}.cls-19{fill:#3f2a28;}.cls-20{fill:#a568af;}.cls-21{opacity:0.5;}.cls-22{fill:#f8fcff;}.cls-23{fill:#bac5b3;}.cls-24{fill:#acada5;}.cls-25{fill:#ffc9b6;}</style></defs><title>icon_tour</title><path class="cls-1" d="M909.18,387.46V572.4c0,2.59-3.5,4.7-7.83,4.7s-7.83-2.11-7.83-4.7V387.46Z"/><path class="cls-1" d="M782.36,448.6V646.84c0,2.59-3.51,4.7-7.84,4.7s-7.83-2.11-7.83-4.7V448.6Z"/><path class="cls-1" d="M655.53,397.82V573.76c0,2.6-3.51,4.7-7.83,4.7s-7.84-2.1-7.84-4.7V397.82Z"/><polygon class="cls-2" points="627.99 401.18 774.37 485.69 920.66 401.13 774.28 316.62 627.99 401.18"/><polygon class="cls-2" points="627.99 389.67 774.37 474.19 920.66 389.63 774.28 305.12 627.99 389.67"/><polygon class="cls-3" points="920.66 389.63 920.66 401.13 774.37 485.69 774.37 474.19 920.66 389.63"/><polygon class="cls-4" points="627.99 389.67 627.99 401.18 774.37 485.69 774.37 474.19 627.99 389.67"/><path class="cls-3" d="M768,118.56l10.19-5.62,0,.07c2.18-1.29,5-1.26,8.14.55l121.87,70.36c6.85,4,12.41,14.58,12.41,23.72V390.41l-10.73,5.9L774,305.72l-3.28-175.65Z"/><path class="cls-4" d="M763.24,311.62V128.85c0-9.14,5.56-13.35,12.42-9.39l121.86,70.36c6.85,4,12.41,14.58,12.41,23.72V396.31Z"/><path class="cls-5" d="M737.84,642.62s3.61,19.55,2.07,30.57-4.4,13.45-8,16.91a6.66,6.66,0,0,1-7.45,1.54s-3.39,22.71-15,31.06-31.28,7.64-40,3.56-1.49-20,8.63-35.27,22.77-31.65,26.75-45.92C726.64,643.85,737.84,642.62,737.84,642.62Z"/><path class="cls-5" d="M629.11,579.25a123.45,123.45,0,0,0,4.21,18.43c3,9.41-.27,22.65-.27,22.65s-1.95,5.85-10.68,7.72a34.13,34.13,0,0,1-14.76-.11,109.41,109.41,0,0,1-18.23,17.43C579,653,556,659.11,549.67,658.26c-10.18-1.38-15.75-9.21-15.06-14.33s12.42-19.45,22.13-25.74c6.31-4.09,20.59-17.78,24.85-22.53a121.16,121.16,0,0,0,12.24-16.51Z"/><path class="cls-6" d="M667.57,416c-6.25-35.53-26.8-68.58-52.55-47.18-9.61,8-27.52,16-27.52,45.22,0,35.1-5.63,123.67-5.63,163.75,6,17.6,50.36,28.23,58.14,11.7,3-14.66,21-125.91,25.78-150.5C669,422.83,667.58,416,667.57,416Z"/><path class="cls-6" d="M788.48,293.85A674.6,674.6,0,0,0,712.92,313c-18.78,5.93-70.35,37.71-97.9,55.82-7.07,4.65-17.06,17.62-18.26,23.6,24.92,7.79,37.39,33.33,47.13,57.46,27.21-12.19,101.44-54.35,122.4-63.11,30.62-12.8,42.76-55.77,42.76-55.77Z"/><path class="cls-4" d="M752.65,452.11c-7.28-31.28-55.43-27.47-64.84-3-6.78,17.61-6.78,17.61-4.26,52.82,2.39,33.36,7,108.79,7,149.66,19.48,17.82,50.8,7,55.61-1.09-.85-56.77,12.67-100.66,13.39-148.2C759.92,474.68,753.09,454.6,752.65,452.11Z"/><path class="cls-4" d="M868.15,340.26c-4-13.16.64-19.43-13.65-25.59-6.87-3-16.18-2.43-23.43-3.09L792.14,308c-4.95-.45-18.46,9.9-18.46,9.9-11.54,16.51-9.06,20.55-14.16,40.29-24.92,20.53-62,64.12-74.11,97.23-2.29,6.28,49.9,28,58.66,41.71,9.1-2.62,67.15-49.13,82.83-61.14,13.74-10.52,25.18-14.63,35.3-28.69C873.23,392,873.53,358,868.15,340.26Z"/><path class="cls-7" d="M771.06,99.45s-6.89-13.64-30.93,1.91c-9.48,6.13-43.36,111.57-49.26,124.14,14.6,11.76,6.46,27.75,5.74,46.67.11-.08,12.46,7.26,26-2.84,21.13-15.72,46.93-51.79,47.34-55.06.58-4.51-1.75-10.76-5.57-17.61C768.65,154.11,771.06,99.45,771.06,99.45Z"/><path class="cls-8" d="M804.15,106.8c-7.12-1.24-35-6.39-37.52-4.72-17.92,12-36.32,50.68-37.68,76.24-1.15,21.52.38,112.55,1.49,118.14-6.56,2.83-18.38,9.61-9.33,16.93,14.45,11.67,60,37.31,81.83,41.78,31.5,6.48,52.87,3.59,64.3-18.47,4.32-8.34,5.62-15.29-1.87-18.78,13.63-22.87,1.52-92.67,4.15-112.55,4-29.91,14.48-41.66-5.12-61.27C855.8,135.5,819.69,109.74,804.15,106.8Z"/><path class="cls-9" d="M829.94,116.44c9.34,4.85,15,10,0,23.92s-38.08,23.41-60,12.93c-35.35-16.9-10.21-48.65,5.73-51.74S814.67,108.51,829.94,116.44Z"/><path class="cls-10" d="M824.67,77.41S794.34,88.72,782.57,99s-36,29-9.09,45.23c21.45,13,45.42-6.77,55.46-20.87C822.37,116.7,824.67,77.41,824.67,77.41Z"/><path class="cls-7" d="M825.27,340s-23.21-8.36-30.66-11.3c-6-2.36-32.76-11.94-32.76-11.94s21,14.72,33.4,19.24S825.27,340,825.27,340Z"/><path class="cls-11" d="M784.34,300.38s16.08,3,28.38,4.07,33,5.58,33,5.58-22.72,3.89-35.67,1.23S784.34,300.38,784.34,300.38Z"/><path class="cls-12" d="M756.36,55.92c2.89-11.51,8.43-25.57,19.07-32s25.84-4,37.12-.84C830,28,838.46,50.23,830.61,72.29c-7.26,20.36-28,49.77-52.26,49.29-12.36-.24-19.73-11.08-22.81-23.65C751.9,83,754,65.4,756.36,55.92Z"/><path class="cls-4" d="M836.94,33.85c-3.45-24-27.89-46.18-54-25.92-13-22-49.32,12-35.38,30.39-13.87,12.13,5.11,32.43,24.28,20,10.28,19.11,32.6,8.22,38-1.42.27,7.62,8.51,15.14,15.91,15.62-3.45,8-5.83,20.66-1.31,29.25C826.83,92.23,841.18,86.46,843,77a14.1,14.1,0,0,0-3-11.11C849.51,58.38,850.9,31.1,836.94,33.85Z"/><path class="cls-12" d="M815.05,70.81s6.21-8.34,12.46-1.76-10,19.25-10,19.25Z"/><path class="cls-7" d="M700.17,205.47c-7.8,7.9-42.77,21.55-61.86,39.74-5.56,3.29-.93,15.4,3.06,23.16,8.79,17.1,21,20.8,29.7,17.5,22.62-8.57,36.44-2.26,51.59-16.54C719.37,236.45,708,197.56,700.17,205.47Z"/><path class="cls-7" d="M864.4,144.1c20.83,10,33.75,33.71,29.12,74.83-4,35.68-17,82.81-24.59,94s-48.08,21-74.12,18.09c-17.82-2-41.21-.73-45.31-10-6.66-15.07-4.47-29.89,0-37.51,7.33-12.49,79.44-8.79,79.44-8.79s-.67-26.86,1.51-67.05S847.87,146.45,864.4,144.1Z"/><path class="cls-9" d="M764.87,286.81c4.29,6.54,6.61,26.05,1.38,34.45s-25.8,8.85-29.65,2.31c-2.75-4.69-7.22-22.36-4.19-35.09,1.2-5.05,7.71-4.89,11.65-5.76C755.3,280.21,761.09,281,764.87,286.81Z"/><polygon class="cls-13" points="544.53 938.26 563.15 927.51 563.15 637.98 544.53 648.73 544.53 938.26"/><polygon class="cls-1" points="544.53 938.26 525.92 927.51 525.92 637.98 544.53 648.73 544.53 938.26"/><polygon class="cls-13" points="214.38 746.45 233 735.7 233 446.17 214.38 456.92 214.38 746.45"/><polygon class="cls-1" points="214.38 746.45 195.77 735.7 195.77 446.17 214.38 456.92 214.38 746.45"/><polygon class="cls-13" points="874.68 746.45 893.29 735.7 893.29 446.17 874.68 456.92 874.68 746.45"/><polygon class="cls-1" points="874.68 746.45 856.07 735.7 856.07 446.17 874.68 456.92 874.68 746.45"/><polygon class="cls-14" points="195.77 421.76 545.11 623.45 893.29 421.74 543.96 220.04 195.77 421.76"/><polygon class="cls-15" points="893.29 421.74 893.29 449.5 545.11 651.22 545.11 623.45 893.29 421.74"/><polygon class="cls-7" points="195.77 421.76 195.77 449.53 545.11 651.22 545.11 623.45 195.77 421.76"/><path class="cls-12" d="M728.41,314.32s-7.4,3.66-14.06,2.84-11-7.78-18.74-11.5-12.26-4.61-9.87-9.57,8.84-1,11.11-.8,10,3.82,17.5,3.48S728.41,314.32,728.41,314.32Z"/><path class="cls-9" d="M630.53,262.3s-2-8,8.25-13.2,10.61-5.18,17.67,0,11.08,13.28,9.67,22.67-5,13.07-14.62,12.69-17.67-10.68-17.67-10.68Z"/><path class="cls-12" d="M639.86,254.21s-15.52,2.39-25.42,0-20.68,2-29.87,9.51-14.23,15.76-10,15.07,13-4.12,13-4.12-8.48,11.91-2.59,11,12.73-6.84,12.73-6.84-10.14,13-4.24,12.86c3.93-.08,8-4.42,10.6-7.67,7.54-2.6,11.32-6.59,11.32-6.59s13.53,2.32,16.42,4c8-1.4,15.24-1.64,19.21-6.71C654.1,257.14,639.86,254.21,639.86,254.21Z"/><path class="cls-12" d="M640.2,268.37s-.16,10.77-9.57,13.54c-8.46,2.48-16.88,13.62-18.45,12.25s-3.24-6.84,6.15-16.08S640.2,268.37,640.2,268.37Z"/><polygon class="cls-16" points="785.48 407.79 552.32 542.4 319.92 407.77 553.09 273.15 785.48 407.79"/><polygon class="cls-9" points="554.55 286.54 344.58 407.77 553.86 529.01 763.83 407.79 554.55 286.54"/><polygon class="cls-17" points="319.92 407.77 319.92 435.07 552.32 569.71 552.32 542.4 319.92 407.77"/><polygon class="cls-18" points="785.48 407.79 785.48 435.09 552.32 569.71 552.32 542.4 785.48 407.79"/><polygon class="cls-18" points="554.49 286.54 528.24 301.69 554.4 316.85 580.64 301.7 554.49 286.54"/><polygon class="cls-18" points="554.39 316.85 528.15 332 554.31 347.16 580.55 332 554.39 316.85"/><polygon class="cls-18" points="554.49 347.16 528.24 362.31 554.4 377.46 580.64 362.31 554.49 347.16"/><polygon class="cls-18" points="554.39 377.46 528.15 392.62 554.31 407.77 580.55 392.62 554.39 377.46"/><polygon class="cls-18" points="554.49 407.79 528.24 422.94 554.4 438.09 580.64 422.94 554.49 407.79"/><polygon class="cls-18" points="554.39 438.09 528.15 453.25 554.31 468.4 580.55 453.25 554.39 438.09"/><polygon class="cls-18" points="554.49 468.4 528.24 483.55 554.4 498.71 580.64 483.56 554.49 468.4"/><polygon class="cls-18" points="554.39 498.71 528.15 513.86 554.31 529.01 580.55 513.86 554.39 498.71"/><polygon class="cls-18" points="501.99 316.85 475.75 332 501.9 347.16 528.15 332 501.99 316.85"/><polygon class="cls-18" points="502.08 347.16 475.84 362.31 502 377.46 528.24 362.31 502.08 347.16"/><polygon class="cls-18" points="501.99 377.46 475.75 392.62 501.9 407.77 528.15 392.62 501.99 377.46"/><polygon class="cls-18" points="502.08 407.79 475.84 422.94 502 438.09 528.24 422.94 502.08 407.79"/><polygon class="cls-18" points="501.99 438.09 475.75 453.25 501.9 468.4 528.15 453.25 501.99 438.09"/><polygon class="cls-18" points="502.08 468.4 475.84 483.55 502 498.71 528.24 483.56 502.08 468.4"/><polygon class="cls-18" points="606.89 316.85 580.64 332 606.8 347.16 633.05 332 606.89 316.85"/><polygon class="cls-18" points="606.98 347.16 580.74 362.31 606.89 377.46 633.14 362.31 606.98 347.16"/><polygon class="cls-18" points="606.89 377.46 580.64 392.62 606.8 407.77 633.05 392.62 606.89 377.46"/><polygon class="cls-18" points="606.98 407.79 580.74 422.94 606.89 438.09 633.14 422.94 606.98 407.79"/><polygon class="cls-18" points="606.89 438.09 580.64 453.25 606.8 468.4 633.05 453.25 606.89 438.09"/><polygon class="cls-18" points="606.98 468.4 580.74 483.55 606.89 498.71 633.14 483.56 606.98 468.4"/><polygon class="cls-18" points="449.68 347.16 423.44 362.31 449.59 377.46 475.84 362.31 449.68 347.16"/><polygon class="cls-18" points="449.59 377.46 423.34 392.62 449.5 407.77 475.75 392.62 449.59 377.46"/><polygon class="cls-18" points="449.68 407.79 423.44 422.94 449.59 438.09 475.84 422.94 449.68 407.79"/><polygon class="cls-18" points="449.59 438.09 423.34 453.25 449.5 468.4 475.75 453.25 449.59 438.09"/><polygon class="cls-18" points="659.39 347.16 633.14 362.31 659.3 377.46 685.54 362.31 659.39 347.16"/><polygon class="cls-18" points="659.29 377.46 633.05 392.62 659.21 407.77 685.45 392.62 659.29 377.46"/><polygon class="cls-18" points="659.39 407.79 633.14 422.94 659.3 438.09 685.54 422.94 659.39 407.79"/><polygon class="cls-18" points="659.29 438.09 633.05 453.25 659.21 468.4 685.45 453.25 659.29 438.09"/><polygon class="cls-18" points="397.18 377.46 370.94 392.62 397.1 407.77 423.34 392.62 397.18 377.46"/><polygon class="cls-18" points="397.28 407.79 371.03 422.94 397.19 438.09 423.44 422.94 397.28 407.79"/><polygon class="cls-18" points="711.7 377.46 685.45 392.62 711.61 407.77 737.85 392.62 711.7 377.46"/><polygon class="cls-18" points="711.79 407.79 685.54 422.94 711.7 438.09 737.95 422.94 711.79 407.79"/><path class="cls-19" d="M570.8,297.14v4.62c0,5.09-7.32,9.21-16.36,9.21s-16.36-4.12-16.36-9.21v-4.62Z"/><path class="cls-5" d="M538.08,297.14c0,5.09,7.33,9.21,16.36,9.21s16.36-4.12,16.36-9.21-7.32-9.21-16.36-9.21S538.08,292.05,538.08,297.14Z"/><path class="cls-5" d="M543.06,294.39c0,3.57,5.14,6.46,11.48,6.46S566,298,566,294.39s-5.14-6.46-11.48-6.46S543.06,290.82,543.06,294.39Z"/><path class="cls-5" d="M546,250.44c0,2.64,3.81,4.79,8.51,4.79s8.51-2.15,8.51-4.79-3.81-4.79-8.51-4.79S546,247.79,546,250.44Z"/><path class="cls-5" d="M546,250.6s1,16,0,28c-1.17,14.44-3,15.75-3,15.75l14.82,1.08-1.78-45.92Z"/><path class="cls-5" d="M563.05,278.64c-1-12.09,0-28,0-28l-10.07-1-1.79,45.92L566,294.39S564.22,293.08,563.05,278.64Z"/><path class="cls-19" d="M564.9,291.66a77.92,77.92,0,0,1-1.85-13c-1-12.09,0-28,0-28h0c0-.05,0-.1,0-.15,0-2.65-3.81-4.79-8.51-4.79s-8.51,2.14-8.51,4.79c0,.05,0,.1,0,.15h0s1,16,0,28a77.92,77.92,0,0,1-1.85,13,4.25,4.25,0,0,0-1.12,2.73c0,3.57,5.14,6.46,11.48,6.46S566,298,566,294.39A4.25,4.25,0,0,0,564.9,291.66Z"/><path class="cls-13" d="M544.41,295c3.69-5.89,4.46-12.09,4.86-19,.55-9.77-.33-20.06,1.34-29.77-2.71.8-4.58,2.38-4.58,4.22,0,.05,0,.1,0,.15h0s1,16,0,28a77.92,77.92,0,0,1-1.85,13,4.25,4.25,0,0,0-1.12,2.73,3.92,3.92,0,0,0,.54,1.86Z"/><path class="cls-13" d="M542.16,249.28c0,3.82,5.5,6.92,12.28,6.92s12.28-3.1,12.28-6.92-5.49-6.91-12.28-6.91S542.16,245.47,542.16,249.28Z"/><rect class="cls-13" x="542.16" y="235.91" width="24.56" height="13.37"/><path class="cls-1" d="M542.16,235.91c0,3.82,5.5,6.91,12.28,6.91s12.28-3.09,12.28-6.91S561.23,229,554.44,229,542.16,232.09,542.16,235.91Z"/><path class="cls-19" d="M561.73,238.92a3.83,3.83,0,0,0,2-3c0-2.69-4.13-4.88-9.21-4.88s-9.21,2.19-9.21,4.88a3.81,3.81,0,0,0,2,3,14.85,14.85,0,0,1,14.39,0Z"/><path class="cls-5" d="M561.73,238.92a14.85,14.85,0,0,0-14.39,0,14.78,14.78,0,0,0,14.39,0Z"/><path class="cls-19" d="M597.22,312.2v4.62c0,5.09-7.33,9.21-16.37,9.21s-16.36-4.12-16.36-9.21V312.2Z"/><path class="cls-5" d="M564.49,312.2c0,5.09,7.33,9.21,16.37,9.21s16.36-4.12,16.36-9.21S589.89,303,580.86,303,564.49,307.11,564.49,312.2Z"/><path class="cls-1" d="M568.25,310.13c0,3.92,5.64,7.1,12.61,7.1s12.6-3.18,12.6-7.1-5.64-7.09-12.6-7.09S568.25,306.22,568.25,310.13Z"/><path class="cls-19" d="M591.41,262a33.81,33.81,0,0,0-.72-6.85l3.3-4.23-9.42-5.36,0,0c-3.51-2-8-2-12.41-.86a46.44,46.44,0,0,1-6.22,1.17c-.07,2.09.11,4.46,1.28,5.38-3.28,2.81-6.71,7.11-6.76,10.89,0,.86-4.49,7.73-6.62,10.05-2.4,2.61-.42,8,1.11,8.51l9.6,5.46,6.6-12.91-2.66-1.28A9.65,9.65,0,0,0,570,268.2c3.43,4.19-1,11-3.74,16a30.53,30.53,0,0,0-3.79,11.57c-.75,8.72,1.84,11.89,6.44,15.48l9.6,5.46,5.77-10-2.92-2.65,1.47-.85C583.21,291.89,591.53,277,591.41,262Z"/><path class="cls-13" d="M568.26,278.84a10,10,0,0,1,1.53-6.27l-1.32-.63A9.65,9.65,0,0,0,570,268.2a5.45,5.45,0,0,1,1.11,2.36,68.94,68.94,0,0,1,6.19-6.84,178.89,178.89,0,0,1,15.27-13.67l-8-4.54,0,0c-3.51-2-8-2-12.41-.86a46.44,46.44,0,0,1-6.22,1.17c-.07,2.09.11,4.46,1.28,5.38-3.28,2.81-6.71,7.11-6.76,10.89,0,.86-4.49,7.73-6.62,10.05-2.4,2.61-.42,8,1.11,8.51l9.6,5.46Z"/><path class="cls-13" d="M582.83,303.24a35.17,35.17,0,0,1,1.66-9.64c-2.48-1.15-15.17-6.91-18.4-9a30,30,0,0,0-3.62,11.22c-.75,8.72,1.84,11.89,6.44,15.48l9.6,5.46,5.77-10-2.92-2.65Z"/><path class="cls-1" d="M594,250.87l-9.42-5.36,0,0c-3.51-2-8-2-12.41-.86a46.44,46.44,0,0,1-6.22,1.17l9.6,5.46,15.67,6.89c-.13-1.1-.29-2.13-.5-3.09Z"/><path class="cls-5" d="M575.86,289.69a30.19,30.19,0,0,0-3.79,11.57c-.75,8.72,1.84,11.9,6.44,15.48l13.92-8c.38-11.35,8.69-26.26,8.57-41.29-.14-17.16-9.74-19.73-19.26-17.28a46.44,46.44,0,0,1-6.22,1.17c-.07,2.09.11,4.46,1.28,5.38-3.28,2.81-6.71,7.11-6.76,10.89,0,.86-4.5,7.73-6.63,10.06-2.39,2.6-.42,8,1.12,8.5,1.15.35,2.85-1.44,4.12-2.78,2-1.45,3.87-1.45,6.61-3.21a9.68,9.68,0,0,0,4.34-6.48C583,277.85,578.57,284.62,575.86,289.69Z"/><path class="cls-19" d="M623.3,328.32v4.62c0,5.09-7.32,9.21-16.36,9.21s-16.36-4.12-16.36-9.21v-4.62Z"/><path class="cls-5" d="M590.58,328.32c0,5.09,7.32,9.21,16.36,9.21s16.36-4.12,16.36-9.21-7.32-9.21-16.36-9.21S590.58,323.24,590.58,328.32Z"/><path class="cls-19" d="M618.42,325.91h0a4.25,4.25,0,0,0-1.12-2.73,77.92,77.92,0,0,1-1.85-13c-1-12.09,0-28,0-28h0c0-.05,0-.1,0-.15,0-2.64-3.81-4.79-8.51-4.79s-8.51,2.15-8.51,4.79c0,.05,0,.1,0,.15h0s1,15.95,0,28a77.92,77.92,0,0,1-1.85,13,4.25,4.25,0,0,0-1.12,2.73h0c0,3.57,5.14,6.46,11.48,6.46s11.48-2.89,11.48-6.46Z"/><path class="cls-13" d="M599.62,321.4c2.27-5.89,2.27-11.61,2.48-17.86.28-8.36.47-16.93.23-25.34-2.54.83-3.9,2-3.9,3.76,0,.05,0,.1,0,.15h0s1,15.95,0,28a77.92,77.92,0,0,1-1.85,13,4.25,4.25,0,0,0-1.12,2.73h0a4.06,4.06,0,0,0,.65,2.07A61.73,61.73,0,0,0,599.62,321.4Z"/><path class="cls-5" d="M616.25,280.58c-1.82-1.88-5.32-3.17-9.4-3.17s-7.59,1.29-9.41,3.17h-1.35v2.88c0,3.34,4.82,6.05,10.76,6.05s10.75-2.71,10.75-6.05v-2.88Z"/><path class="cls-1" d="M596.09,280.76c0,3.34,4.82,6.05,10.76,6.05s10.75-2.71,10.75-6.05-4.81-6.05-10.75-6.05S596.09,277.41,596.09,280.76Z"/><path class="cls-13" d="M613.49,264.21A93.72,93.72,0,0,1,607,249.39a95.86,95.86,0,0,1-6.56,14.82c-3.59,6.19-4.34,11.87-.39,15.59a7.66,7.66,0,0,0,.66.53h0a4.27,4.27,0,0,0,.6.41,10.6,10.6,0,0,0,5.65,1.46,10.79,10.79,0,0,0,5.55-1.39,6.32,6.32,0,0,0,1.39-1C617.83,276.08,617.08,270.4,613.49,264.21Z"/><path class="cls-19" d="M613.49,264.21A77.19,77.19,0,0,1,609,254.9c.69,4.58,1.73,9.11,1.61,13.7-.08,3.15-1.15,6.65-4,8.32-3.44,2-7.13.45-9.17-2.32a8.15,8.15,0,0,0,2.57,5.2,7.66,7.66,0,0,0,.66.53h0a4.27,4.27,0,0,0,.6.41,10.6,10.6,0,0,0,5.65,1.46,10.79,10.79,0,0,0,5.55-1.39,6.32,6.32,0,0,0,1.39-1C617.83,276.08,617.08,270.4,613.49,264.21Z"/><path class="cls-5" d="M611.1,249.93a4.28,4.28,0,1,1-4.28-4.28A4.27,4.27,0,0,1,611.1,249.93Z"/><path class="cls-1" d="M607.57,247.09a2.61,2.61,0,1,1-3.25,0A2.33,2.33,0,0,1,607.57,247.09Z"/><path class="cls-20" d="M606.11,247.43a1.32,1.32,0,1,1-1.64,0A1.18,1.18,0,0,1,606.11,247.43Z"/><path class="cls-19" d="M649.41,343.25v4.62c0,5.09-7.33,9.21-16.36,9.21s-16.36-4.12-16.36-9.21v-4.62Z"/><path class="cls-5" d="M616.69,343.25c0,5.09,7.32,9.21,16.36,9.21s16.36-4.12,16.36-9.21S642.08,334,633.05,334,616.69,338.16,616.69,343.25Z"/><path class="cls-19" d="M644.37,340.65h0a4.29,4.29,0,0,0-1.12-2.74,77.55,77.55,0,0,1-1.85-13c-1-12.1,0-45.13,0-45.13h0s0-.1,0-.15c0-2.65-3.81-4.79-8.51-4.79s-8.51,2.14-8.51,4.79c0,.05,0,.1,0,.15h0s1,33,0,45.13a77.55,77.55,0,0,1-1.85,13,4.29,4.29,0,0,0-1.12,2.74h0c0,3.57,5.14,6.46,11.48,6.46s11.48-2.89,11.48-6.46Z"/><path class="cls-13" d="M625.93,334.69c1.44-8.09,1.38-16.63,1.62-26.57.3-12,.17-22.69.17-32.92-3.24.68-3.34,2.23-3.34,4.29,0,.05,0,.1,0,.15h0s1,33,0,45.12a77.55,77.55,0,0,1-1.85,13,4.29,4.29,0,0,0-1.12,2.74h0a4.26,4.26,0,0,0,1,2.63C623.05,340.68,625.05,339.65,625.93,334.69Z"/><path class="cls-5" d="M643.44,278.16c-2-2.06-5.83-3.48-10.3-3.48s-8.3,1.42-10.29,3.48h-1.48v3.15c0,3.66,5.27,6.62,11.77,6.62s11.77-3,11.77-6.62v-3.15Z"/><path class="cls-1" d="M621.37,278.35c0,3.66,5.27,6.62,11.77,6.62s11.77-3,11.77-6.62-5.27-6.62-11.77-6.62S621.37,274.69,621.37,278.35Z"/><path class="cls-19" d="M641.45,265.79c2.62-4,4.62-6,4.62-8.59L635,254.43l0-.92-1.84.46-1.84-.46,0,.92-11.12,2.77c0,2.56,2,4.57,4.62,8.59C626.45,268.28,626,276,626,276c0,2.21,3.18,4,7.1,4s7.11-1.79,7.11-4h0S639.84,268.28,641.45,265.79Z"/><path class="cls-13" d="M627.2,263.34c-1.29-2.53-2.72-4.53-3.36-7l-3.63.9c0,2.56,2,4.57,4.62,8.59C626.45,268.28,626,276,626,276c0,1.44,1.36,2.69,3.39,3.39C630.06,274.25,629.36,267.57,627.2,263.34Z"/><path class="cls-1" d="M620.21,257.2c0,4,5.79,7.28,12.93,7.28s12.93-3.26,12.93-7.28-5.79-7.27-12.93-7.27S620.21,253.18,620.21,257.2Z"/><path class="cls-13" d="M624.79,255.23c0,2.59,3.74,4.7,8.35,4.7s8.35-2.11,8.35-4.7-3.74-4.7-8.35-4.7S624.79,252.63,624.79,255.23Z"/><polygon class="cls-19" points="640.82 253.86 637.18 256.04 628.91 246.99 628.91 239.52 640.82 246.39 640.82 253.86"/><polygon class="cls-19" points="636.84 253.72 632.89 251.44 632.89 237.13 634.87 235.91 636.84 239.41 636.84 253.72"/><path class="cls-19" d="M639.22,255.8c0-3.2-2-6.89-4.36-8.28s-4.33.08-4.35,3.25Z"/><polygon class="cls-19" points="639.22 255.8 635.59 257.98 634.04 254.02 637.93 252.2 639.22 255.8"/><path class="cls-1" d="M637.18,248.57l-4-2.3v-4.68l-2-3.5-2,1.21V244l-4-2.3v7.48l2.2,1.27a5,5,0,0,0-.61,2.51l8.72,5a10.18,10.18,0,0,0-.61-3.21l2.2,1.27Z"/><path class="cls-13" d="M637.18,248.57l-4-2.3v-4.68l-2-3.5-2,1.21V244l-4-2.3v7.48l2.2,1.27a5,5,0,0,0-.61,2.51l8.72,5a10.18,10.18,0,0,0-.61-3.21l2.2,1.27Z"/><polygon class="cls-1" points="631.23 238.09 634.87 235.91 636.84 239.41 633.21 241.59 631.23 238.09"/><polygon class="cls-1" points="628.91 239.52 625.28 241.69 629.25 243.99 629.25 239.71 628.91 239.52"/><polygon class="cls-1" points="636.84 244.09 633.21 246.27 637.18 248.57 640.82 246.39 636.84 244.09"/><path class="cls-19" d="M675.61,357.49v4.62c0,5.09-7.33,9.21-16.36,9.21s-16.36-4.12-16.36-9.21v-4.62Z"/><path class="cls-5" d="M642.89,357.49c0,5.08,7.32,9.21,16.36,9.21s16.36-4.13,16.36-9.21-7.33-9.21-16.36-9.21S642.89,352.4,642.89,357.49Z"/><path class="cls-19" d="M670.57,354.89h0a4.25,4.25,0,0,0-1.12-2.74,77.92,77.92,0,0,1-1.85-13c-1-12.1,0-45.13,0-45.13h0c0-.05,0-.1,0-.16,0-2.64-3.81-4.78-8.51-4.78s-8.51,2.14-8.51,4.78c0,.06,0,.11,0,.16h0s1,33,0,45.13a77.92,77.92,0,0,1-1.85,13,4.25,4.25,0,0,0-1.12,2.74h0c0,3.57,5.14,6.46,11.48,6.46s11.48-2.89,11.48-6.46Z"/><path class="cls-13" d="M652.13,348.93c1.44-8.1,1.38-16.64,1.62-26.57.3-12,.17-22.69.17-32.92-3.24.68-3.34,2.23-3.34,4.28,0,.06,0,.11,0,.16h0s1,33,0,45.13a77.74,77.74,0,0,1-1.85,13,4.25,4.25,0,0,0-1.12,2.74h0a4.24,4.24,0,0,0,1,2.63C649.25,354.92,651.26,353.89,652.13,348.93Z"/><path class="cls-5" d="M669.64,292.4c-2-2.06-5.83-3.48-10.3-3.48s-8.3,1.42-10.29,3.48h-1.48v3.15c0,3.65,5.27,6.62,11.77,6.62s11.77-3,11.77-6.62V292.4Z"/><path class="cls-1" d="M647.57,292.59c0,3.66,5.27,6.62,11.77,6.62s11.77-3,11.77-6.62S665.84,286,659.34,286,647.57,288.93,647.57,292.59Z"/><path class="cls-1" d="M667.65,270.34a8.76,8.76,0,0,0-3.54.81,38.56,38.56,0,0,0-2-3.95,12.1,12.1,0,0,0-2.73-3,12,12,0,0,0-2.72,3,39.54,39.54,0,0,0-2,3.95,8.7,8.7,0,0,0-3.54-.81,9.93,9.93,0,0,0-3.2.35,15.75,15.75,0,0,1,2.71,3.48,29,29,0,0,1,2.16,7.76c-.07.2,4.9-3.05,6.28-3.95,1.55.91,7.07,4.15,7,3.95a25.6,25.6,0,0,1,2-7.42,20.58,20.58,0,0,1,2.89-3.82A10,10,0,0,0,667.65,270.34Z"/><path class="cls-5" d="M652.66,274.71a20,20,0,0,0-1.63-2.24,6.17,6.17,0,0,0-2-1.46s3.1-.37,4.42.72S652.66,274.71,652.66,274.71Z"/><path class="cls-5" d="M666.1,274.71a20,20,0,0,1,1.63-2.24,6.17,6.17,0,0,1,2-1.46s-3.1-.37-4.42.72S666.1,274.71,666.1,274.71Z"/><path class="cls-13" d="M668,276.11a8.25,8.25,0,1,1-8.25-8.25A8.25,8.25,0,0,1,668,276.11Z"/><path class="cls-1" d="M656.66,276a4.35,4.35,0,0,1,5.35,0c2.92,2.05-3.4,3.42-3.4,3.42Z"/><path class="cls-19" d="M667.65,279.42a29.8,29.8,0,0,1,3.2-8.73,36.84,36.84,0,0,0-3.8,4,23.82,23.82,0,0,0-2.57,4.29,6.83,6.83,0,0,0-2.47-3c-1.55-1-2.67,1.17-2.67,1.17s-1.24-2-2.68-1.13A6.93,6.93,0,0,0,654.2,279s-1.24-2.25-2.57-4.29a19.82,19.82,0,0,0-3.8-4,29.47,29.47,0,0,1,3.2,8.73,64.91,64.91,0,0,1,.6,11.73c0,2.39,3.45,4.34,7.71,4.34s7.71-1.95,7.71-4.34h0A64.86,64.86,0,0,1,667.65,279.42Z"/><path class="cls-13" d="M654.11,278.81c-.3-.54-1.36-2.4-2.48-4.13a19.82,19.82,0,0,0-3.8-4,29.47,29.47,0,0,1,3.2,8.73,64.91,64.91,0,0,1,.6,11.73c0,1.25,1,2.37,2.48,3.17Z"/><path class="cls-5" d="M663.37,266.42a4.28,4.28,0,1,1-4.28-4.28A4.28,4.28,0,0,1,663.37,266.42Z"/><path class="cls-1" d="M659.84,263.58a2.61,2.61,0,1,1-3.25,0A2.34,2.34,0,0,1,659.84,263.58Z"/><path class="cls-20" d="M658.37,263.92a1.31,1.31,0,0,1-2,1.59,1.18,1.18,0,0,1,.37-1.6A1.17,1.17,0,0,1,658.37,263.92Z"/><path class="cls-1" d="M651,273.85l.6-.64s.91,1.21,1.5,2.23,1.6,2.56,1.6,2.56l-.53,1s-.84-1.51-1.55-2.67S651,273.85,651,273.85Z"/><path class="cls-1" d="M667.69,273.85l-.15-1.16s-1.35,1.73-1.95,2.75S664,278,664,278l.53,1s.84-1.51,1.56-2.67S667.69,273.85,667.69,273.85Z"/><path class="cls-19" d="M701.81,373.26v4.62c0,5.09-7.32,9.21-16.36,9.21s-16.36-4.12-16.36-9.21v-4.62Z"/><path class="cls-5" d="M669.09,373.26c0,5.09,7.33,9.21,16.36,9.21s16.36-4.12,16.36-9.21-7.32-9.21-16.36-9.21S669.09,368.18,669.09,373.26Z"/><path class="cls-19" d="M696.93,370.85h0a4.25,4.25,0,0,0-1.12-2.73,77.92,77.92,0,0,1-1.85-13c-1-12.09,0-28,0-28h0c0-.05,0-.1,0-.15,0-2.65-3.81-4.79-8.51-4.79s-8.51,2.14-8.51,4.79c0,.05,0,.1,0,.15h0s1,15.95,0,28a77.92,77.92,0,0,1-1.85,13,4.25,4.25,0,0,0-1.12,2.73h0c0,3.57,5.14,6.46,11.48,6.46s11.48-2.89,11.48-6.46Z"/><path class="cls-13" d="M678.13,366.34c2.27-5.89,2.27-11.61,2.48-17.86.28-8.36.47-16.93.23-25.34-2.54.83-3.9,2-3.9,3.76,0,.05,0,.1,0,.15h0s1,15.95,0,28a77.92,77.92,0,0,1-1.85,13,4.25,4.25,0,0,0-1.12,2.73h0a4,4,0,0,0,.66,2.07A63.52,63.52,0,0,0,678.13,366.34Z"/><path class="cls-5" d="M694,325c-1.67-1.72-4.87-2.9-8.59-2.9s-6.93,1.18-8.59,2.9h-1.23v2.63c0,3.05,4.4,5.52,9.82,5.52s9.82-2.47,9.82-5.52V325Z"/><path class="cls-1" d="M675.54,325.17c0,3.05,4.4,5.53,9.82,5.53s9.82-2.48,9.82-5.53-4.4-5.53-9.82-5.53S675.54,322.12,675.54,325.17Z"/><path class="cls-13" d="M692,309.15a93.72,93.72,0,0,1-6.52-14.82,95.86,95.86,0,0,1-6.56,14.82c-3.59,6.19-4.34,11.87-.38,15.59a7.57,7.57,0,0,0,.65.53h0a7.11,7.11,0,0,0,.6.41,10.63,10.63,0,0,0,5.65,1.46,10.79,10.79,0,0,0,5.55-1.39,6.32,6.32,0,0,0,1.39-1C696.34,321,695.59,315.34,692,309.15Z"/><path class="cls-19" d="M692,309.15a77.19,77.19,0,0,1-4.45-9.31c.69,4.58,1.73,9.11,1.61,13.7-.08,3.15-1.15,6.65-4,8.31-3.44,2-7.13.47-9.17-2.31a8.18,8.18,0,0,0,2.58,5.2,7.57,7.57,0,0,0,.65.53h0a7.11,7.11,0,0,0,.6.41,10.63,10.63,0,0,0,5.65,1.46,10.79,10.79,0,0,0,5.55-1.39,6.32,6.32,0,0,0,1.39-1C696.34,321,695.59,315.34,692,309.15Z"/><path class="cls-5" d="M689.61,294.87a4.28,4.28,0,1,1-4.27-4.28A4.27,4.27,0,0,1,689.61,294.87Z"/><path class="cls-1" d="M686.08,292a2.6,2.6,0,1,1-3.25,0A2.33,2.33,0,0,1,686.08,292Z"/><path class="cls-20" d="M684.62,292.37a1.31,1.31,0,1,1-1.64,0A1.17,1.17,0,0,1,684.62,292.37Z"/><path class="cls-19" d="M727.61,388.72v4.62c0,5.09-7.33,9.21-16.36,9.21s-16.36-4.12-16.36-9.21v-4.62Z"/><path class="cls-5" d="M694.89,388.72c0,5.09,7.32,9.21,16.36,9.21s16.36-4.12,16.36-9.21-7.33-9.21-16.36-9.21S694.89,383.64,694.89,388.72Z"/><path class="cls-1" d="M698.64,386.66c0,3.91,5.65,7.09,12.61,7.09s12.6-3.18,12.6-7.09-5.64-7.1-12.6-7.1S698.64,382.74,698.64,386.66Z"/><path class="cls-19" d="M721.8,338.47a33.19,33.19,0,0,0-.72-6.85l3.31-4.23L715,322l0,0c-3.5-2-8-2-12.4-.86a47.32,47.32,0,0,1-6.23,1.18c-.06,2.09.11,4.45,1.28,5.37-3.28,2.81-6.71,7.11-6.76,10.89,0,.86-4.49,7.74-6.62,10.06-2.4,2.61-.42,8,1.11,8.5l9.6,5.46,6.6-12.91-2.66-1.28a9.5,9.5,0,0,0,1.53-3.74c3.43,4.19-1,11-3.74,16a30.59,30.59,0,0,0-3.79,11.57c-.75,8.72,1.84,11.9,6.44,15.48l9.6,5.46,5.77-10-2.92-2.66,1.48-.85C713.61,368.41,721.92,353.51,721.8,338.47Z"/><path class="cls-13" d="M698.65,355.36a10,10,0,0,1,1.54-6.26l-1.33-.64a9.5,9.5,0,0,0,1.53-3.74,5.32,5.32,0,0,1,1.11,2.37,68,68,0,0,1,6.19-6.85A178.78,178.78,0,0,1,723,326.58L715,322l0,0c-3.5-2-8-2-12.4-.86a47.32,47.32,0,0,1-6.23,1.18c-.06,2.09.11,4.45,1.28,5.37-3.28,2.81-6.71,7.11-6.76,10.89,0,.86-4.49,7.74-6.62,10.06-2.4,2.61-.42,8,1.11,8.5l9.6,5.46Z"/><path class="cls-13" d="M713.23,379.76a35.13,35.13,0,0,1,1.65-9.64c-2.48-1.15-15.17-6.91-18.4-9a30.11,30.11,0,0,0-3.62,11.22c-.75,8.72,1.84,11.9,6.44,15.48l9.6,5.46,5.77-10-2.92-2.66Z"/><path class="cls-1" d="M724.39,327.39,715,322l0,0c-3.5-2-8-2-12.4-.86a47.32,47.32,0,0,1-6.23,1.18l9.6,5.46,15.67,6.88a29.36,29.36,0,0,0-.5-3.09Z"/><path class="cls-5" d="M706.25,366.21a30.42,30.42,0,0,0-3.79,11.57c-.75,8.73,1.84,11.9,6.44,15.48l13.92-8c.38-11.35,8.69-26.25,8.57-41.29-.13-17.16-9.74-19.73-19.26-17.28a47,47,0,0,1-6.22,1.18c-.07,2.09.11,4.45,1.28,5.37-3.28,2.81-6.71,7.11-6.76,10.89,0,.86-4.5,7.74-6.63,10.06-2.39,2.61-.42,8,1.12,8.5,1.15.35,2.85-1.44,4.12-2.78,2-1.44,3.87-1.45,6.61-3.21a9.68,9.68,0,0,0,4.34-6.48C713.42,354.37,709,361.15,706.25,366.21Z"/><path class="cls-19" d="M754.31,402.85v4.62c0,5.09-7.33,9.21-16.36,9.21s-16.36-4.12-16.36-9.21v-4.62Z"/><path class="cls-5" d="M721.59,402.85c0,5.09,7.32,9.21,16.36,9.21s16.36-4.12,16.36-9.21-7.33-9.2-16.36-9.2S721.59,397.77,721.59,402.85Z"/><path class="cls-5" d="M726.57,400.1c0,3.57,5.13,6.46,11.47,6.46s11.48-2.89,11.48-6.46-5.14-6.45-11.48-6.45S726.57,396.54,726.57,400.1Z"/><path class="cls-5" d="M729.54,356.15c0,2.65,3.81,4.79,8.5,4.79s8.51-2.14,8.51-4.79-3.81-4.79-8.51-4.79S729.54,353.51,729.54,356.15Z"/><path class="cls-5" d="M729.54,356.31s1,15.95,0,28.05c-1.18,14.43-3,15.74-3,15.74l14.82,1.08-1.79-45.91Z"/><path class="cls-5" d="M746.55,384.36c-1-12.1,0-28.05,0-28.05l-10.06-1-1.79,45.91,14.82-1.08S747.72,398.79,746.55,384.36Z"/><path class="cls-19" d="M748.41,397.37a77.54,77.54,0,0,1-1.86-13c-1-12.1,0-28.05,0-28.05h0a1.1,1.1,0,0,0,0-.16c0-2.64-3.81-4.79-8.51-4.79s-8.5,2.15-8.5,4.79c0,.05,0,.1,0,.16h0s1,15.95,0,28.05a77.54,77.54,0,0,1-1.86,13,4.23,4.23,0,0,0-1.11,2.73c0,3.57,5.13,6.46,11.47,6.46s11.48-2.89,11.48-6.46A4.29,4.29,0,0,0,748.41,397.37Z"/><path class="cls-13" d="M727.91,400.67c3.7-5.88,4.47-12.09,4.86-19,.56-9.77-.33-20.05,1.34-29.77-2.71.8-4.57,2.38-4.57,4.22,0,.05,0,.1,0,.16h0s1,15.95,0,28.05a77.54,77.54,0,0,1-1.86,13,4.23,4.23,0,0,0-1.11,2.73,4,4,0,0,0,.54,1.87Z"/><path class="cls-13" d="M725.67,355c0,3.82,5.49,6.91,12.28,6.91s12.28-3.09,12.28-6.91-5.5-6.92-12.28-6.92S725.67,351.18,725.67,355Z"/><rect class="cls-13" x="725.67" y="341.63" width="24.56" height="13.37"/><path class="cls-1" d="M725.67,341.63c0,3.81,5.49,6.91,12.28,6.91s12.28-3.1,12.28-6.91-5.5-6.92-12.28-6.92S725.67,337.81,725.67,341.63Z"/><path class="cls-19" d="M745.24,344.64a3.83,3.83,0,0,0,2-3c0-2.7-4.12-4.88-9.21-4.88s-9.21,2.18-9.21,4.88a3.83,3.83,0,0,0,2,3,14.8,14.8,0,0,1,14.4,0Z"/><path class="cls-5" d="M745.24,344.64a14.8,14.8,0,0,0-14.4,0,14.8,14.8,0,0,0,14.4,0Z"/><path class="cls-19" d="M724.92,420.63v3.75c0,4.12-5.94,7.47-13.27,7.47s-13.26-3.35-13.26-7.47v-3.75Z"/><path class="cls-5" d="M698.39,420.63c0,4.13,5.94,7.47,13.26,7.47s13.27-3.34,13.27-7.47-5.94-7.46-13.27-7.46S698.39,416.51,698.39,420.63Z"/><path class="cls-19" d="M721,418.41h0a3.43,3.43,0,0,0-.91-2.22,64,64,0,0,1-1.5-10.55c-.8-9.81,0-15,0-15l0,0a1.85,1.85,0,0,0,0-.23c0-2.14-3.09-3.88-6.9-3.88s-6.9,1.74-6.9,3.88a1.85,1.85,0,0,0,0,.23l0,0s.8,5.16,0,15a62.84,62.84,0,0,1-1.5,10.55,3.43,3.43,0,0,0-.91,2.22h0c0,2.89,4.17,5.23,9.31,5.23s9.31-2.34,9.31-5.23Z"/><path class="cls-5" d="M720.24,386.93c-1.66-1.72-4.86-2.9-8.59-2.9s-6.92,1.18-8.59,2.9h-1.23v2.63c0,3.05,4.4,5.52,9.82,5.52s9.82-2.47,9.82-5.52v-2.63Z"/><path class="cls-19" d="M720.24,386.93c-1.66-1.72-4.86-2.9-8.59-2.9s-6.92,1.18-8.59,2.9h-1.23v2.63c0,3.05,4.4,5.52,9.82,5.52s9.82-2.47,9.82-5.52v-2.63Z"/><path class="cls-1" d="M701.83,387.09c0,3.05,4.4,5.53,9.82,5.53s9.82-2.48,9.82-5.53-4.39-5.53-9.82-5.53S701.83,384,701.83,387.09Z"/><circle class="cls-19" cx="711.73" cy="381" r="8.19"/><path class="cls-5" d="M713.16,375.57c1.33,1.68.7,4.39-1.41,6.06s-4.89,1.65-6.22,0-.7-4.39,1.4-6.06S711.83,373.89,713.16,375.57Z"/><path class="cls-1" d="M710.36,376.22a2.52,2.52,0,1,1-3.14,0A2.24,2.24,0,0,1,710.36,376.22Z"/><path class="cls-19" d="M541.41,313.77v3.75c0,4.12-5.94,7.47-13.26,7.47s-13.27-3.35-13.27-7.47v-3.75Z"/><path class="cls-5" d="M514.88,313.77c0,4.13,5.94,7.47,13.27,7.47s13.26-3.34,13.26-7.47-5.94-7.46-13.26-7.46S514.88,309.65,514.88,313.77Z"/><path class="cls-19" d="M537.53,311.55h0a3.47,3.47,0,0,0-.9-2.22,62.47,62.47,0,0,1-1.51-10.55c-.79-9.81,0-15,0-15l0,0a2.07,2.07,0,0,0,0-.22c0-2.15-3.08-3.89-6.89-3.89s-6.9,1.74-6.9,3.89a2.07,2.07,0,0,0,0,.22l0,0s.79,5.16,0,15a62.47,62.47,0,0,1-1.51,10.55,3.47,3.47,0,0,0-.9,2.22h0c0,2.89,4.17,5.23,9.31,5.23s9.3-2.34,9.3-5.23Z"/><path class="cls-13" d="M525.18,280.09c-2.27.63-3.85,1.94-3.85,3.47a2.07,2.07,0,0,0,0,.22l0,0s.79,5.16,0,15a62.47,62.47,0,0,1-1.51,10.55,3.47,3.47,0,0,0-.9,2.22h0a3.35,3.35,0,0,0,.63,1.86C526,303.59,523.94,291.82,525.18,280.09Z"/><path class="cls-5" d="M536.74,280.07c-1.67-1.72-4.87-2.9-8.59-2.9s-6.93,1.18-8.59,2.9h-1.23v2.63c0,3.05,4.4,5.52,9.82,5.52s9.82-2.47,9.82-5.52v-2.63Z"/><path class="cls-19" d="M536.74,280.07c-1.67-1.72-4.87-2.9-8.59-2.9s-6.93,1.18-8.59,2.9h-1.23v2.63c0,3.05,4.4,5.52,9.82,5.52s9.82-2.47,9.82-5.52v-2.63Z"/><path class="cls-1" d="M518.33,280.23c0,3,4.4,5.53,9.82,5.53s9.82-2.48,9.82-5.53-4.4-5.52-9.82-5.52S518.33,277.18,518.33,280.23Z"/><path class="cls-19" d="M536.41,274.14a8.19,8.19,0,1,1-8.18-8.19A8.19,8.19,0,0,1,536.41,274.14Z"/><path class="cls-5" d="M529.65,268.71c1.33,1.68.7,4.39-1.4,6.06s-4.89,1.65-6.22,0-.71-4.39,1.4-6.06S528.32,267,529.65,268.71Z"/><path class="cls-1" d="M526.86,269.36a2.52,2.52,0,1,1-3.15,0A2.25,2.25,0,0,1,526.86,269.36Z"/><path class="cls-7" d="M594.92,496.34v3.75c0,4.12-5.94,7.46-13.27,7.46s-13.27-3.34-13.27-7.46v-3.75Z"/><path class="cls-14" d="M568.38,496.34c0,4.12,5.94,7.47,13.27,7.47s13.27-3.35,13.27-7.47-5.94-7.47-13.27-7.47S568.38,492.22,568.38,496.34Z"/><path class="cls-15" d="M591,494.11h0a3.52,3.52,0,0,0-.9-2.22,62.48,62.48,0,0,1-1.5-10.55c-.8-9.81,0-15,0-15l0,0c0-.07,0-.14,0-.22,0-2.14-3.09-3.88-6.9-3.88s-6.9,1.74-6.9,3.88a1.43,1.43,0,0,0,0,.22l0,0s.8,5.16,0,15a63.59,63.59,0,0,1-1.5,10.55,3.47,3.47,0,0,0-.91,2.22h0c0,2.9,4.17,5.24,9.31,5.24s9.3-2.34,9.3-5.24Z"/><path class="cls-21" d="M578.69,462.65c-2.28.64-3.86,2-3.86,3.47a1.43,1.43,0,0,0,0,.22l0,0s.8,5.16,0,15a63.59,63.59,0,0,1-1.5,10.55,3.47,3.47,0,0,0-.91,2.22h0a3.29,3.29,0,0,0,.64,1.87C579.47,486.16,577.44,474.39,578.69,462.65Z"/><path class="cls-7" d="M590.24,462.64c-1.66-1.72-4.87-2.9-8.59-2.9s-6.93,1.18-8.59,2.9h-1.23v2.62c0,3.06,4.4,5.53,9.82,5.53s9.82-2.47,9.82-5.53v-2.62Z"/><path class="cls-14" d="M571.83,462.8c0,3.05,4.4,5.52,9.82,5.52s9.82-2.47,9.82-5.52-4.4-5.53-9.82-5.53S571.83,459.74,571.83,462.8Z"/><path class="cls-15" d="M589.92,456.71a8.19,8.19,0,1,1-8.19-8.19A8.19,8.19,0,0,1,589.92,456.71Z"/><path class="cls-21" d="M583.15,451.28c1.33,1.68.71,4.39-1.4,6.06s-4.89,1.65-6.22,0-.7-4.4,1.4-6.06S581.82,449.59,583.15,451.28Z"/><path class="cls-14" d="M580.36,451.93a2.52,2.52,0,1,1-3.15,0A2.25,2.25,0,0,1,580.36,451.93Z"/><path class="cls-7" d="M566,480.54v3.75c0,4.13-5.94,7.47-13.27,7.47s-13.27-3.34-13.27-7.47v-3.75Z"/><path class="cls-14" d="M539.43,480.54c0,4.13,5.94,7.47,13.27,7.47S566,484.67,566,480.54s-5.94-7.46-13.27-7.46S539.43,476.42,539.43,480.54Z"/><path class="cls-15" d="M562.08,478.32h0a3.47,3.47,0,0,0-.9-2.22,62.84,62.84,0,0,1-1.5-10.55c-.8-9.81,0-15,0-15l0,0c0-.08,0-.15,0-.22,0-2.15-3.09-3.88-6.9-3.88s-6.9,1.73-6.9,3.88a2.07,2.07,0,0,0,0,.22l0,0s.8,5.16,0,15a64,64,0,0,1-1.5,10.55,3.43,3.43,0,0,0-.91,2.22h0c0,2.89,4.17,5.23,9.31,5.23s9.3-2.34,9.3-5.23Z"/><path class="cls-21" d="M549.74,446.86c-2.28.63-3.86,1.94-3.86,3.47a2.07,2.07,0,0,0,0,.22l0,0s.8,5.16,0,15a64,64,0,0,1-1.5,10.55,3.43,3.43,0,0,0-.91,2.22h0a3.26,3.26,0,0,0,.64,1.86C550.53,470.36,548.49,458.59,549.74,446.86Z"/><path class="cls-7" d="M561.29,446.84c-1.66-1.72-4.86-2.9-8.59-2.9s-6.92,1.18-8.59,2.9h-1.23v2.63c0,3,4.4,5.52,9.82,5.52s9.82-2.47,9.82-5.52v-2.63Z"/><path class="cls-14" d="M542.88,447c0,3.05,4.4,5.53,9.82,5.53s9.82-2.48,9.82-5.53-4.4-5.52-9.82-5.52S542.88,444,542.88,447Z"/><path class="cls-15" d="M561,440.91a8.19,8.19,0,1,1-8.19-8.19A8.19,8.19,0,0,1,561,440.91Z"/><path class="cls-21" d="M554.2,435.48c1.33,1.68.71,4.4-1.4,6.06s-4.89,1.65-6.22,0-.7-4.39,1.4-6.06S552.87,433.8,554.2,435.48Z"/><path class="cls-14" d="M551.41,436.13a2.52,2.52,0,1,1-3.15,0A2.25,2.25,0,0,1,551.41,436.13Z"/><path class="cls-7" d="M594.92,435.51v3.75c0,4.12-5.94,7.46-13.27,7.46s-13.27-3.34-13.27-7.46v-3.75Z"/><path class="cls-14" d="M568.38,435.51c0,4.12,5.94,7.47,13.27,7.47s13.27-3.35,13.27-7.47S589,428,581.65,428,568.38,431.39,568.38,435.51Z"/><path class="cls-15" d="M591,433.28h0a3.49,3.49,0,0,0-.9-2.22,62.48,62.48,0,0,1-1.5-10.55c-.8-9.81,0-15,0-15l0,0c0-.07,0-.14,0-.22,0-2.14-3.09-3.88-6.9-3.88s-6.9,1.74-6.9,3.88a1.43,1.43,0,0,0,0,.22l0,0s.8,5.16,0,15a63.59,63.59,0,0,1-1.5,10.55,3.45,3.45,0,0,0-.91,2.22h0c0,2.89,4.17,5.24,9.31,5.24s9.3-2.35,9.3-5.24Z"/><path class="cls-21" d="M578.69,401.82c-2.28.64-3.86,1.94-3.86,3.47a1.43,1.43,0,0,0,0,.22l0,0s.8,5.16,0,15a63.59,63.59,0,0,1-1.5,10.55,3.45,3.45,0,0,0-.91,2.22h0a3.32,3.32,0,0,0,.64,1.87C579.47,425.33,577.44,413.56,578.69,401.82Z"/><path class="cls-7" d="M590.24,401.81c-1.66-1.72-4.87-2.9-8.59-2.9s-6.93,1.18-8.59,2.9h-1.23v2.62c0,3.05,4.4,5.53,9.82,5.53s9.82-2.48,9.82-5.53v-2.62Z"/><path class="cls-14" d="M571.83,402c0,3,4.4,5.52,9.82,5.52s9.82-2.47,9.82-5.52-4.4-5.53-9.82-5.53S571.83,398.91,571.83,402Z"/><path class="cls-15" d="M589.92,395.88a8.19,8.19,0,1,1-8.19-8.19A8.19,8.19,0,0,1,589.92,395.88Z"/><path class="cls-21" d="M583.15,390.44c1.33,1.69.71,4.4-1.4,6.07s-4.89,1.65-6.22,0-.7-4.4,1.4-6.07S581.82,388.76,583.15,390.44Z"/><path class="cls-14" d="M580.36,391.09a2.52,2.52,0,1,1-3.15,0A2.27,2.27,0,0,1,580.36,391.09Z"/><path class="cls-7" d="M541.66,436.19v3.75c0,4.12-5.94,7.46-13.26,7.46s-13.27-3.34-13.27-7.46v-3.75Z"/><path class="cls-14" d="M515.13,436.19c0,4.13,5.94,7.47,13.27,7.47s13.26-3.34,13.26-7.47-5.94-7.46-13.26-7.46S515.13,432.07,515.13,436.19Z"/><path class="cls-15" d="M537.78,434h0a3.52,3.52,0,0,0-.9-2.22,62.11,62.11,0,0,1-1.51-10.55c-.79-9.8,0-15,0-15l0,0a1.85,1.85,0,0,0,0-.23c0-2.14-3.09-3.88-6.9-3.88s-6.89,1.74-6.89,3.88a1.85,1.85,0,0,0,0,.23l0,0s.79,5.17,0,15a62.11,62.11,0,0,1-1.51,10.55,3.52,3.52,0,0,0-.9,2.22h0c0,2.9,4.16,5.24,9.31,5.24s9.3-2.34,9.3-5.24Z"/><path class="cls-21" d="M525.43,402.51c-2.27.63-3.85,1.94-3.85,3.46a1.85,1.85,0,0,0,0,.23l0,0s.79,5.17,0,15a62.11,62.11,0,0,1-1.51,10.55,3.52,3.52,0,0,0-.9,2.22h0a3.36,3.36,0,0,0,.63,1.87C526.22,426,524.19,414.24,525.43,402.51Z"/><path class="cls-7" d="M537,402.49c-1.67-1.72-4.87-2.9-8.59-2.9s-6.93,1.18-8.59,2.9h-1.23v2.63c0,3.05,4.39,5.52,9.82,5.52s9.82-2.47,9.82-5.52v-2.63Z"/><path class="cls-14" d="M518.58,402.65c0,3.05,4.39,5.52,9.82,5.52s9.82-2.47,9.82-5.52-4.4-5.53-9.82-5.53S518.58,399.6,518.58,402.65Z"/><path class="cls-15" d="M536.66,396.56a8.19,8.19,0,1,1-8.19-8.19A8.19,8.19,0,0,1,536.66,396.56Z"/><path class="cls-21" d="M529.9,391.13c1.33,1.68.7,4.39-1.4,6.06s-4.9,1.65-6.23,0-.7-4.4,1.41-6.06S528.57,389.45,529.9,391.13Z"/><path class="cls-14" d="M527.11,391.78a2.52,2.52,0,1,1-3.15,0A2.26,2.26,0,0,1,527.11,391.78Z"/><path class="cls-7" d="M489,434.91v3.75c0,4.12-5.94,7.47-13.27,7.47s-13.26-3.35-13.26-7.47v-3.75Z"/><path class="cls-14" d="M462.48,434.91c0,4.13,5.94,7.47,13.27,7.47S489,439,489,434.91s-5.94-7.46-13.26-7.46S462.48,430.79,462.48,434.91Z"/><path class="cls-15" d="M485.13,432.68h0a3.47,3.47,0,0,0-.91-2.22,63.59,63.59,0,0,1-1.5-10.55c-.8-9.8,0-15,0-15l0,0a1.85,1.85,0,0,0,0-.23c0-2.14-3.09-3.88-6.9-3.88s-6.9,1.74-6.9,3.88c0,.08,0,.15,0,.23l0,0s.8,5.16,0,15a62.48,62.48,0,0,1-1.5,10.55,3.52,3.52,0,0,0-.9,2.22h0c0,2.9,4.16,5.24,9.3,5.24s9.31-2.34,9.31-5.24Z"/><path class="cls-21" d="M472.78,401.23c-2.28.63-3.86,1.94-3.86,3.46,0,.08,0,.15,0,.23l0,0s.8,5.16,0,15a62.48,62.48,0,0,1-1.5,10.55,3.52,3.52,0,0,0-.9,2.22h0a3.36,3.36,0,0,0,.63,1.87C473.57,424.73,471.54,413,472.78,401.23Z"/><path class="cls-7" d="M484.33,401.21c-1.66-1.72-4.86-2.9-8.58-2.9s-6.93,1.18-8.59,2.9h-1.23v2.63c0,3.05,4.39,5.52,9.82,5.52s9.81-2.47,9.81-5.52v-2.63Z"/><path class="cls-14" d="M465.93,401.37c0,3.05,4.39,5.53,9.82,5.53s9.81-2.48,9.81-5.53-4.39-5.53-9.81-5.53S465.93,398.32,465.93,401.37Z"/><path class="cls-15" d="M484,395.28a8.19,8.19,0,1,1-8.19-8.19A8.19,8.19,0,0,1,484,395.28Z"/><path class="cls-21" d="M477.25,389.85c1.33,1.68.7,4.39-1.4,6.06s-4.9,1.65-6.23,0-.7-4.39,1.41-6.06S475.92,388.17,477.25,389.85Z"/><path class="cls-14" d="M474.45,390.5a2.52,2.52,0,1,1-3.14,0A2.24,2.24,0,0,1,474.45,390.5Z"/><path class="cls-7" d="M462.81,420.66v3.75c0,4.13-5.94,7.47-13.27,7.47s-13.26-3.34-13.26-7.47v-3.75Z"/><path class="cls-14" d="M436.28,420.66c0,4.13,5.94,7.47,13.26,7.47s13.27-3.34,13.27-7.47-5.94-7.46-13.27-7.46S436.28,416.54,436.28,420.66Z"/><path class="cls-15" d="M458.93,418.44h0a3.43,3.43,0,0,0-.91-2.22,64,64,0,0,1-1.5-10.55c-.8-9.81,0-15,0-15l0,0a2.07,2.07,0,0,0,0-.22c0-2.15-3.09-3.89-6.9-3.89s-6.9,1.74-6.9,3.89c0,.07,0,.14,0,.22l0,0s.8,5.16,0,15a64,64,0,0,1-1.5,10.55,3.54,3.54,0,0,0-.91,2.22h0c0,2.89,4.17,5.23,9.31,5.23s9.31-2.34,9.31-5.23Z"/><path class="cls-21" d="M446.58,387c-2.28.63-3.86,1.94-3.86,3.47,0,.07,0,.14,0,.22l0,0s.8,5.16,0,15a64,64,0,0,1-1.5,10.55,3.54,3.54,0,0,0-.91,2.22h0a3.34,3.34,0,0,0,.64,1.86C447.37,410.48,445.33,398.72,446.58,387Z"/><path class="cls-7" d="M458.13,387c-1.66-1.72-4.86-2.9-8.59-2.9s-6.92,1.18-8.59,2.9h-1.22v2.63c0,3.05,4.39,5.53,9.81,5.53s9.82-2.48,9.82-5.53V387Z"/><path class="cls-14" d="M439.73,387.12c0,3.05,4.39,5.53,9.81,5.53s9.82-2.48,9.82-5.53-4.39-5.52-9.82-5.52S439.73,384.07,439.73,387.12Z"/><path class="cls-15" d="M457.81,381a8.19,8.19,0,1,1-8.19-8.19A8.19,8.19,0,0,1,457.81,381Z"/><path class="cls-21" d="M451.05,375.6c1.33,1.68.7,4.4-1.41,6.06s-4.89,1.66-6.22,0-.7-4.39,1.4-6.06S449.72,373.92,451.05,375.6Z"/><path class="cls-14" d="M448.25,376.25a2.52,2.52,0,1,1-3.14,0A2.24,2.24,0,0,1,448.25,376.25Z"/><path class="cls-7" d="M436.61,405.43v3.74c0,4.13-5.94,7.47-13.27,7.47s-13.26-3.34-13.26-7.47v-3.74Z"/><path class="cls-14" d="M410.08,405.43c0,4.12,5.94,7.46,13.26,7.46s13.27-3.34,13.27-7.46S430.67,398,423.34,398,410.08,401.3,410.08,405.43Z"/><path class="cls-15" d="M432.73,403.2h0a3.45,3.45,0,0,0-.91-2.22,63.78,63.78,0,0,1-1.5-10.55c-.8-9.81,0-15,0-15l0,0a2.07,2.07,0,0,0,0-.22c0-2.15-3.09-3.88-6.9-3.88s-6.9,1.73-6.9,3.88a2.07,2.07,0,0,0,0,.22l0,0s.8,5.16,0,15A63.78,63.78,0,0,1,415,401a3.45,3.45,0,0,0-.91,2.22h0c0,2.89,4.17,5.24,9.31,5.24s9.31-2.35,9.31-5.24Z"/><path class="cls-21" d="M420.38,371.74c-2.28.63-3.86,1.94-3.86,3.47a2.07,2.07,0,0,0,0,.22l0,0s.8,5.16,0,15A63.78,63.78,0,0,1,415,401a3.45,3.45,0,0,0-.91,2.22h0a3.26,3.26,0,0,0,.64,1.86C421.17,395.24,419.13,383.48,420.38,371.74Z"/><path class="cls-7" d="M431.93,371.73c-1.66-1.72-4.86-2.91-8.59-2.91s-6.92,1.19-8.59,2.91h-1.23v2.62c0,3,4.4,5.53,9.82,5.53s9.82-2.48,9.82-5.53v-2.62Z"/><ellipse class="cls-14" cx="423.34" cy="371.88" rx="9.82" ry="5.53"/><path class="cls-15" d="M431.61,365.79a8.19,8.19,0,1,1-8.19-8.18A8.19,8.19,0,0,1,431.61,365.79Z"/><path class="cls-21" d="M424.85,360.36c1.33,1.68.7,4.4-1.41,6.06s-4.89,1.66-6.22,0-.7-4.39,1.4-6.06S423.51,358.68,424.85,360.36Z"/><path class="cls-14" d="M422.05,361a2.52,2.52,0,1,1-3.15,0A2.25,2.25,0,0,1,422.05,361Z"/><path class="cls-7" d="M410,390.63v3.75c0,4.12-5.93,7.47-13.26,7.47s-13.27-3.35-13.27-7.47v-3.75Z"/><path class="cls-14" d="M383.42,390.63c0,4.13,5.94,7.47,13.27,7.47S410,394.76,410,390.63s-5.93-7.46-13.26-7.46S383.42,386.51,383.42,390.63Z"/><path class="cls-15" d="M406.07,388.4h0a3.47,3.47,0,0,0-.9-2.21,63.58,63.58,0,0,1-1.51-10.55c-.79-9.81,0-15,0-15l0,0a2.07,2.07,0,0,0,0-.22c0-2.15-3.08-3.89-6.89-3.89s-6.9,1.74-6.9,3.89a2.07,2.07,0,0,0,0,.22l0,0s.8,5.16,0,15a62.47,62.47,0,0,1-1.51,10.55,3.47,3.47,0,0,0-.9,2.21h0c0,2.9,4.17,5.24,9.31,5.24s9.3-2.34,9.3-5.24Z"/><path class="cls-21" d="M393.72,357c-2.27.63-3.85,1.94-3.85,3.47a2.07,2.07,0,0,0,0,.22l0,0s.8,5.16,0,15a62.47,62.47,0,0,1-1.51,10.55,3.47,3.47,0,0,0-.9,2.21h0a3.29,3.29,0,0,0,.64,1.87C394.51,380.45,392.48,368.68,393.72,357Z"/><path class="cls-7" d="M405.28,356.93c-1.67-1.72-4.87-2.9-8.59-2.9s-6.93,1.18-8.59,2.9h-1.23v2.63c0,3.05,4.4,5.52,9.82,5.52s9.82-2.47,9.82-5.52v-2.63Z"/><path class="cls-14" d="M386.87,357.09c0,3.05,4.4,5.53,9.82,5.53s9.82-2.48,9.82-5.53-4.4-5.53-9.82-5.53S386.87,354,386.87,357.09Z"/><path class="cls-15" d="M405,351a8.19,8.19,0,1,1-8.19-8.19A8.19,8.19,0,0,1,405,351Z"/><path class="cls-21" d="M398.19,345.57c1.33,1.68.7,4.39-1.4,6.06s-4.89,1.65-6.22,0-.71-4.39,1.4-6.06S396.86,343.89,398.19,345.57Z"/><path class="cls-14" d="M395.4,346.22a2.52,2.52,0,1,1-3.15,0A2.25,2.25,0,0,1,395.4,346.22Z"/><path class="cls-19" d="M567.47,328.44v3.74c0,4.13-5.94,7.47-13.27,7.47s-13.26-3.34-13.26-7.47v-3.74Z"/><path class="cls-5" d="M540.94,328.44c0,4.12,5.94,7.46,13.27,7.46s13.26-3.34,13.26-7.46S561.53,321,554.21,321,540.94,324.31,540.94,328.44Z"/><path class="cls-19" d="M563.59,326.21h0a3.49,3.49,0,0,0-.9-2.22,62.29,62.29,0,0,1-1.51-10.55c-.8-9.81,0-15,0-15l0,0a1.43,1.43,0,0,0,0-.22c0-2.14-3.09-3.88-6.9-3.88s-6.89,1.74-6.89,3.88c0,.08,0,.15,0,.22l0,0s.79,5.16,0,15A62.29,62.29,0,0,1,545.88,324a3.49,3.49,0,0,0-.9,2.22h0c0,2.89,4.16,5.24,9.3,5.24s9.31-2.35,9.31-5.24Z"/><path class="cls-13" d="M551.24,294.75c-2.27.63-3.85,1.94-3.85,3.47,0,.08,0,.15,0,.22l0,0s.79,5.16,0,15A62.29,62.29,0,0,1,545.88,324a3.49,3.49,0,0,0-.9,2.22h0a3.33,3.33,0,0,0,.63,1.86C552,318.25,550,306.49,551.24,294.75Z"/><path class="cls-5" d="M562.79,294.74c-1.66-1.72-4.86-2.9-8.58-2.9s-6.93,1.18-8.59,2.9h-1.23v2.62c0,3.05,4.39,5.53,9.82,5.53s9.81-2.48,9.81-5.53v-2.62Z"/><path class="cls-19" d="M562.79,294.74c-1.66-1.72-4.86-2.9-8.58-2.9s-6.93,1.18-8.59,2.9h-1.23v2.62c0,3.05,4.39,5.53,9.82,5.53s9.81-2.48,9.81-5.53v-2.62Z"/><path class="cls-1" d="M544.39,294.89c0,3.06,4.39,5.53,9.82,5.53S564,298,564,294.89s-4.39-5.52-9.81-5.52S544.39,291.84,544.39,294.89Z"/><path class="cls-19" d="M562.47,288.8a8.19,8.19,0,1,1-8.19-8.18A8.18,8.18,0,0,1,562.47,288.8Z"/><path class="cls-5" d="M555.71,283.37c1.33,1.68.7,4.4-1.4,6.06s-4.9,1.66-6.23,0-.7-4.4,1.41-6.07S554.38,281.69,555.71,283.37Z"/><path class="cls-1" d="M552.91,284a2.52,2.52,0,1,1-3.14,0A2.24,2.24,0,0,1,552.91,284Z"/><path class="cls-19" d="M567.62,359v3.74c0,4.13-5.94,7.47-13.27,7.47s-13.26-3.34-13.26-7.47V359Z"/><path class="cls-5" d="M541.09,359c0,4.12,5.93,7.46,13.26,7.46s13.27-3.34,13.27-7.46-5.94-7.47-13.27-7.47S541.09,354.87,541.09,359Z"/><path class="cls-19" d="M563.74,356.77h0a3.49,3.49,0,0,0-.91-2.22,62.66,62.66,0,0,1-1.5-10.55c-.8-9.81,0-15,0-15l0,0c0-.07,0-.15,0-.22,0-2.15-3.09-3.88-6.9-3.88s-6.9,1.73-6.9,3.88a1.7,1.7,0,0,0,0,.22l0,0s.8,5.16,0,15a63.78,63.78,0,0,1-1.5,10.55,3.43,3.43,0,0,0-.91,2.22h0c0,2.89,4.17,5.24,9.31,5.24s9.31-2.35,9.31-5.24Z"/><path class="cls-13" d="M551.39,325.31c-2.28.63-3.86,1.94-3.86,3.47a1.7,1.7,0,0,0,0,.22l0,0s.8,5.16,0,15a63.78,63.78,0,0,1-1.5,10.55,3.43,3.43,0,0,0-.91,2.22h0a3.26,3.26,0,0,0,.64,1.86C552.17,348.81,550.14,337.05,551.39,325.31Z"/><path class="cls-5" d="M562.94,325.3c-1.66-1.72-4.87-2.9-8.59-2.9s-6.93,1.18-8.59,2.9h-1.23v2.62c0,3.05,4.4,5.53,9.82,5.53s9.82-2.48,9.82-5.53V325.3Z"/><path class="cls-19" d="M562.94,325.3c-1.66-1.72-4.87-2.9-8.59-2.9s-6.93,1.18-8.59,2.9h-1.23v2.62c0,3.05,4.4,5.53,9.82,5.53s9.82-2.48,9.82-5.53V325.3Z"/><path class="cls-1" d="M544.53,325.45c0,3.06,4.4,5.53,9.82,5.53s9.82-2.47,9.82-5.53-4.4-5.52-9.82-5.52S544.53,322.4,544.53,325.45Z"/><path class="cls-19" d="M562.62,319.36a8.19,8.19,0,1,1-8.19-8.18A8.19,8.19,0,0,1,562.62,319.36Z"/><path class="cls-5" d="M555.85,313.93c1.33,1.68.71,4.4-1.4,6.06s-4.89,1.66-6.22,0-.7-4.39,1.4-6.06S554.52,312.25,555.85,313.93Z"/><path class="cls-1" d="M553.06,314.58a2.52,2.52,0,1,1-3.15,0A2.25,2.25,0,0,1,553.06,314.58Z"/><path class="cls-19" d="M594,374.46v3.74c0,4.13-5.94,7.47-13.26,7.47s-13.27-3.34-13.27-7.47v-3.74Z"/><path class="cls-5" d="M567.47,374.46c0,4.12,5.94,7.46,13.27,7.46S594,378.58,594,374.46,588.06,367,580.74,367,567.47,370.33,567.47,374.46Z"/><path class="cls-19" d="M590.12,372.23h0a3.49,3.49,0,0,0-.9-2.22,62.29,62.29,0,0,1-1.51-10.55c-.79-9.81,0-15,0-15l0,0a2.07,2.07,0,0,0,0-.22c0-2.15-3.08-3.88-6.89-3.88s-6.9,1.73-6.9,3.88a2.07,2.07,0,0,0,0,.22l0,0s.79,5.16,0,15A62.29,62.29,0,0,1,572.41,370a3.49,3.49,0,0,0-.9,2.22h0c0,2.89,4.17,5.24,9.31,5.24s9.3-2.35,9.3-5.24Z"/><path class="cls-13" d="M577.77,340.77c-2.27.64-3.85,1.94-3.85,3.47a2.07,2.07,0,0,0,0,.22l0,0s.79,5.16,0,15A62.29,62.29,0,0,1,572.41,370a3.49,3.49,0,0,0-.9,2.22h0a3.33,3.33,0,0,0,.63,1.86C578.56,364.27,576.53,352.51,577.77,340.77Z"/><path class="cls-5" d="M589.33,340.76c-1.67-1.72-4.87-2.9-8.59-2.9s-6.93,1.18-8.59,2.9h-1.23v2.62c0,3.05,4.4,5.53,9.82,5.53s9.82-2.48,9.82-5.53v-2.62Z"/><path class="cls-19" d="M589.33,340.76c-1.67-1.72-4.87-2.9-8.59-2.9s-6.93,1.18-8.59,2.9h-1.23v2.62c0,3.05,4.4,5.53,9.82,5.53s9.82-2.48,9.82-5.53v-2.62Z"/><path class="cls-1" d="M570.92,340.91c0,3.06,4.4,5.53,9.82,5.53s9.82-2.47,9.82-5.53-4.4-5.52-9.82-5.52S570.92,337.86,570.92,340.91Z"/><path class="cls-19" d="M589,334.82a8.19,8.19,0,1,1-8.18-8.18A8.18,8.18,0,0,1,589,334.82Z"/><path class="cls-5" d="M582.24,329.39c1.33,1.68.7,4.4-1.4,6.06s-4.89,1.66-6.23,0-.7-4.39,1.41-6.06S580.91,327.71,582.24,329.39Z"/><path class="cls-1" d="M579.44,330a2.52,2.52,0,1,1-3.14,0A2.24,2.24,0,0,1,579.44,330Z"/><path class="cls-19" d="M646.47,374.46v3.74c0,4.13-5.94,7.47-13.26,7.47s-13.27-3.34-13.27-7.47v-3.74Z"/><path class="cls-5" d="M619.94,374.46c0,4.12,5.94,7.46,13.27,7.46s13.26-3.34,13.26-7.46S640.53,367,633.21,367,619.94,370.33,619.94,374.46Z"/><path class="cls-19" d="M642.59,372.23h0a3.49,3.49,0,0,0-.9-2.22,62.29,62.29,0,0,1-1.51-10.55c-.79-9.81,0-15,0-15l0,0a2.07,2.07,0,0,0,0-.22c0-2.15-3.09-3.88-6.89-3.88s-6.9,1.73-6.9,3.88a2.07,2.07,0,0,0,0,.22l0,0s.79,5.16,0,15A62.29,62.29,0,0,1,624.88,370a3.49,3.49,0,0,0-.9,2.22h0c0,2.89,4.16,5.24,9.31,5.24s9.3-2.35,9.3-5.24Z"/><path class="cls-13" d="M630.24,340.77c-2.27.64-3.85,1.94-3.85,3.47a2.07,2.07,0,0,0,0,.22l0,0s.79,5.16,0,15A62.29,62.29,0,0,1,624.88,370a3.49,3.49,0,0,0-.9,2.22h0a3.33,3.33,0,0,0,.63,1.86C631,364.27,629,352.51,630.24,340.77Z"/><path class="cls-5" d="M641.8,340.76c-1.67-1.72-4.87-2.9-8.59-2.9s-6.93,1.18-8.59,2.9h-1.23v2.62c0,3.05,4.39,5.53,9.82,5.53s9.82-2.48,9.82-5.53v-2.62Z"/><path class="cls-19" d="M641.8,340.76c-1.67-1.72-4.87-2.9-8.59-2.9s-6.93,1.18-8.59,2.9h-1.23v2.62c0,3.05,4.39,5.53,9.82,5.53s9.82-2.48,9.82-5.53v-2.62Z"/><ellipse class="cls-1" cx="633.21" cy="340.91" rx="9.82" ry="5.53"/><path class="cls-19" d="M641.47,334.82a8.19,8.19,0,1,1-8.19-8.18A8.18,8.18,0,0,1,641.47,334.82Z"/><path class="cls-5" d="M634.71,329.39c1.33,1.68.7,4.4-1.4,6.06s-4.9,1.66-6.23,0-.7-4.39,1.41-6.06S633.38,327.71,634.71,329.39Z"/><path class="cls-1" d="M631.91,330a2.52,2.52,0,1,1-3.14,0A2.24,2.24,0,0,1,631.91,330Z"/><path class="cls-19" d="M672.36,389.62v3.75c0,4.12-5.94,7.47-13.27,7.47s-13.26-3.35-13.26-7.47v-3.75Z"/><path class="cls-5" d="M645.83,389.62c0,4.13,5.93,7.47,13.26,7.47s13.27-3.34,13.27-7.47-5.94-7.46-13.27-7.46S645.83,385.5,645.83,389.62Z"/><path class="cls-19" d="M668.48,387.39h0a3.53,3.53,0,0,0-.91-2.22,62.48,62.48,0,0,1-1.5-10.55c-.8-9.8,0-15,0-15l0,0a1.85,1.85,0,0,0,0-.23c0-2.14-3.09-3.88-6.9-3.88s-6.9,1.74-6.9,3.88a1.85,1.85,0,0,0,0,.23l0,0s.8,5.17,0,15a64,64,0,0,1-1.5,10.56,3.43,3.43,0,0,0-.91,2.21h0c0,2.9,4.17,5.24,9.31,5.24s9.31-2.34,9.31-5.24Z"/><path class="cls-13" d="M656.13,355.94c-2.28.63-3.86,1.94-3.86,3.46a1.85,1.85,0,0,0,0,.23l0,0s.8,5.17,0,15a64,64,0,0,1-1.5,10.56,3.43,3.43,0,0,0-.91,2.21h0a3.29,3.29,0,0,0,.64,1.87C656.92,379.44,654.88,367.67,656.13,355.94Z"/><path class="cls-5" d="M667.68,355.92c-1.66-1.72-4.87-2.9-8.59-2.9s-6.92,1.18-8.59,2.9h-1.23v2.63c0,3.05,4.4,5.52,9.82,5.52s9.82-2.47,9.82-5.52v-2.63Z"/><path class="cls-19" d="M667.68,355.92c-1.66-1.72-4.87-2.9-8.59-2.9s-6.92,1.18-8.59,2.9h-1.23v2.63c0,3.05,4.4,5.52,9.82,5.52s9.82-2.47,9.82-5.52v-2.63Z"/><path class="cls-1" d="M649.27,356.08c0,3.05,4.4,5.53,9.82,5.53s9.82-2.48,9.82-5.53-4.4-5.53-9.82-5.53S649.27,353,649.27,356.08Z"/><path class="cls-19" d="M667.36,350a8.19,8.19,0,1,1-8.19-8.19A8.19,8.19,0,0,1,667.36,350Z"/><path class="cls-5" d="M660.59,344.56c1.34,1.68.71,4.39-1.4,6.06s-4.89,1.65-6.22,0-.7-4.39,1.4-6.06S659.26,342.88,660.59,344.56Z"/><path class="cls-1" d="M657.8,345.2a2.53,2.53,0,1,1-3.15,0A2.27,2.27,0,0,1,657.8,345.2Z"/><path class="cls-19" d="M672.61,420.4v3.74c0,4.13-5.94,7.47-13.27,7.47s-13.26-3.34-13.26-7.47V420.4Z"/><path class="cls-5" d="M646.08,420.4c0,4.12,5.94,7.46,13.26,7.46s13.27-3.34,13.27-7.46-5.94-7.47-13.27-7.47S646.08,416.27,646.08,420.4Z"/><path class="cls-19" d="M668.73,418.17h0a3.43,3.43,0,0,0-.91-2.22,64,64,0,0,1-1.5-10.55c-.8-9.81,0-15,0-15l0,0a2.07,2.07,0,0,0,0-.22c0-2.15-3.09-3.88-6.9-3.88s-6.9,1.73-6.9,3.88c0,.07,0,.14,0,.22l0,0s.8,5.16,0,15A62.84,62.84,0,0,1,651,416a3.42,3.42,0,0,0-.9,2.22h0c0,2.89,4.16,5.23,9.3,5.23s9.31-2.34,9.31-5.23Z"/><path class="cls-13" d="M656.38,386.71c-2.28.63-3.86,1.94-3.86,3.47,0,.07,0,.14,0,.22l0,0s.8,5.16,0,15A62.66,62.66,0,0,1,651,416a3.42,3.42,0,0,0-.9,2.22h0a3.25,3.25,0,0,0,.63,1.86C657.17,410.21,655.13,398.44,656.38,386.71Z"/><path class="cls-5" d="M667.93,386.69c-1.66-1.72-4.86-2.9-8.59-2.9s-6.92,1.18-8.59,2.9h-1.22v2.63c0,3.05,4.39,5.52,9.81,5.52s9.82-2.47,9.82-5.52v-2.63Z"/><path class="cls-19" d="M667.93,386.69c-1.66-1.72-4.86-2.9-8.59-2.9s-6.92,1.18-8.59,2.9h-1.22v2.63c0,3.05,4.39,5.52,9.81,5.52s9.82-2.47,9.82-5.52v-2.63Z"/><path class="cls-1" d="M649.53,386.85c0,3,4.39,5.53,9.81,5.53s9.82-2.48,9.82-5.53-4.39-5.52-9.82-5.52S649.53,383.8,649.53,386.85Z"/><path class="cls-19" d="M667.61,380.76a8.19,8.19,0,1,1-8.19-8.19A8.19,8.19,0,0,1,667.61,380.76Z"/><path class="cls-5" d="M660.85,375.33c1.33,1.68.7,4.4-1.41,6.06s-4.89,1.66-6.22,0-.7-4.39,1.4-6.06S659.52,373.65,660.85,375.33Z"/><path class="cls-1" d="M658.05,376a2.52,2.52,0,1,1-3.14,0A2.24,2.24,0,0,1,658.05,376Z"/><path class="cls-7" d="M387.3,403.37V408c0,5.08-7.33,9.2-16.36,9.2s-16.36-4.12-16.36-9.2v-4.63Z"/><path class="cls-14" d="M354.58,403.37c0,5.09,7.32,9.21,16.36,9.21s16.36-4.12,16.36-9.21-7.33-9.2-16.36-9.2S354.58,398.29,354.58,403.37Z"/><path class="cls-15" d="M381.4,397.89a77.36,77.36,0,0,1-1.86-13c-1-12.1,0-28.05,0-28.05h0c0-.05,0-.1,0-.15,0-2.65-3.81-4.79-8.5-4.79s-8.51,2.14-8.51,4.79c0,.05,0,.1,0,.15h0s1,15.95,0,28.05a77.36,77.36,0,0,1-1.86,13,4.31,4.31,0,0,0-1.11,2.74c0,3.57,5.14,6.46,11.48,6.46s11.47-2.89,11.47-6.46A4.31,4.31,0,0,0,381.4,397.89Z"/><path class="cls-21" d="M360.91,401.19c3.69-5.88,4.46-12.08,4.85-19,.56-9.78-.33-20.06,1.34-29.78-2.71.8-4.57,2.38-4.57,4.23,0,.05,0,.1,0,.15h0s1,15.95,0,28.05a77.36,77.36,0,0,1-1.86,13,4.31,4.31,0,0,0-1.11,2.74,3.92,3.92,0,0,0,.54,1.86Z"/><path class="cls-7" d="M358.66,342.15v13.37c0,3.82,5.5,6.91,12.28,6.91s12.28-3.09,12.28-6.91V342.15Z"/><path class="cls-14" d="M358.66,342.15c0,3.82,5.5,6.91,12.28,6.91s12.28-3.09,12.28-6.91-5.5-6.91-12.28-6.91S358.66,338.33,358.66,342.15Z"/><path class="cls-7" d="M378.23,345.16a3.83,3.83,0,0,0,2-3c0-2.7-4.12-4.88-9.21-4.88s-9.21,2.18-9.21,4.88a3.84,3.84,0,0,0,2,3,14.78,14.78,0,0,1,14.39,0Z"/><path class="cls-15" d="M378.23,345.16a14.78,14.78,0,0,0-14.39,0,14.78,14.78,0,0,0,14.39,0Z"/><path class="cls-7" d="M412.41,418.53v4.63c0,5.08-7.33,9.2-16.36,9.2s-16.36-4.12-16.36-9.2v-4.63Z"/><path class="cls-14" d="M379.69,418.53c0,5.09,7.32,9.21,16.36,9.21s16.36-4.12,16.36-9.21-7.33-9.2-16.36-9.2S379.69,413.45,379.69,418.53Z"/><path class="cls-22" d="M383.44,416.47c0,3.92,5.65,7.09,12.61,7.09s12.6-3.17,12.6-7.09-5.64-7.1-12.6-7.1S383.44,412.55,383.44,416.47Z"/><path class="cls-7" d="M400.23,379.58a9.35,9.35,0,0,1,3.78,7.17c.75,7.83-1.83,14-6.42,22.83l-4.18,13.11-9.69-5.1c-.38-10.87-8.66-16.15-8.54-31.28.13-17.25,9.71-30.87,19.19-39.37,3.7-3.32,4.26-4.1,6.2-6a14,14,0,0,1-1.27,6.82c3.27-1,6.68-.63,6.73,3.08,0,.84,4.48,2.53,6.6,2.39,2.39-.15.42,7.54-1.11,9.76a5,5,0,0,1-4.11,2c-2,.86-3.85,3-6.58,4.41-2.12,1.08-3.78.84-4.33-1.46C393.09,376,397.53,377.66,400.23,379.58Z"/><path class="cls-11" d="M393.76,404.3a142.1,142.1,0,0,1-17.29-8.05c2.32,8.26,7,13.26,7.25,21.34l9.69,5.1,4.18-13.11c.55-1.06,1.05-2.07,1.54-3.06C397.34,405.76,395.55,405,393.76,404.3Z"/><polygon class="cls-7" points="403.21 356.33 396.66 349.25 400.57 340.95 410.26 346.05 403.21 356.33"/><polygon class="cls-7" points="406.7 362.98 400.14 355.9 404.06 347.6 413.75 352.7 406.7 362.98"/><polygon class="cls-15" points="415.81 368.73 409.26 361.65 413.17 353.35 422.86 358.44 415.81 368.73"/><polygon class="cls-7" points="406.21 366.88 401.27 366.43 397.77 369.83 407.46 374.94 406.21 366.88"/><path class="cls-14" d="M409.92,384.68a9.35,9.35,0,0,1,3.78,7.17c.75,7.83-1.83,14-6.42,22.83l-13.87,8c-.38-10.87-8.66-16.16-8.54-31.28.13-17.25,9.71-30.87,19.19-39.37,3.7-3.32,4.26-4.1,6.2-6a14,14,0,0,1-1.27,6.82c3.27-1,6.68-.63,6.73,3.08,0,.84,4.48,2.53,6.6,2.39,2.39-.15.42,7.54-1.11,9.76a5,5,0,0,1-4.11,2c-2,.86-3.85,3-6.58,4.41-2.12,1.08-3.78.84-4.33-1.46C402.78,381.14,407.22,382.76,409.92,384.68Z"/><path class="cls-7" d="M438.7,432.73v4.62c0,5.09-7.33,9.21-16.36,9.21S406,442.44,406,437.35v-4.62Z"/><path class="cls-14" d="M406,432.73c0,5.09,7.32,9.21,16.36,9.21s16.36-4.12,16.36-9.21-7.33-9.21-16.36-9.21S406,427.65,406,432.73Z"/><path class="cls-15" d="M433.82,430.32h0a4.25,4.25,0,0,0-1.12-2.73,77.92,77.92,0,0,1-1.85-13c-1-12.09,0-28,0-28h0s0-.1,0-.15c0-2.64-3.81-4.79-8.51-4.79s-8.51,2.15-8.51,4.79c0,.05,0,.1,0,.15h0s1,16,0,28a77.92,77.92,0,0,1-1.85,13,4.25,4.25,0,0,0-1.12,2.73h0c0,3.57,5.14,6.46,11.48,6.46s11.48-2.89,11.48-6.46Z"/><path class="cls-21" d="M415,425.79c2.27-5.89,2.27-11.61,2.48-17.86.28-8.36.47-16.93.23-25.34-2.54.83-3.9,2-3.9,3.76,0,0,0,.1,0,.15h0s1,15.95,0,28a77.55,77.55,0,0,1-1.85,13,4.29,4.29,0,0,0-1.12,2.74h0a4,4,0,0,0,.65,2.06A60.63,60.63,0,0,0,415,425.79Z"/><path class="cls-7" d="M430.84,384.48c-1.67-1.72-4.87-2.9-8.59-2.9s-6.93,1.18-8.59,2.9h-1.23v2.63c0,3.05,4.39,5.52,9.82,5.52s9.81-2.47,9.81-5.52v-2.63Z"/><path class="cls-14" d="M412.43,384.64c0,3.05,4.39,5.53,9.82,5.53s9.81-2.48,9.81-5.53-4.39-5.53-9.81-5.53S412.43,381.59,412.43,384.64Z"/><path class="cls-15" d="M428.89,368.62a94.25,94.25,0,0,1-6.53-14.82,95.32,95.32,0,0,1-6.55,14.82c-3.59,6.19-4.34,11.87-.39,15.59a7.66,7.66,0,0,0,.66.53h0a5.33,5.33,0,0,0,.6.41,10.6,10.6,0,0,0,5.65,1.46,10.79,10.79,0,0,0,5.55-1.39,6.32,6.32,0,0,0,1.39-1C433.23,380.49,432.48,374.81,428.89,368.62Z"/><path class="cls-7" d="M428.89,368.62a77.19,77.19,0,0,1-4.45-9.31c.69,4.58,1.73,9.11,1.61,13.7-.08,3.15-1.16,6.65-4,8.32-3.44,2-7.13.45-9.17-2.32a8.15,8.15,0,0,0,2.57,5.2,7.66,7.66,0,0,0,.66.53h0a5.33,5.33,0,0,0,.6.41,10.6,10.6,0,0,0,5.65,1.46,10.79,10.79,0,0,0,5.55-1.39,6.32,6.32,0,0,0,1.39-1C433.23,380.49,432.48,374.81,428.89,368.62Z"/><path class="cls-7" d="M426.5,354.34a4.28,4.28,0,1,1-4.28-4.28A4.28,4.28,0,0,1,426.5,354.34Z"/><path class="cls-21" d="M423,351.5a2.6,2.6,0,0,1-4,3.15,2.6,2.6,0,0,1,4-3.15Z"/><path class="cls-14" d="M421.51,351.84a1.18,1.18,0,0,1-.37,1.6,1.05,1.05,0,1,1,.37-1.6Z"/><path class="cls-7" d="M624.2,478v4.63c0,5.08-7.32,9.2-16.36,9.2s-16.36-4.12-16.36-9.2V478Z"/><path class="cls-14" d="M591.48,478c0,5.09,7.33,9.21,16.36,9.21s16.36-4.12,16.36-9.21-7.32-9.2-16.36-9.2S591.48,472.92,591.48,478Z"/><path class="cls-22" d="M595.24,475.94c0,3.92,5.64,7.09,12.6,7.09s12.61-3.17,12.61-7.09-5.65-7.1-12.61-7.1S595.24,472,595.24,475.94Z"/><path class="cls-7" d="M612,439.05a9.34,9.34,0,0,1,3.77,7.17c.75,7.83-1.83,14-6.41,22.83l-4.19,13.11-9.69-5.1c-.38-10.87-8.66-16.16-8.54-31.28.14-17.25,9.71-30.87,19.2-39.37,3.7-3.32,4.25-4.1,6.19-6a14,14,0,0,1-1.27,6.82c3.27-1,6.69-.63,6.74,3.08,0,.84,4.48,2.53,6.6,2.39,2.38-.15.42,7.53-1.11,9.76a5,5,0,0,1-4.11,2c-2,.85-3.86,3-6.58,4.4-2.12,1.08-3.78.85-4.33-1.45C604.88,435.51,609.33,437.12,612,439.05Z"/><path class="cls-11" d="M605.55,463.77a142.77,142.77,0,0,1-17.28-8c2.31,8.25,7,13.26,7.24,21.34l9.69,5.1,4.19-13.11c.55-1.06,1.05-2.07,1.54-3.06C609.14,465.23,607.35,464.48,605.55,463.77Z"/><polygon class="cls-7" points="615.01 415.8 608.45 408.72 612.36 400.42 622.05 405.52 615.01 415.8"/><polygon class="cls-7" points="618.49 422.45 611.94 415.37 615.85 407.07 625.54 412.17 618.49 422.45"/><polygon class="cls-15" points="627.61 428.2 621.05 421.12 624.96 412.81 634.65 417.91 627.61 428.2"/><polygon class="cls-7" points="618 426.35 613.06 425.9 609.57 429.3 619.25 434.4 618 426.35"/><path class="cls-14" d="M621.72,444.15a9.34,9.34,0,0,1,3.77,7.17c.75,7.83-1.83,14-6.41,22.83l-13.88,8c-.37-10.87-8.66-16.16-8.54-31.28.14-17.25,9.71-30.87,19.19-39.37,3.71-3.32,4.26-4.1,6.2-6a14,14,0,0,1-1.27,6.82c3.27-1,6.69-.63,6.74,3.08,0,.83,4.48,2.53,6.6,2.39,2.38-.15.42,7.54-1.11,9.76a5,5,0,0,1-4.11,2c-2,.85-3.86,3-6.58,4.4-2.12,1.09-3.78.85-4.33-1.45C614.57,440.61,619,442.22,621.72,444.15Z"/><path class="cls-7" d="M570.32,510.48v4.62c0,5.08-7.32,9.21-16.36,9.21s-16.36-4.13-16.36-9.21v-4.62Z"/><path class="cls-14" d="M537.6,510.48c0,5.08,7.33,9.2,16.36,9.2s16.36-4.12,16.36-9.2S563,501.27,554,501.27,537.6,505.39,537.6,510.48Z"/><path class="cls-5" d="M542.58,507.73c0,3.57,5.14,6.46,11.48,6.46s11.48-2.89,11.48-6.46-5.14-6.46-11.48-6.46S542.58,504.16,542.58,507.73Z"/><path class="cls-5" d="M545.55,463.78c0,2.64,3.81,4.79,8.51,4.79s8.51-2.15,8.51-4.79-3.81-4.79-8.51-4.79S545.55,461.13,545.55,463.78Z"/><path class="cls-5" d="M545.55,463.93s1,15.95,0,28.05c-1.17,14.43-3,15.75-3,15.75l14.82,1.08-1.78-45.92Z"/><path class="cls-5" d="M562.57,492c-1-12.1,0-28.05,0-28.05l-10.07-1-1.79,45.92,14.83-1.08S563.74,506.41,562.57,492Z"/><path class="cls-15" d="M564.42,505a77.55,77.55,0,0,1-1.85-13c-1-12.1,0-28.05,0-28.05h0c0-.05,0-.1,0-.15,0-2.65-3.81-4.79-8.51-4.79s-8.51,2.14-8.51,4.79c0,.05,0,.1,0,.15h0s1,15.95,0,28.05a77.55,77.55,0,0,1-1.85,13,4.29,4.29,0,0,0-1.12,2.74c0,3.57,5.14,6.46,11.48,6.46s11.48-2.89,11.48-6.46A4.29,4.29,0,0,0,564.42,505Z"/><path class="cls-21" d="M543.93,508.3c3.69-5.89,4.46-12.09,4.85-19,.56-9.78-.32-20.06,1.35-29.78-2.71.81-4.58,2.39-4.58,4.23,0,.05,0,.1,0,.15h0s1,15.95,0,28.05a77.55,77.55,0,0,1-1.85,13,4.29,4.29,0,0,0-1.12,2.74,3.92,3.92,0,0,0,.54,1.86C543.39,509.16,543.65,508.73,543.93,508.3Z"/><path class="cls-7" d="M541.68,449.25v13.37c0,3.82,5.5,6.91,12.28,6.91s12.28-3.09,12.28-6.91V449.25Z"/><path class="cls-14" d="M541.68,449.25c0,3.82,5.5,6.91,12.28,6.91s12.28-3.09,12.28-6.91-5.49-6.91-12.28-6.91S541.68,445.43,541.68,449.25Z"/><path class="cls-7" d="M561.25,452.26a3.84,3.84,0,0,0,2-3c0-2.69-4.13-4.88-9.21-4.88s-9.21,2.19-9.21,4.88a3.83,3.83,0,0,0,2,3,14.78,14.78,0,0,1,14.39,0Z"/><path class="cls-15" d="M561.25,452.26a14.78,14.78,0,0,0-14.39,0,14.78,14.78,0,0,0,14.39,0Z"/><path class="cls-7" d="M464.33,449.11v4.62c0,5.09-7.33,9.21-16.36,9.21s-16.36-4.12-16.36-9.21v-4.62Z"/><path class="cls-14" d="M431.61,449.11c0,5.09,7.32,9.21,16.36,9.21s16.36-4.12,16.36-9.21S457,439.9,448,439.9,431.61,444,431.61,449.11Z"/><path class="cls-15" d="M459.29,446.51h0a4.25,4.25,0,0,0-1.12-2.74,77.74,77.74,0,0,1-1.85-13c-1-12.1,0-45.13,0-45.13h0c0-.05,0-.1,0-.16,0-2.64-3.81-4.78-8.51-4.78s-8.51,2.14-8.51,4.78c0,.06,0,.11,0,.16h0s1,33,0,45.13a77.74,77.74,0,0,1-1.85,13,4.25,4.25,0,0,0-1.12,2.74h0c0,3.57,5.14,6.46,11.48,6.46s11.48-2.89,11.48-6.46Z"/><path class="cls-21" d="M440.64,440.52c1.43-8.09,1.37-16.63,1.62-26.57.3-12,.17-22.69.17-32.92-3.24.68-3.34,2.23-3.34,4.29a.8.8,0,0,0,0,.15h0s1,33,0,45.12a77.18,77.18,0,0,1-1.86,13,4.33,4.33,0,0,0-1.11,2.74h0a4.2,4.2,0,0,0,1,2.63C437.75,446.51,439.76,445.48,440.64,440.52Z"/><path class="cls-7" d="M458.36,384c-2-2.06-5.83-3.48-10.3-3.48s-8.3,1.42-10.29,3.48h-1.48v3.15c0,3.66,5.27,6.62,11.77,6.62s11.77-3,11.77-6.62V384Z"/><path class="cls-14" d="M436.29,384.21c0,3.66,5.27,6.62,11.77,6.62s11.77-3,11.77-6.62-5.27-6.63-11.77-6.63S436.29,380.55,436.29,384.21Z"/><path class="cls-7" d="M456.37,371.65c2.62-4,4.62-6,4.62-8.59l-11.12-2.78,0-.91-1.84.46-1.84-.46,0,.91-11.12,2.78c0,2.56,2,4.57,4.62,8.59,1.62,2.49,1.21,10.24,1.21,10.24,0,2.2,3.18,4,7.1,4s7.11-1.79,7.11-4h0S454.76,374.14,456.37,371.65Z"/><path class="cls-21" d="M442.13,369.2c-1.3-2.54-2.73-4.53-3.37-7l-3.63.9c0,2.56,2,4.57,4.62,8.59,1.62,2.49,1.21,10.24,1.21,10.24,0,1.44,1.36,2.69,3.4,3.39C445,380.11,444.28,373.43,442.13,369.2Z"/><path class="cls-14" d="M435.13,363.06c0,4,5.79,7.28,12.93,7.28S461,367.08,461,363.06s-5.79-7.27-12.93-7.27S435.13,359,435.13,363.06Z"/><path class="cls-22" d="M439.71,361.09c0,2.59,3.74,4.69,8.35,4.69s8.35-2.1,8.35-4.69-3.74-4.7-8.35-4.7S439.71,358.49,439.71,361.09Z"/><polygon class="cls-11" points="455.74 359.72 452.1 361.9 443.83 352.85 443.83 345.37 455.74 352.25 455.74 359.72"/><polygon class="cls-11" points="451.76 359.58 447.81 357.3 447.81 342.99 449.79 341.77 451.76 345.27 451.76 359.58"/><path class="cls-11" d="M454.14,361.66c0-3.2-2-6.89-4.35-8.28s-4.34.07-4.36,3.25Z"/><polygon class="cls-11" points="454.14 361.66 450.51 363.84 448.96 359.88 452.85 358.06 454.14 361.66"/><path class="cls-1" d="M452.1,354.43l-4-2.3v-4.69l-2-3.49-2,1.21v4.69l-4-2.3V355l2.2,1.28a5,5,0,0,0-.61,2.5l8.72,5a10.18,10.18,0,0,0-.61-3.21l2.2,1.27Z"/><path class="cls-7" d="M452.1,354.43l-4-2.3v-4.69l-2-3.49-2,1.21v4.69l-4-2.3V355l2.2,1.28a5,5,0,0,0-.61,2.5l8.72,5a10.18,10.18,0,0,0-.61-3.21l2.2,1.27Z"/><polygon class="cls-14" points="446.15 343.95 449.79 341.77 451.76 345.27 448.13 347.44 446.15 343.95"/><polygon class="cls-14" points="443.83 345.37 440.2 347.55 444.18 349.85 444.18 345.57 443.83 345.37"/><polygon class="cls-14" points="451.76 349.95 448.13 352.13 452.1 354.43 455.74 352.25 451.76 349.95"/><path class="cls-7" d="M490.53,463.35V468c0,5.08-7.32,9.21-16.36,9.21s-16.36-4.13-16.36-9.21v-4.62Z"/><path class="cls-14" d="M457.81,463.35c0,5.08,7.32,9.21,16.36,9.21s16.36-4.13,16.36-9.21-7.32-9.21-16.36-9.21S457.81,458.26,457.81,463.35Z"/><path class="cls-15" d="M485.49,460.74h0a4.25,4.25,0,0,0-1.12-2.73,77.92,77.92,0,0,1-1.85-13c-1-12.1,0-45.13,0-45.13h0c0-.06,0-.1,0-.16,0-2.64-3.81-4.79-8.51-4.79s-8.51,2.15-8.51,4.79c0,.06,0,.1,0,.16h0s1,33,0,45.13a77.92,77.92,0,0,1-1.85,13,4.25,4.25,0,0,0-1.12,2.73h0c0,3.57,5.14,6.47,11.48,6.47s11.48-2.9,11.48-6.47Z"/><path class="cls-21" d="M467.06,454.89c1.43-8.1,1.37-16.64,1.61-26.57.3-12,.17-22.69.17-32.92-3.24.67-3.34,2.23-3.34,4.28,0,.06,0,.11,0,.16h0s1,33,0,45.13a77.74,77.74,0,0,1-1.85,13,4.25,4.25,0,0,0-1.12,2.74h0a4.26,4.26,0,0,0,1,2.63C464.17,460.88,466.18,459.85,467.06,454.89Z"/><path class="cls-7" d="M484.56,398.26c-2-2.07-5.83-3.48-10.3-3.48s-8.3,1.41-10.29,3.48h-1.48v3.14c0,3.66,5.27,6.63,11.77,6.63s11.77-3,11.77-6.63v-3.14Z"/><path class="cls-14" d="M462.49,398.44c0,3.66,5.27,6.63,11.77,6.63s11.77-3,11.77-6.63-5.27-6.62-11.77-6.62S462.49,394.79,462.49,398.44Z"/><path class="cls-14" d="M482.58,376.2A8.59,8.59,0,0,0,479,377a38.56,38.56,0,0,0-2-3.95,11.89,11.89,0,0,0-2.73-3,12,12,0,0,0-2.72,3,38.56,38.56,0,0,0-2,3.95,8.59,8.59,0,0,0-3.55-.81,10,10,0,0,0-3.2.35,15.46,15.46,0,0,1,2.71,3.48,29.52,29.52,0,0,1,2.17,7.76c-.08.2,4.89-3.05,6.27-4,1.55.91,7.07,4.15,7,4a25.6,25.6,0,0,1,2-7.42,20.19,20.19,0,0,1,2.89-3.82A10,10,0,0,0,482.58,376.2Z"/><path class="cls-7" d="M467.58,380.56a20.28,20.28,0,0,0-1.63-2.23,6.17,6.17,0,0,0-2-1.46s3.1-.37,4.42.71S467.58,380.56,467.58,380.56Z"/><path class="cls-7" d="M481,380.56a20.28,20.28,0,0,1,1.63-2.23,6.17,6.17,0,0,1,2-1.46s-3.1-.37-4.42.71S481,380.56,481,380.56Z"/><path class="cls-11" d="M482.89,382a8.25,8.25,0,1,1-8.25-8.25A8.25,8.25,0,0,1,482.89,382Z"/><path class="cls-14" d="M471.58,381.9a4.36,4.36,0,0,1,5.35,0c2.92,2.06-3.4,3.43-3.4,3.43Z"/><path class="cls-7" d="M482.57,385.28a29.65,29.65,0,0,1,3.21-8.73,36.44,36.44,0,0,0-3.81,4,23.45,23.45,0,0,0-2.56,4.29,7,7,0,0,0-2.48-3c-1.55-1-2.67,1.18-2.67,1.18s-1.24-2-2.68-1.13a6.93,6.93,0,0,0-2.46,2.93s-1.25-2.25-2.57-4.29a19.51,19.51,0,0,0-3.8-4,29.47,29.47,0,0,1,3.2,8.73,63.89,63.89,0,0,1,.6,11.73c0,2.39,3.46,4.33,7.71,4.33S482,399.4,482,397h0A64.78,64.78,0,0,1,482.57,385.28Z"/><path class="cls-21" d="M469,384.54c-.37-.66-1.36-2.38-2.41-4a19.51,19.51,0,0,0-3.8-4,29.47,29.47,0,0,1,3.2,8.73,63.89,63.89,0,0,1,.6,11.73,3.8,3.8,0,0,0,2.29,3.08C468.84,395.4,469,389.88,469,384.54Z"/><path class="cls-7" d="M478.29,372.28A4.28,4.28,0,1,1,474,368,4.28,4.28,0,0,1,478.29,372.28Z"/><path class="cls-21" d="M474.76,369.44a2.61,2.61,0,1,1-3.25,0A2.33,2.33,0,0,1,474.76,369.44Z"/><path class="cls-14" d="M473.3,369.78a1.32,1.32,0,1,1-1.65,0A1.18,1.18,0,0,1,473.3,369.78Z"/><path class="cls-14" d="M466,379.71l.6-.64s.91,1.21,1.5,2.23,1.6,2.56,1.6,2.56l-.53,1s-.84-1.52-1.55-2.67S466,379.71,466,379.71Z"/><path class="cls-14" d="M482.61,379.71l-.15-1.16s-1.35,1.73-1.95,2.75-1.6,2.56-1.6,2.56l.53,1s.84-1.52,1.56-2.67S482.61,379.71,482.61,379.71Z"/><path class="cls-7" d="M514.57,447.46l1.09,4.49c1.2,4.94-4.94,10.68-13.72,12.82s-16.87-.14-18.07-5.08l-1.09-4.49Z"/><path class="cls-14" d="M482.78,455.2c1.2,4.94,9.29,7.21,18.07,5.08s14.92-7.88,13.72-12.82-9.3-7.21-18.07-5.08S481.57,450.26,482.78,455.2Z"/><path class="cls-15" d="M509.25,446.28h0a4.25,4.25,0,0,0-1.73-2.4,78.54,78.54,0,0,1-4.88-12.2c-3.81-11.52-6.63-27.25-6.63-27.25h0c0-.05,0-.11,0-.16-.62-2.57-4.83-3.75-9.4-2.64s-7.76,4.1-7.13,6.67c0,.05.05.09.06.14h0s4.72,15.27,6.63,27.25a78.17,78.17,0,0,1,1.28,13.08,4.31,4.31,0,0,0-.44,2.93h0c.84,3.46,6.52,5.06,12.68,3.56s10.47-5.53,9.62-9Z"/><path class="cls-21" d="M489.92,446.34c.81-6.26-.54-11.82-1.82-17.94-1.7-8.19-3.54-16.57-5.76-24.68-2.27,1.41-3.32,2.86-2.9,4.58,0,.05.05.09.06.14h0s4.72,15.27,6.63,27.25a78.17,78.17,0,0,1,1.28,13.08,4.31,4.31,0,0,0-.44,2.93h0a4.06,4.06,0,0,0,1.12,1.85A60.13,60.13,0,0,0,489.92,446.34Z"/><path class="cls-7" d="M495.51,402.44c-2-1.28-5.41-1.67-9-.78s-6.45,2.78-7.66,4.84l-1.19.29.62,2.56c.72,3,5.58,4.33,10.85,3s8.95-4.72,8.23-7.69l-.62-2.55Z"/><path class="cls-14" d="M477.67,407c.72,3,5.58,4.33,10.84,3.05s9-4.73,8.24-7.7-5.58-4.32-10.85-3S476.94,404,477.67,407Z"/><path class="cls-15" d="M489.87,387.49A94.43,94.43,0,0,1,480,374.63a95.78,95.78,0,0,1-2.86,15.95c-2,6.86-1.41,12.57,3.31,15.25a7.26,7.26,0,0,0,.76.35h0a7.07,7.07,0,0,0,.67.26,11.73,11.73,0,0,0,10.91-2.59,6.67,6.67,0,0,0,1.11-1.3C496.9,398,494.82,392.65,489.87,387.49Z"/><path class="cls-7" d="M489.87,387.49a77.42,77.42,0,0,1-6.52-8c1.75,4.29,3.83,8.44,4.8,12.93.67,3.07.45,6.73-1.95,9-2.87,2.75-6.81,2.13-9.45-.08a8.11,8.11,0,0,0,3.73,4.45,7.26,7.26,0,0,0,.76.35h0a7.07,7.07,0,0,0,.67.26,11.73,11.73,0,0,0,10.91-2.59,6.67,6.67,0,0,0,1.11-1.3C496.9,398,494.82,392.65,489.87,387.49Z"/><path class="cls-7" d="M484.17,374.18A4.28,4.28,0,1,1,479,371,4.27,4.27,0,0,1,484.17,374.18Z"/><path class="cls-21" d="M480.07,372.26a2.6,2.6,0,1,1-3.16.75A2.33,2.33,0,0,1,480.07,372.26Z"/><path class="cls-14" d="M478.73,372.93a1.31,1.31,0,1,1-1.6.38A1.18,1.18,0,0,1,478.73,372.93Z"/><path class="cls-12" d="M258.85,470.65c2.28,0,17.08-13.39,35.67-19.19s33.07-8.65,35.19-2.91-3.54,7-3.54,7,6.43,6.84-4.95,17.8-32.5,21.74-32.5,21.74Z"/><path class="cls-23" d="M465.32,832.16c17.24,2,21.11,18.54,8.65,28.75-11.34,9.3-23.9,20.53-38.94,24.36-15.32,3.9-26.41-1.26-26.41-1.26l-2,8.65s-20.32,6.86-28.36-3.35c-3-11.54-1.69-37.09,5.34-48.32,7.5-12,13.64-8.57,33.1-5.39C425.3,837,459.16,831.46,465.32,832.16Z"/><path class="cls-23" d="M373.64,786.84c17.24,2,21.12,18.54,8.66,28.75-11.35,9.3-23.91,20.53-38.95,24.36-15.31,3.9-26.41-1.26-26.41-1.26l-2,8.65S294.6,854.2,286.56,844c-3-11.54-1.69-37.09,5.34-48.32,7.5-12,13.65-8.57,33.11-5.39C333.63,791.69,367.48,786.14,373.64,786.84Z"/><path class="cls-5" d="M298.45,634.47c22.23,6.52,44.19-5.57,68.42-10.59-1.43,7.74-3.08,27.08-6.89,41.23-11.63,43.15-15.61,108.92-21.09,136-7.81,9.25-44.81,15.36-47.07-3.14-5.25-43.08-12.4-96.56-1.2-137C294.15,648.14,296.37,640.68,298.45,634.47Z"/><path class="cls-19" d="M385.74,673.08c20.84,7,26-41.44,47.45-48.14,13.9,18.62,16,61.83,13.4,84.31-5.21,44.38-10.85,108.82-14.3,136.2-7.09,9.81-47.21,17.65-50.84-.63-8.46-42.57-5.49-92-.76-133.72C382.19,697.89,382.4,684.14,385.74,673.08Z"/><path class="cls-1" d="M380,740.39V915.44c0,2.77-3.75,5-8.37,5s-8.37-2.25-8.37-5V740.39Z"/><path class="cls-1" d="M244.44,819.93V995c0,2.77-3.75,5-8.37,5s-8.37-2.25-8.37-5V819.93Z"/><path class="cls-1" d="M105.78,740.39V915.44c0,2.77-3.75,5-8.37,5s-8.37-2.25-8.37-5V740.39Z"/><polygon class="cls-2" points="79.5 752.23 235.91 842.53 392.21 752.18 235.81 661.88 79.5 752.23"/><polygon class="cls-2" points="79.5 739.94 235.91 830.24 392.21 739.89 235.81 649.59 79.5 739.94"/><polygon class="cls-3" points="392.21 739.89 392.21 752.18 235.91 842.53 235.91 830.24 392.21 739.89"/><polygon class="cls-4" points="79.5 739.94 79.5 752.23 235.91 842.53 235.91 830.24 79.5 739.94"/><path class="cls-5" d="M364.35,641.89c-1.54-.18-46.39,8.55-48.09,8.34-29.79,24.09-60,73.35-92.53,83.47-25.78,30.17-49.28,4.55-58.82-5.31-27.14-28-23.85-71.82-17.08-86.5,2.36-5.12,27.74-.61,42.69-6.91,9.81-4.12,54.86-26.7,101.39-46.15,7.28-3.05,60.83-17.41,71.3-.67C376,608.55,372.49,618.62,364.35,641.89Z"/><path class="cls-19" d="M186.24,690.84c-14.4-66.53,80.2-24.27,94.34-32.49,9.2-5.34,72-26.52,118-47.05,20.9-9.32,35.62,6.78,41.92,29.18,6.93,24.64-28.92,6-33.53,30a4.37,4.37,0,0,0,.3,2.64c-27.72,52.89-79.82,74.85-97.48,79.08-21.88,19.26-63.31,27-83.15,17.4C197.16,755.43,192.15,718.15,186.24,690.84Z"/><path class="cls-24" d="M248.59,417.38s-36.81-39.54-69.32,5.26c-36.17,49.85,14.07,90.17,26,116.23C209.19,547.31,248.59,417.38,248.59,417.38Z"/><path class="cls-25" d="M279.64,421.71l-6.94,27.47c-15.94-1.59-33.83-7.42-44.21-22.45,4.3-5.62,8.36-28.38,8.28-34.45-9.55-14.41-4.29-29.82,6.86-47.63C255.32,326,283.09,319.27,303,328.29c2.66.35,17.28,6.22,19.34,21.7,2.3,17.27,2.68,60-9.81,70.83C303.8,428.36,290.13,423,279.64,421.71Z"/><path class="cls-5" d="M220.47,350.12c-1.74-13.18,2.4-26.41,14.6-36.11,13.74-10.93,41.15-18.77,57.08-7.89a9.28,9.28,0,0,1,.31-1.5c2.63-5.91,9.16-6.7,14.55-4.38a26.25,26.25,0,0,1,10.74,9.08,12.46,12.46,0,0,1,8.28-1.89c9.93,1.5,12.74,14.35,11.4,22.58-2.77,17.1-23,40-42,40.26,3.13,8.78-.06,14.75-5.81,22.43-9,12-25.07,16.5-39.39,13.32-16.22-3.59-33.45-16.88-36.58-34A24.7,24.7,0,0,1,220.47,350.12Z"/><path class="cls-25" d="M302.76,372.75s-5.87-9.73-14.17-.67S297,397.83,297,397.83Z"/><path class="cls-8" d="M213.78,423.55c18.64,1.43,44.52,14.75,81.82,39.94s23.25,37.53,21.06,54.7,9.21-6.68-2.6,27.26c2.39,20-1,48.24-19.54,63.15,8.24,16.34,0,36.49,0,36.49s30.37,1.18,18.77,22.13c-8.88,9.44-48.25,39-81.13,38.6-28.26-.39-47.7-7.81-77.08-33.81-.19-47.29,5.19-116.23,7.85-155.3C166,471.47,166,419.91,213.78,423.55Z"/><path class="cls-24" d="M282.28,664.85s-18.72,4.44-39.23,9.87-23.07,4.7-37.74,7.55c5.7,0,30.56,4,45.46.63C268,679,282.28,664.85,282.28,664.85Z"/><path class="cls-24" d="M205.31,653.83a42.77,42.77,0,0,0,29.41,8c17.59-1.71,28.7-3.84,28.7-3.84s-18.94-5.41-28.7-4.2S205.31,653.83,205.31,653.83Z"/><path class="cls-23" d="M411.83,506c-8.43-2.75-54.67-20.19-77.33-20.32-35.61-22.14-40.6-25-52.22-15.42-16.36,13.46-30.6,51.52-24.92,79.8,6.06,30.12,38,32.4,52.39,9.64,14.38,12.37,115.52,6.75,130.56-7.4C444.89,532.17,426.72,520,411.83,506Z"/><path class="cls-25" d="M502.64,431.68c-2.1,4.45-5.8,6-11.06,4.61-2-5.27-3.94-18.77-12.52-20.36-4.57-.84.68,11.14,1.54,20.76.78,8.66-1.5,14.38-5.43,21.54,0,0,2.92,21.9,11.26,22s30.57-17.87,36-24.23,8.37-9.83.55-24.45c-3.76-7-4-10.3-9.8-8.84-1.09-9.11-10.32-11.14-15-7.68A145.76,145.76,0,0,0,502.64,431.68Z"/><path class="cls-8" d="M461.7,470.08l13.47-11.85s7.12-1.25,17.4,7.59a23.52,23.52,0,0,1,7.54,12.71l-13.73,14.3Z"/><path class="cls-23" d="M465.29,466.41c-16.46-.41-62.15,33.11-79.18,46.64,7.87,17.45-4.27,32.68,8.84,40.77,11.63,7.17,33.11,8.67,43.51-.47,21.09-18.53,42.61-47.33,52.68-64.52C489.71,481.45,479.49,468.44,465.29,466.41Z"/><path class="cls-23" d="M288.78,458.37s-14.4-19.15-31.42-29.05-35.73-19.63-35.73-19.63l-7.85,13.86s7.09,16.3,22.67,23.21S288.78,458.37,288.78,458.37Z"/><path class="cls-3" d="M84.46,533.66l10.88-6,0,.07c2.34-1.38,5.36-1.35,8.71.59l130.2,75.17c7.32,4.23,13.26,15.58,13.26,25.34V824.12l-11.46,6.3L90.8,733.63,87.3,546Z"/><path class="cls-4" d="M79.34,739.94V544.65c0-9.77,5.94-14.26,13.26-10l130.21,75.17c7.32,4.23,13.26,15.58,13.26,25.35V830.42Z"/><path class="cls-12" d="M703.26,271.27c3.76-1.43,10.11-.88,13,4.48,3.85-2,5.55.81,8.74,5s6.69,9.46,11.88,11.07,8.72,2.35,8.72,2.35a28.45,28.45,0,0,1,4.81,12.56,16.45,16.45,0,0,1-3.28,11.63s-13.24,2.21-18.35-.61a43.78,43.78,0,0,1-13.55-12.45c-4-5.57-5.54-7.41-7.45-11.17-2.21,0-4.69,1.14-7.53,4.62-6.63,8.12-8.22,2.19-8.22-2-2.17,3.59-4.49,1.47-4.73-3.67S686.29,277.72,703.26,271.27Z"/></svg>