<svg id="Layer_1" data-name="Layer 1" xmlns="http://www.w3.org/2000/svg" viewBox="0 0 250 250"><defs><style>.cls-1{opacity:0.5;}.cls-2{fill:#96c;}.cls-3{fill:#ffc8b5;}.cls-4{fill:#ffa192;}.cls-5{fill:#3f2a28;}.cls-6{fill:#5b4140;}.cls-7{fill:#725454;}.cls-8{fill:#ca6b3b;}.cls-9{fill:#fff;}.cls-10{fill:#a14126;}.cls-11{fill:#f3f5f2;}.cls-12{fill:#ffd7cb;}</style></defs><title>icon_online</title><g class="cls-1"><circle class="cls-2" cx="125" cy="126" r="105.56"/></g><path class="cls-3" d="M129,175.89c-6.93-8.86-16.86-15.36-26.34-21.18-8.69-5.33-27.78-24.89-28.86-22.1C68,147.83,64,154,63.89,167.18c-.07,18.95-5.34,37.14-3.56,68.88C60.32,243.73,72,250,86.41,250s26.13-6.17,26.14-13.84c-.91-18.5,5.2-24.33,11.1-31.75C129.08,197.57,129.9,177,129,175.89Z"/><path class="cls-3" d="M190,6.58C189.9.21,185.19-2.57,179.87,3c-7.21,7.51-12.26,13.67-14.54,16.47V51.82l0,0c5.39-4.91,9.4-12.41,13.72-18.77C187.08,25.56,190.24,17.9,190,6.58Z"/><path class="cls-4" d="M89.41,182.63s-5,11.39-5.76,13.8-.19,9,1.62,13.23,11.13,2.12,15.34-3.9S89.41,182.63,89.41,182.63Z"/><path class="cls-4" d="M98.72,209.14s4.19,1.87,8.31,4.06a7.46,7.46,0,0,0,7.4,0s-8.19-5.1-10.21-5.34S98.72,209.14,98.72,209.14Z"/><path class="cls-5" d="M164.59,14.36l-5.26-3v0a3.72,3.72,0,0,0-3.92.23L94.93,46.5c-3.25,1.87-5.9,7-5.9,11.29V205.11c0,2.36.8,4,2,4.73v0l5.2,3,59.12-38.19c3.25-1.88,5.9-7,5.9-11.29Z"/><path class="cls-6" d="M100,212.49l60.46-34.9c3.25-1.88,5.91-7,5.91-11.3V19c0-4.34-2.66-6.35-5.91-4.47L100,49.42c-3.25,1.87-5.91,6.95-5.91,11.29V208C94.12,212.36,96.78,214.37,100,212.49Z"/><path class="cls-7" d="M100.88,208.39l57.5-33.13c3-1.71,5.39-6.35,5.39-10.31V21.43c0-4-1.07-5.14-4-3.42L102,51.14c-3,1.71-5.39,6.35-5.39,10.31V204.89C96.62,208.85,97.91,210.1,100.88,208.39Z"/><polygon class="cls-8" points="98.72 199.71 161.81 163.24 161.81 27.29 98.72 63.76 98.72 199.71"/><path class="cls-9" d="M129.59,40.56c0,1.29.79,1.88,1.76,1.32a4.19,4.19,0,0,0,1.75-3.35c0-1.29-.78-1.89-1.75-1.33A4.21,4.21,0,0,0,129.59,40.56Z"/><path class="cls-9" d="M136.89,36.14c0,1,.61,1.48,1.37,1a3.29,3.29,0,0,0,1.38-2.63c0-1-.62-1.47-1.38-1A3.3,3.3,0,0,0,136.89,36.14Z"/><path class="cls-6" d="M130.91,189.28a2.11,2.11,0,0,1-2-2.33v-.7a4.12,4.12,0,0,1,1.83-3.38l6.34-3.66a2.22,2.22,0,0,1,1.12-.32,2.11,2.11,0,0,1,2,2.33v.7a4.12,4.12,0,0,1-1.83,3.38L132,189a2.31,2.31,0,0,1-1.12.31Z"/><path class="cls-9" d="M131.38,187.85l6.35-3.66a2.86,2.86,0,0,0,1.18-2.27v-.7c0-.87-.53-1.28-1.18-.9L131.38,184a2.87,2.87,0,0,0-1.19,2.27v.7C130.19,187.82,130.73,188.23,131.38,187.85Z"/><polygon class="cls-10" points="106.73 98.36 98.84 102.92 98.84 92.4 106.73 87.85 106.73 98.36"/><polygon class="cls-9" points="114.61 93.81 106.73 98.36 106.73 87.85 114.61 83.29 114.61 93.81"/><polygon class="cls-9" points="106.73 108.88 98.84 113.43 98.84 102.92 106.73 98.36 106.73 108.88"/><polygon class="cls-10" points="114.61 104.32 106.73 108.88 106.73 98.36 114.61 93.81 114.61 104.32"/><polygon class="cls-10" points="122.5 89.26 114.61 93.81 114.61 83.29 122.5 78.74 122.5 89.26"/><polygon class="cls-9" points="130.39 84.7 122.5 89.26 122.5 78.74 130.39 74.19 130.39 84.7"/><polygon class="cls-9" points="122.5 99.77 114.61 104.32 114.61 93.81 122.5 89.26 122.5 99.77"/><polygon class="cls-10" points="130.39 95.22 122.5 99.77 122.5 89.26 130.39 84.7 130.39 95.22"/><polygon class="cls-10" points="106.73 119.39 98.84 123.95 98.84 113.43 106.73 108.88 106.73 119.39"/><polygon class="cls-9" points="114.61 114.84 106.73 119.39 106.73 108.88 114.61 104.32 114.61 114.84"/><polygon class="cls-9" points="106.73 129.91 98.84 134.46 98.84 123.95 106.73 119.39 106.73 129.91"/><polygon class="cls-10" points="114.61 125.36 106.73 129.91 106.73 119.39 114.61 114.84 114.61 125.36"/><polygon class="cls-10" points="122.5 110.29 114.61 114.84 114.61 104.32 122.5 99.77 122.5 110.29"/><polygon class="cls-9" points="130.39 105.73 122.5 110.29 122.5 99.77 130.39 95.22 130.39 105.73"/><polygon class="cls-9" points="122.5 120.8 114.61 125.36 114.61 114.84 122.5 110.29 122.5 120.8"/><polygon class="cls-10" points="130.39 116.25 122.5 120.8 122.5 110.29 130.39 105.73 130.39 116.25"/><polygon class="cls-10" points="138.27 80.15 130.39 84.7 130.39 74.19 138.27 69.63 138.27 80.15"/><polygon class="cls-9" points="146.16 75.6 138.27 80.15 138.27 69.63 146.16 65.08 146.16 75.6"/><polygon class="cls-9" points="138.27 90.67 130.39 95.22 130.39 84.7 138.27 80.15 138.27 90.67"/><polygon class="cls-10" points="146.16 86.11 138.27 90.67 138.27 80.15 146.16 75.6 146.16 86.11"/><polygon class="cls-10" points="154.05 71.04 146.16 75.6 146.16 65.08 154.05 60.53 154.05 71.04"/><polygon class="cls-9" points="161.93 66.49 154.05 71.04 154.05 60.53 161.93 55.97 161.93 66.49"/><polygon class="cls-9" points="154.05 81.56 146.16 86.11 146.16 75.6 154.05 71.04 154.05 81.56"/><polygon class="cls-10" points="161.93 77 154.05 81.56 154.05 71.04 161.93 66.49 161.93 77"/><polygon class="cls-10" points="138.27 101.18 130.39 105.73 130.39 95.22 138.27 90.67 138.27 101.18"/><polygon class="cls-9" points="146.16 96.63 138.27 101.18 138.27 90.67 146.16 86.11 146.16 96.63"/><polygon class="cls-9" points="138.27 111.69 130.39 116.25 130.39 105.73 138.27 101.18 138.27 111.69"/><polygon class="cls-10" points="146.16 107.14 138.27 111.69 138.27 101.18 146.16 96.63 146.16 107.14"/><polygon class="cls-10" points="154.05 92.07 146.16 96.63 146.16 86.11 154.05 81.56 154.05 92.07"/><polygon class="cls-9" points="161.93 87.52 154.05 92.07 154.05 81.56 161.93 77 161.93 87.52"/><polygon class="cls-9" points="154.05 102.59 146.16 107.14 146.16 96.63 154.05 92.07 154.05 102.59"/><polygon class="cls-10" points="161.93 98.04 154.05 102.59 154.05 92.07 161.93 87.52 161.93 98.04"/><polygon class="cls-10" points="106.73 140.42 98.84 144.98 98.84 134.46 106.73 129.91 106.73 140.42"/><polygon class="cls-9" points="114.61 135.87 106.73 140.42 106.73 129.91 114.61 125.36 114.61 135.87"/><polygon class="cls-9" points="106.73 150.94 98.84 155.49 98.84 144.98 106.73 140.42 106.73 150.94"/><polygon class="cls-10" points="114.61 146.38 106.73 150.94 106.73 140.42 114.61 135.87 114.61 146.38"/><polygon class="cls-10" points="122.5 131.32 114.61 135.87 114.61 125.36 122.5 120.8 122.5 131.32"/><polygon class="cls-9" points="130.39 126.76 122.5 131.32 122.5 120.8 130.39 116.25 130.39 126.76"/><polygon class="cls-9" points="122.5 141.83 114.61 146.38 114.61 135.87 122.5 131.32 122.5 141.83"/><polygon class="cls-10" points="130.39 137.28 122.5 141.83 122.5 131.32 130.39 126.76 130.39 137.28"/><polygon class="cls-10" points="106.73 161.45 98.84 166.01 98.84 155.49 106.73 150.94 106.73 161.45"/><polygon class="cls-9" points="114.61 156.9 106.73 161.45 106.73 150.94 114.61 146.38 114.61 156.9"/><polygon class="cls-9" points="106.73 171.97 98.84 176.52 98.84 166.01 106.73 161.45 106.73 171.97"/><polygon class="cls-10" points="114.61 167.42 106.73 171.97 106.73 161.45 114.61 156.9 114.61 167.42"/><polygon class="cls-10" points="122.5 152.35 114.61 156.9 114.61 146.38 122.5 141.83 122.5 152.35"/><polygon class="cls-9" points="130.39 147.79 122.5 152.35 122.5 141.83 130.39 137.28 130.39 147.79"/><polygon class="cls-9" points="122.5 162.86 114.61 167.42 114.61 156.9 122.5 152.35 122.5 162.86"/><polygon class="cls-10" points="130.39 158.31 122.5 162.86 122.5 152.35 130.39 147.79 130.39 158.31"/><polygon class="cls-10" points="138.27 122.21 130.39 126.76 130.39 116.25 138.27 111.69 138.27 122.21"/><polygon class="cls-9" points="146.16 117.66 138.27 122.21 138.27 111.69 146.16 107.14 146.16 117.66"/><polygon class="cls-9" points="138.27 132.73 130.39 137.28 130.39 126.76 138.27 122.21 138.27 132.73"/><polygon class="cls-10" points="146.16 128.17 138.27 132.73 138.27 122.21 146.16 117.66 146.16 128.17"/><polygon class="cls-10" points="154.05 113.1 146.16 117.66 146.16 107.14 154.05 102.59 154.05 113.1"/><polygon class="cls-9" points="161.93 108.55 154.05 113.1 154.05 102.59 161.93 98.04 161.93 108.55"/><polygon class="cls-9" points="154.05 123.62 146.16 128.17 146.16 117.66 154.05 113.1 154.05 123.62"/><polygon class="cls-10" points="161.93 119.07 154.05 123.62 154.05 113.1 161.93 108.55 161.93 119.07"/><polygon class="cls-10" points="138.27 143.24 130.39 147.79 130.39 137.28 138.27 132.73 138.27 143.24"/><polygon class="cls-9" points="146.16 138.69 138.27 143.24 138.27 132.73 146.16 128.17 146.16 138.69"/><polygon class="cls-9" points="138.27 153.76 130.39 158.31 130.39 147.79 138.27 143.24 138.27 153.76"/><polygon class="cls-10" points="146.16 149.2 138.27 153.76 138.27 143.24 146.16 138.69 146.16 149.2"/><polygon class="cls-10" points="154.05 134.13 146.16 138.69 146.16 128.17 154.05 123.62 154.05 134.13"/><polygon class="cls-9" points="161.93 129.58 154.05 134.13 154.05 123.62 161.93 119.07 161.93 129.58"/><polygon class="cls-9" points="154.05 144.65 146.16 149.2 146.16 138.69 154.05 134.13 154.05 144.65"/><polygon class="cls-10" points="161.93 140.1 154.05 144.65 154.05 134.13 161.93 129.58 161.93 140.1"/><path class="cls-5" d="M151.23,127.43a2.68,2.68,0,0,1-1.13,2.15c-.62.36-1.13,0-1.13-.85a2.72,2.72,0,0,1,1.13-2.16C150.73,126.21,151.23,126.59,151.23,127.43Z"/><path class="cls-5" d="M151,131.3a14.86,14.86,0,0,1-.16-2.84l-.7.56-.7.25a17.5,17.5,0,0,1-.15,3,8.84,8.84,0,0,1-.89,2.64v1.56l1.47-.84.55-.32,1.46-.85v-1.56A2.57,2.57,0,0,1,151,131.3Z"/><path class="cls-11" d="M103.91,144.12a2.68,2.68,0,0,1-1.13,2.15c-.62.36-1.12,0-1.12-.85a2.71,2.71,0,0,1,1.12-2.16C103.41,142.9,103.91,143.29,103.91,144.12Z"/><path class="cls-11" d="M103.64,148a14.41,14.41,0,0,1-.15-2.85l-.71.56-.7.25a17.5,17.5,0,0,1-.15,3,8.48,8.48,0,0,1-.89,2.64v1.56l1.47-.84.55-.32,1.47-.85v-1.56A2.53,2.53,0,0,1,103.64,148Z"/><path class="cls-11" d="M143.34,121.32a2.69,2.69,0,0,1-1.12,2.15c-.63.36-1.13,0-1.13-.85a2.69,2.69,0,0,1,1.13-2.16C142.84,120.1,143.34,120.48,143.34,121.32Z"/><path class="cls-11" d="M143.07,125.19a15.3,15.3,0,0,1-.15-2.84l-.7.56-.71.25a16.3,16.3,0,0,1-.15,3,8.57,8.57,0,0,1-.89,2.64v1.56l1.47-.84.55-.32,1.47-.85v-1.56A2.53,2.53,0,0,1,143.07,125.19Z"/><path class="cls-11" d="M119.69,145.33a2.7,2.7,0,0,1-1.13,2.15c-.63.36-1.13,0-1.13-.85a2.69,2.69,0,0,1,1.13-2.16C119.18,144.11,119.69,144.5,119.69,145.33Z"/><path class="cls-11" d="M119.41,149.21a15.4,15.4,0,0,1-.15-2.85l-.7.56-.7.25a17,17,0,0,1-.16,3,8.48,8.48,0,0,1-.89,2.64v1.56l1.47-.84.55-.32,1.47-.85v-1.56A2.57,2.57,0,0,1,119.41,149.21Z"/><path class="cls-5" d="M119.69,103.27a2.7,2.7,0,0,1-1.13,2.15c-.63.36-1.13,0-1.13-.85a2.69,2.69,0,0,1,1.13-2.16C119.18,102.05,119.69,102.44,119.69,103.27Z"/><path class="cls-5" d="M119.41,107.15a15.4,15.4,0,0,1-.15-2.85l-.7.56-.7.25a17,17,0,0,1-.16,3,8.57,8.57,0,0,1-.89,2.64v1.56l1.47-.84.55-.32,1.47-.85v-1.56A2.57,2.57,0,0,1,119.41,107.15Z"/><path class="cls-5" d="M103.91,102.06a2.68,2.68,0,0,1-1.13,2.15c-.62.36-1.12,0-1.12-.85a2.71,2.71,0,0,1,1.12-2.16C103.41,100.84,103.91,101.22,103.91,102.06Z"/><path class="cls-5" d="M103.64,105.93a14.31,14.31,0,0,1-.15-2.84l-.71.56-.7.25a17.5,17.5,0,0,1-.15,3,8.57,8.57,0,0,1-.89,2.64v1.56l1.47-.84.55-.32,1.47-.85v-1.56A2.53,2.53,0,0,1,103.64,105.93Z"/><path class="cls-5" d="M111.8,97.3a2.71,2.71,0,0,1-1.13,2.16c-.62.36-1.13,0-1.13-.85a2.72,2.72,0,0,1,1.13-2.16C111.29,96.09,111.8,96.47,111.8,97.3Z"/><path class="cls-5" d="M111.52,101.18a15.3,15.3,0,0,1-.15-2.84l-.7.56-.7.25a17.5,17.5,0,0,1-.15,3,9.24,9.24,0,0,1-.89,2.64v1.56l1.46-.84.56-.32,1.46-.85v-1.57A2.56,2.56,0,0,1,111.52,101.18Z"/><path class="cls-5" d="M143.56,79.25a2.71,2.71,0,0,1-1.13,2.16c-.62.36-1.13,0-1.13-.85a2.72,2.72,0,0,1,1.13-2.16C143.05,78,143.56,78.42,143.56,79.25Z"/><path class="cls-5" d="M143.28,83.13a15.3,15.3,0,0,1-.15-2.84l-.7.56-.7.25a17.5,17.5,0,0,1-.15,3,9.24,9.24,0,0,1-.89,2.64v1.56l1.46-.84.56-.32,1.46-.85V84.74A2.56,2.56,0,0,1,143.28,83.13Z"/><path class="cls-11" d="M124.79,128.85V126.3s-2.3,0-1.44-2.69c.66-2.08,2.32-2.49,3-2s.93,5.78.93,5.78Z"/><path class="cls-11" d="M128.1,126.94v-2.55s2.3-2.62,1.43-4.35c-.66-1.31-2.31.19-3,1.49s-.93,6.85-.93,6.85Z"/><path class="cls-11" d="M127.34,120.43a3,3,0,0,1-.9,2.35c-.49.29-.89-.3-.89-1.32a3,3,0,0,1,.89-2.35C126.94,118.83,127.34,119.42,127.34,120.43Z"/><path class="cls-5" d="M116.9,91.54V89s-2.3,0-1.43-2.69c.66-2.08,2.31-2.49,3-2s.93,5.78.93,5.78Z"/><path class="cls-5" d="M120.21,89.63V87.08s2.3-2.62,1.44-4.35c-.66-1.31-2.32.19-3,1.49s-.93,6.85-.93,6.85Z"/><path class="cls-5" d="M119.45,83.12a3,3,0,0,1-.89,2.35c-.5.29-.9-.3-.9-1.32a3,3,0,0,1,.9-2.35C119.05,81.52,119.45,82.11,119.45,83.12Z"/><polygon class="cls-11" points="152.31 109.06 152.11 104.86 151.03 109.52 150.1 105.7 149.17 110.59 148.09 107.18 147.89 111.61 146.28 108.77 147.39 116.22 150.1 114.65 152.82 113.08 153.92 104.36 152.31 109.06"/><polygon class="cls-5" points="136.54 96.81 136.34 92.61 135.26 97.27 134.33 93.45 133.4 98.34 132.32 94.93 132.12 99.36 130.51 96.52 131.61 103.97 134.33 102.4 137.05 100.83 138.15 92.11 136.54 96.81"/><path class="cls-3" d="M94.12,142c2.44-8.29,1-23.74-1.33-29.38,2.56-7,4.74-16.68,3.32-23.7C95.06,83.7,92,76.46,86,74.23A5.67,5.67,0,0,0,79,76.85c-1.61,3-.68,6.91-1,10.18-.49,4.55-2.51,8.78-4.13,13-2.65,6.88-1.57,11.76-1.09,18.61.76,10.81-7,31.91-8.34,42.67-1.55,12.18.32,14,0,26.29-.21,8.38,8,11.28,13.72,6.59,3.11-2.56,7.8-3.07,11.24-11.56C93,173.72,94.84,150,94.12,142Z"/><path class="cls-12" d="M79,76.85c1-2.32,6.15-1.08,8.12,2,2.33,3.61,2.26,11,2.26,11L77.94,87.51S77.57,80.32,79,76.85Z"/><path class="cls-3" d="M179.1,117.56c-.52-4.94-2.81-9.14-5-13.62-1.11-2.27-2.09-5.33-4.6-4-.23.11-3.08,2-3.28,3.82a86.22,86.22,0,0,0,0,8.81c-2.5,3.61-6.39,6.63-8.6,10.56a11.52,11.52,0,0,0-.6,10.46c1.13,2.39,2.95,4,6.21,2,4.13-2.5,7.6-6.2,10.87-9.69C176.94,122.82,179.56,122,179.1,117.56Z"/><path class="cls-4" d="M166.22,105.83v6.72l1.58-2.21-.16-6A15.57,15.57,0,0,1,166.22,105.83Z"/><path class="cls-12" d="M166,121.29a19.43,19.43,0,0,0-5.67,5.47c-1.87,3-.38,3.58.55,6.16a25.08,25.08,0,0,1,.8,3.36,24.59,24.59,0,0,0,7.86-5.71C171.21,128.7,168.81,123.4,166,121.29Z"/><path class="cls-3" d="M180.47,93.42c-.56-5.38-3.06-10-5.44-14.82-1.21-2.47-2.27-5.8-5-4.38-.25.13-3.35,2.18-3.57,4.16a95.78,95.78,0,0,0,0,9.59c-2.72,3.92-7,7.21-9.36,11.49a12.53,12.53,0,0,0-.65,11.38c1.22,2.61,3.2,4.3,6.76,2.15,4.49-2.71,8.26-6.74,11.82-10.54C178.12,99.14,181,98.2,180.47,93.42Z"/><path class="cls-4" d="M166.46,80.66V88l1.71-2.4L168,79A16,16,0,0,1,166.46,80.66Z"/><path class="cls-12" d="M166.25,97.48a21.1,21.1,0,0,0-6.17,6c-2,3.24-.41,3.9.61,6.71a27.83,27.83,0,0,1,.86,3.65,26.69,26.69,0,0,0,8.55-6.22C171.88,105.55,169.27,99.78,166.25,97.48Z"/><path class="cls-3" d="M180.92,64.53c-.59-5.57-3.17-10.3-5.64-15.35-1.25-2.55-2.35-6-5.18-4.53-.25.13-3.47,2.26-3.7,4.31-.33,3,0,6.54,0,9.93-2.81,4.06-7.2,7.47-9.69,11.9A13,13,0,0,0,156,82.57c1.26,2.7,3.32,4.46,7,2.23,4.65-2.81,8.56-7,12.24-10.92C178.48,70.46,181.44,69.48,180.92,64.53Z"/><path class="cls-4" d="M166.4,51.31v7.57l1.78-2.48L168,49.61A16.18,16.18,0,0,1,166.4,51.31Z"/><path class="cls-12" d="M166.19,68.74a21.8,21.8,0,0,0-6.39,6.16c-2.11,3.36-.43,4,.63,6.95a30.42,30.42,0,0,1,.9,3.78,27.61,27.61,0,0,0,8.84-6.44C172,77.09,169.32,71.11,166.19,68.74Z"/></svg>