<svg id="Layer_1" data-name="Layer 1" xmlns="http://www.w3.org/2000/svg" viewBox="0 0 1000 1000"><defs><style>.cls-1{fill:#ca6b3b;}.cls-2{fill:#fff;}.cls-3{fill:#b3502f;}.cls-4{fill:#a14126;}.cls-5{fill:#3f2a28;}.cls-6{fill:#5b4140;}.cls-7{fill:#4f3636;}.cls-8{fill:#725454;}.cls-9{fill:#a568af;}.cls-10{fill:#bebfba;}.cls-11,.cls-13{fill:#f3f5f2;}.cls-12{fill:#dce0da;}.cls-13{opacity:0.5;}.cls-14{fill:#f8fcff;}.cls-15{fill:#caccc6;}</style></defs><title>icon_person</title><polygon class="cls-1" points="1000 518.11 499.17 807.26 0 518.08 500.83 228.92 1000 518.11"/><polygon class="cls-2" points="503.98 257.69 52.97 518.08 502.49 778.5 953.5 518.11 503.98 257.69"/><polygon class="cls-3" points="0 518.08 0 576.73 499.17 865.91 499.17 807.26 0 518.08"/><polygon class="cls-4" points="1000 518.11 1000 576.76 499.17 865.91 499.17 807.26 1000 518.11"/><polygon class="cls-4" points="503.83 257.69 447.46 290.23 503.65 322.78 560.02 290.24 503.83 257.69"/><polygon class="cls-4" points="503.64 322.78 447.26 355.33 503.45 387.88 559.82 355.33 503.64 322.78"/><polygon class="cls-4" points="503.83 387.88 447.46 420.43 503.65 452.98 560.02 420.43 503.83 387.88"/><polygon class="cls-4" points="503.64 452.98 447.26 485.52 503.45 518.08 559.82 485.53 503.64 452.98"/><polygon class="cls-4" points="503.83 518.11 447.46 550.66 503.65 583.21 560.02 550.66 503.83 518.11"/><polygon class="cls-4" points="503.64 583.21 447.26 615.75 503.45 648.3 559.82 615.76 503.64 583.21"/><polygon class="cls-4" points="503.83 648.3 447.46 680.85 503.65 713.4 560.02 680.86 503.83 648.3"/><polygon class="cls-4" points="503.64 713.4 447.26 745.95 503.45 778.5 559.82 745.95 503.64 713.4"/><polygon class="cls-4" points="391.08 322.78 334.7 355.33 390.89 387.88 447.26 355.33 391.08 322.78"/><polygon class="cls-4" points="391.28 387.88 334.9 420.43 391.09 452.98 447.46 420.43 391.28 387.88"/><polygon class="cls-4" points="391.08 452.98 334.7 485.52 390.89 518.08 447.26 485.53 391.08 452.98"/><polygon class="cls-4" points="391.28 518.11 334.9 550.66 391.09 583.21 447.46 550.66 391.28 518.11"/><polygon class="cls-4" points="391.08 583.21 334.7 615.75 390.89 648.3 447.26 615.76 391.08 583.21"/><polygon class="cls-4" points="391.28 648.3 334.9 680.85 391.09 713.4 447.46 680.86 391.28 648.3"/><polygon class="cls-4" points="616.39 322.78 560.02 355.33 616.21 387.88 672.58 355.33 616.39 322.78"/><polygon class="cls-4" points="616.6 387.88 560.22 420.43 616.41 452.98 672.78 420.43 616.6 387.88"/><polygon class="cls-4" points="616.39 452.98 560.02 485.52 616.21 518.08 672.58 485.53 616.39 452.98"/><polygon class="cls-4" points="616.6 518.11 560.22 550.66 616.41 583.21 672.78 550.66 616.6 518.11"/><polygon class="cls-4" points="616.39 583.21 560.02 615.75 616.21 648.3 672.58 615.76 616.39 583.21"/><polygon class="cls-4" points="616.6 648.3 560.22 680.85 616.41 713.4 672.78 680.86 616.6 648.3"/><polygon class="cls-4" points="278.72 387.88 222.34 420.43 278.53 452.98 334.9 420.43 278.72 387.88"/><polygon class="cls-4" points="278.52 452.98 222.14 485.52 278.33 518.08 334.7 485.53 278.52 452.98"/><polygon class="cls-4" points="278.72 518.11 222.34 550.66 278.53 583.21 334.9 550.66 278.72 518.11"/><polygon class="cls-4" points="278.52 583.21 222.14 615.75 278.33 648.3 334.7 615.76 278.52 583.21"/><polygon class="cls-4" points="729.15 387.88 672.78 420.43 728.97 452.98 785.34 420.43 729.15 387.88"/><polygon class="cls-4" points="728.96 452.98 672.58 485.52 728.77 518.08 785.14 485.53 728.96 452.98"/><polygon class="cls-4" points="729.15 518.11 672.78 550.66 728.97 583.21 785.34 550.66 729.15 518.11"/><polygon class="cls-4" points="728.96 583.21 672.58 615.75 728.77 648.3 785.14 615.76 728.96 583.21"/><polygon class="cls-4" points="165.96 452.98 109.58 485.52 165.77 518.08 222.14 485.53 165.96 452.98"/><polygon class="cls-4" points="166.16 518.11 109.78 550.66 165.97 583.21 222.34 550.66 166.16 518.11"/><polygon class="cls-4" points="841.51 452.98 785.14 485.52 841.33 518.08 897.7 485.53 841.51 452.98"/><polygon class="cls-4" points="841.72 518.11 785.34 550.66 841.53 583.21 897.9 550.66 841.72 518.11"/><path class="cls-5" d="M538.88,280.45v9.92c0,10.93-15.73,19.78-35.14,19.78s-35.14-8.85-35.14-19.78v-9.92Z"/><path class="cls-6" d="M468.6,280.45c0,10.92,15.74,19.77,35.15,19.77s35.13-8.85,35.13-19.77-15.73-19.78-35.13-19.78S468.6,269.52,468.6,280.45Z"/><path class="cls-6" d="M479.3,274.55c0,7.66,11,13.87,24.65,13.87s24.65-6.21,24.65-13.87-11-13.88-24.65-13.88S479.3,266.88,479.3,274.55Z"/><path class="cls-6" d="M485.67,180.14c0,5.68,8.19,10.28,18.28,10.28s18.27-4.6,18.27-10.28S514,169.85,504,169.85,485.67,174.46,485.67,180.14Z"/><path class="cls-6" d="M485.67,180.47s2.12,34.27,0,60.25c-2.52,31-6.37,33.83-6.37,33.83l31.83,2.31-3.84-98.63Z"/><path class="cls-6" d="M522.22,240.72c-2.11-26,0-60.25,0-60.25l-21.61-2.24-3.85,98.63,31.84-2.31S524.75,271.72,522.22,240.72Z"/><path class="cls-5" d="M526.21,268.67c-1.26-4.7-2.77-13.05-4-28-2.11-26,0-60.25,0-60.25h-.06c0-.11.06-.22.06-.33,0-5.69-8.18-10.29-18.27-10.29s-18.28,4.6-18.28,10.29c0,.11.06.22.06.33h-.06s2.12,34.27,0,60.25c-1.21,14.9-2.72,23.25-4,28a9.21,9.21,0,0,0-2.4,5.88c0,7.66,11,13.87,24.66,13.87s24.65-6.21,24.65-13.87A9.2,9.2,0,0,0,526.21,268.67Z"/><path class="cls-7" d="M482.19,275.76c7.93-12.64,9.59-26,10.43-40.74,1.2-21-.7-43.08,2.88-64-5.82,1.72-9.83,5.11-9.83,9.07,0,.11.06.22.06.33h-.06s2.12,34.27,0,60.25c-1.21,14.9-2.72,23.25-4,28a9.21,9.21,0,0,0-2.4,5.88,8.38,8.38,0,0,0,1.17,4Z"/><path class="cls-7" d="M477.36,177.66c0,8.2,11.81,14.84,26.38,14.84s26.38-6.64,26.38-14.84-11.81-14.85-26.38-14.85S477.36,169.45,477.36,177.66Z"/><rect class="cls-7" x="477.36" y="148.94" width="52.76" height="28.72"/><path class="cls-8" d="M477.36,148.94c0,8.2,11.81,14.84,26.38,14.84s26.38-6.64,26.38-14.84-11.81-14.85-26.38-14.85S477.36,140.73,477.36,148.94Z"/><path class="cls-5" d="M519.4,155.41c2.67-1.79,4.32-4,4.32-6.47,0-5.79-8.85-10.49-19.78-10.49s-19.78,4.7-19.78,10.49c0,2.45,1.66,4.68,4.33,6.47,3.62-2.43,9.16-4,15.45-4S515.78,153,519.4,155.41Z"/><path class="cls-6" d="M519.4,155.41c-3.62-2.43-9.16-4-15.46-4s-11.83,1.59-15.45,4c3.62,2.42,9.16,4,15.45,4S515.78,157.83,519.4,155.41Z"/><path class="cls-5" d="M595.62,312.79v9.93c0,10.93-15.74,19.78-35.15,19.78s-35.14-8.85-35.14-19.78v-9.93Z"/><path class="cls-6" d="M525.33,312.79c0,10.93,15.74,19.78,35.15,19.78s35.14-8.85,35.14-19.78S579.88,293,560.48,293,525.33,301.87,525.33,312.79Z"/><path class="cls-8" d="M533.4,308.36c0,8.41,12.12,15.23,27.08,15.23s27.07-6.82,27.07-15.23-12.12-15.24-27.07-15.24S533.4,299.94,533.4,308.36Z"/><path class="cls-5" d="M583.14,204.86a71.35,71.35,0,0,0-1.55-14.72l7.11-9.09-20.24-11.5,0,0c-7.54-4.35-17.1-4.3-26.66-1.84-8,2.05-9.17,1.76-13.36,2.52-.15,4.49.24,9.56,2.74,11.55-7,6-14.4,15.26-14.52,23.39,0,1.83-9.65,16.6-14.22,21.59-5.14,5.6-.9,17.28,2.39,18.27L525.4,256.8l14.18-27.74-5.7-2.75a21,21,0,0,0,3.29-8c7.36,9-2.22,23.55-8,34.43-4.32,8.07-7.41,16.47-8.13,24.85-1.62,18.74,3.94,25.56,13.83,33.25l20.61,11.73,12.39-21.46-6.26-5.71,3.16-1.82C565.54,269.17,583.4,237.15,583.14,204.86Z"/><path class="cls-7" d="M533.41,241.13c-.6-4.61.85-9.15,3.31-13.45l-2.84-1.37a21,21,0,0,0,3.29-8,11.64,11.64,0,0,1,2.37,5.09c4.09-5.58,9.37-10.63,13.29-14.71,10.14-10.55,21.47-20,32.8-29.35l-17.17-9.76,0,0c-7.54-4.35-17.11-4.3-26.66-1.84-8,2.05-9.17,1.76-13.36,2.52-.15,4.49.24,9.56,2.74,11.55-7,6-14.4,15.26-14.52,23.39,0,1.83-9.65,16.6-14.22,21.59-5.14,5.6-.9,17.28,2.39,18.27L525.4,256.8Z"/><path class="cls-7" d="M564.72,293.55c.25-7.46,1.12-12,3.56-20.7C563,270.36,535.7,258,528.76,253.46c-4.12,7.84-7.07,16-7.77,24.1-1.62,18.74,3.94,25.56,13.83,33.25l20.61,11.73,12.39-21.46-6.26-5.71Z"/><path class="cls-8" d="M588.7,181.05l-20.24-11.5,0,0c-7.54-4.35-17.1-4.3-26.66-1.84-8,2.05-9.17,1.76-13.36,2.52L549,182l33.65,14.79a64.27,64.27,0,0,0-1.07-6.65Z"/><path class="cls-6" d="M549.74,264.44c-4.33,8.07-7.42,16.47-8.14,24.85-1.62,18.74,3.95,25.56,13.83,33.25l29.91-17.27c.81-24.37,18.67-56.39,18.41-88.68-.3-36.86-20.93-42.38-41.37-37.11-8,2.05-9.18,1.76-13.37,2.52-.14,4.48.24,9.56,2.74,11.55-7,6-14.4,15.26-14.51,23.39,0,1.83-9.66,16.6-14.23,21.59-5.14,5.6-.9,17.28,2.39,18.27,2.48.75,6.13-3.1,8.86-6,4.28-3.1,8.31-3.11,14.19-6.89A20.79,20.79,0,0,0,557.78,230C565.14,239,555.56,253.56,549.74,264.44Z"/><path class="cls-5" d="M651.64,347.42v9.93c0,10.93-15.73,19.78-35.14,19.78s-35.14-8.85-35.14-19.78v-9.93Z"/><path class="cls-6" d="M581.36,347.42c0,10.93,15.73,19.78,35.15,19.78s35.13-8.85,35.13-19.78-15.73-19.77-35.13-19.77S581.36,336.5,581.36,347.42Z"/><path class="cls-5" d="M641.16,342.25h0a9.18,9.18,0,0,0-2.4-5.88c-1.25-4.69-2.77-13.05-4-27.94-2.12-26,0-60.25,0-60.25h-.06c0-.11.06-.21.06-.33,0-5.68-8.18-10.28-18.28-10.28s-18.27,4.6-18.27,10.28a3.23,3.23,0,0,0,.06.33h-.06s2.11,34.26,0,60.25c-1.21,14.89-2.73,23.25-4,27.94a9.18,9.18,0,0,0-2.4,5.88h0c0,7.67,11,13.88,24.65,13.88s24.66-6.21,24.66-13.88Z"/><path class="cls-7" d="M600.78,332.57c4.88-12.66,4.87-24.95,5.32-38.38.6-17.95,1-36.36.5-54.42-5.45,1.78-8.37,4.27-8.37,8.07a3.23,3.23,0,0,0,.06.33h-.06s2.11,34.26,0,60.25c-1.21,14.89-2.73,23.25-4,27.94a9.18,9.18,0,0,0-2.4,5.88h0a8.6,8.6,0,0,0,1.4,4.43C595.73,342,598.83,337.61,600.78,332.57Z"/><path class="cls-6" d="M636.51,244.89c-3.92-4-11.45-6.83-20.21-6.83s-16.29,2.78-20.2,6.83h-2.89v6.17c0,7.18,10.34,13,23.09,13s23.1-5.82,23.1-13v-6.17Z"/><path class="cls-8" d="M593.21,245.26c0,7.18,10.34,13,23.09,13s23.1-5.82,23.1-13-10.34-13-23.1-13S593.21,238.08,593.21,245.26Z"/><path class="cls-7" d="M630.57,209.71c-8-13.8-14-31.83-14-31.83s-6.06,18-14.08,31.83c-7.71,13.3-9.32,25.51-.83,33.5a15.5,15.5,0,0,0,1.41,1.13h0c.43.32.86.62,1.29.88a25.18,25.18,0,0,0,24.06.14,14.43,14.43,0,0,0,3-2.16C639.9,235.22,638.28,223,630.57,209.71Z"/><path class="cls-5" d="M630.57,209.71a167.14,167.14,0,0,1-9.56-20c1.48,9.83,3.72,19.56,3.46,29.42-.17,6.76-2.48,14.29-8.65,17.86-7.39,4.27-15.31,1-19.69-5a17.46,17.46,0,0,0,5.52,11.18,15.5,15.5,0,0,0,1.41,1.13h0c.43.32.86.62,1.29.88a25.18,25.18,0,0,0,24.06.14,14.43,14.43,0,0,0,3-2.16C639.9,235.22,638.28,223,630.57,209.71Z"/><path class="cls-6" d="M625.44,179a9.19,9.19,0,1,1-9.19-9.19A9.18,9.18,0,0,1,625.44,179Z"/><path class="cls-8" d="M617.85,172.94c1.5,1.89.79,4.94-1.57,6.8s-5.49,1.86-7,0-.79-4.93,1.57-6.8S616.36,171.06,617.85,172.94Z"/><path class="cls-9" d="M614.72,173.67a2.83,2.83,0,1,1-3.53,0A2.54,2.54,0,0,1,614.72,173.67Z"/><path class="cls-5" d="M707.72,379.49v9.93c0,10.92-15.73,19.78-35.14,19.78s-35.14-8.86-35.14-19.78v-9.93Z"/><path class="cls-6" d="M637.44,379.49c0,10.93,15.73,19.78,35.14,19.78s35.14-8.85,35.14-19.78S692,359.72,672.58,359.72,637.44,368.57,637.44,379.49Z"/><path class="cls-5" d="M696.9,373.9h0a9.29,9.29,0,0,0-2.4-5.88c-1.25-4.69-2.77-13-4-27.94-2.11-26,0-96.93,0-96.93h0c0-.11.06-.22.06-.33,0-5.68-8.19-10.29-18.28-10.29S654,237.13,654,242.81c0,.11,0,.22.06.33H654s2.11,71,0,96.93c-1.22,14.9-2.73,23.25-4,27.94a9.24,9.24,0,0,0-2.39,5.88h0c0,7.67,11,13.88,24.65,13.88s24.66-6.21,24.66-13.88Z"/><path class="cls-7" d="M657.3,361.11c3.08-17.39,3-35.73,3.48-57.07.64-25.78.35-48.74.35-70.71-7,1.45-7.16,4.78-7.16,9.2a3.23,3.23,0,0,0,.06.33H654s2.11,70.95,0,96.93c-1.22,14.9-2.73,23.25-4,27.95a9.22,9.22,0,0,0-2.39,5.88h0a9.1,9.1,0,0,0,2.17,5.65C651.1,374,655.41,371.76,657.3,361.11Z"/><path class="cls-6" d="M694.9,239.68c-4.29-4.43-12.53-7.47-22.12-7.47s-17.83,3-22.11,7.47H647.5v6.76c0,7.86,11.32,14.23,25.28,14.23s25.28-6.37,25.28-14.23v-6.76Z"/><path class="cls-8" d="M647.5,240.09c0,7.86,11.32,14.23,25.28,14.23s25.28-6.37,25.28-14.23-11.32-14.23-25.28-14.23S647.5,232.23,647.5,240.09Z"/><path class="cls-5" d="M690.63,213.12c5.62-8.64,9.92-13,9.92-18.45l-23.88-6,.07-2-4,1-3.95-1,.06,2-23.88,6c0,5.49,4.3,9.81,9.92,18.45,3.47,5.34,2.59,22,2.59,22,0,4.74,6.83,8.59,15.26,8.59S688,239.84,688,235.1h0S687.17,218.45,690.63,213.12Z"/><path class="cls-7" d="M660,207.85c-2.78-5.45-5.84-9.74-7.23-15.13L645,194.67c0,5.49,4.3,9.81,9.92,18.45,3.47,5.34,2.59,22,2.59,22,0,3.1,2.94,5.79,7.3,7.3C666.16,231.29,664.67,216.93,660,207.85Z"/><path class="cls-8" d="M645,194.67c0,8.63,12.43,15.63,27.77,15.63s27.77-7,27.77-15.63S688.12,179,672.78,179,645,186,645,194.67Z"/><path class="cls-7" d="M654.85,190.42c0,5.58,8,10.09,17.93,10.09s17.93-4.51,17.93-10.09-8-10.09-17.93-10.09S654.85,184.85,654.85,190.42Z"/><polygon class="cls-5" points="689.27 187.49 681.47 192.17 663.7 172.73 663.7 156.68 689.27 171.44 689.27 187.49"/><polygon class="cls-5" points="680.73 187.19 672.24 182.29 672.24 151.54 676.49 148.94 680.73 156.45 680.73 187.19"/><path class="cls-5" d="M685.84,191.66c0-6.88-4.21-14.82-9.36-17.79s-9.31.16-9.35,7Z"/><polygon class="cls-5" points="685.84 191.66 678.04 196.33 674.71 187.83 683.07 183.93 685.84 191.66"/><path class="cls-8" d="M681.47,176.12l-8.55-4.94V161.12l-4.24-7.51-4.24,2.61v10.06l-8.55-4.93V177.4l4.73,2.73a10.82,10.82,0,0,0-1.3,5.39L678,196.33a21.85,21.85,0,0,0-1.3-6.89l4.73,2.73Z"/><path class="cls-7" d="M681.47,176.12l-8.55-4.94V161.12l-4.24-7.51-4.24,2.61v10.06l-8.55-4.93V177.4l4.73,2.73a10.82,10.82,0,0,0-1.3,5.39L678,196.33a21.85,21.85,0,0,0-1.3-6.89l4.73,2.73Z"/><polygon class="cls-8" points="668.68 153.61 676.49 148.94 680.73 156.45 672.92 161.12 668.68 153.61"/><polygon class="cls-8" points="663.7 156.68 655.89 161.35 664.44 166.28 664.44 157.1 663.7 156.68"/><polygon class="cls-8" points="680.73 166.51 672.92 171.18 681.47 176.12 689.27 171.44 680.73 166.51"/><path class="cls-5" d="M764,410.07V420c0,10.92-15.73,19.78-35.14,19.78s-35.14-8.86-35.14-19.78v-9.93Z"/><path class="cls-6" d="M693.72,410.07c0,10.93,15.73,19.78,35.14,19.78S764,421,764,410.07s-15.73-19.77-35.14-19.77S693.72,399.15,693.72,410.07Z"/><path class="cls-5" d="M753.17,404.48h0a9.24,9.24,0,0,0-2.39-5.88c-1.26-4.69-2.77-13-4-27.94-2.12-26,0-96.93,0-96.93h-.06c0-.11.06-.22.06-.33,0-5.68-8.19-10.29-18.28-10.29s-18.27,4.61-18.27,10.29c0,.11,0,.22.06.33h-.06s2.11,70.95,0,96.93c-1.22,14.9-2.73,23.25-4,27.94a9.24,9.24,0,0,0-2.39,5.88h0c0,7.67,11,13.88,24.65,13.88s24.65-6.21,24.65-13.88Z"/><path class="cls-7" d="M713.58,391.69c3.08-17.39,2.95-35.73,3.48-57.07.64-25.78.35-48.74.35-70.71-6.95,1.45-7.16,4.78-7.16,9.2a3.23,3.23,0,0,0,.06.33h-.06s2.11,70.95,0,96.93c-1.22,14.9-2.73,23.25-4,27.95a9.22,9.22,0,0,0-2.39,5.88h0a9.1,9.1,0,0,0,2.17,5.65C707.38,404.55,711.69,402.34,713.58,391.69Z"/><path class="cls-6" d="M751.18,270.26c-4.29-4.43-12.53-7.47-22.12-7.47s-17.83,3-22.11,7.47h-3.17V277c0,7.86,11.32,14.23,25.28,14.23s25.28-6.37,25.28-14.23v-6.76Z"/><path class="cls-8" d="M703.78,270.67c0,7.86,11.32,14.23,25.28,14.23s25.28-6.37,25.28-14.23S743,256.44,729.06,256.44,703.78,262.81,703.78,270.67Z"/><path class="cls-8" d="M746.92,222.89a18.4,18.4,0,0,0-7.61,1.74,86.86,86.86,0,0,0-4.39-8.49,25.62,25.62,0,0,0-5.86-6.41,25.83,25.83,0,0,0-5.86,6.41,88.27,88.27,0,0,0-4.38,8.49,18.4,18.4,0,0,0-7.61-1.74,21.26,21.26,0,0,0-6.87.75,33,33,0,0,1,5.81,7.47c2.52,4.47,4.84,16.15,4.66,16.67s10.51-6.55,13.47-8.49c3.32,2,15.2,8.93,15,8.49s1.75-11.47,4.27-15.94a44.55,44.55,0,0,1,6.2-8.2A21.26,21.26,0,0,0,746.92,222.89Z"/><path class="cls-6" d="M714.71,232.26a46.38,46.38,0,0,0-3.5-4.81,13.12,13.12,0,0,0-4.26-3.13s6.67-.79,9.5,1.54S714.71,232.26,714.71,232.26Z"/><path class="cls-6" d="M743.58,232.26a46.38,46.38,0,0,1,3.5-4.81,13.12,13.12,0,0,1,4.26-3.13s-6.67-.79-9.5,1.54S743.58,232.26,743.58,232.26Z"/><path class="cls-7" d="M747.59,235.28a17.72,17.72,0,1,1-17.72-17.72A17.72,17.72,0,0,1,747.59,235.28Z"/><path class="cls-8" d="M723.3,235.12a9.36,9.36,0,0,1,11.5-.09c6.27,4.42-7.31,7.37-7.31,7.37Z"/><path class="cls-5" d="M746.91,242.4a63.55,63.55,0,0,1,6.88-18.76,78.12,78.12,0,0,0-8.17,8.57,50.2,50.2,0,0,0-5.51,9.21A14.93,14.93,0,0,0,734.8,235c-3.35-2.2-5.74,2.53-5.74,2.53s-2.66-4.23-5.76-2.44c-3.47,2-5.28,6.3-5.28,6.3s-2.68-4.82-5.52-9.21a42.21,42.21,0,0,0-8.16-8.57,63.7,63.7,0,0,1,6.87,18.76c1.92,10.42,1.29,25.18,1.29,25.18,0,5.14,7.42,9.32,16.56,9.32s16.56-4.18,16.56-9.32h0S745,252.81,746.91,242.4Z"/><path class="cls-7" d="M717.82,241.07c-.65-1.15-2.91-5.15-5.32-8.86a42.21,42.21,0,0,0-8.16-8.57,63.7,63.7,0,0,1,6.87,18.76c1.92,10.42,1.29,25.18,1.29,25.18,0,2.69,2.07,5.1,5.32,6.8Z"/><circle class="cls-6" cx="728.52" cy="214.46" r="9.19"/><path class="cls-8" d="M730.12,208.36c1.49,1.89.79,4.93-1.58,6.8s-5.48,1.86-7,0-.79-4.93,1.57-6.8S728.63,206.48,730.12,208.36Z"/><path class="cls-9" d="M727,209.09a2.82,2.82,0,1,1-3.52,0A2.53,2.53,0,0,1,727,209.09Z"/><path class="cls-8" d="M711.21,230.42l1.29-1.36s1.94,2.59,3.22,4.78,3.44,5.49,3.44,5.49L718,241.42s-1.81-3.25-3.34-5.73S711.21,230.42,711.21,230.42Z"/><path class="cls-8" d="M747,230.42l-.32-2.49s-2.9,3.72-4.18,5.91-3.44,5.49-3.44,5.49l1.14,2.09s1.81-3.25,3.34-5.73S747,230.42,747,230.42Z"/><path class="cls-5" d="M820.28,444v9.93c0,10.92-15.73,19.78-35.14,19.78S750,464.8,750,453.88V444Z"/><path class="cls-6" d="M750,444c0,10.93,15.73,19.78,35.14,19.78s35.14-8.85,35.14-19.78-15.73-19.78-35.14-19.78S750,433,750,444Z"/><path class="cls-5" d="M809.8,438.78h0a9.18,9.18,0,0,0-2.4-5.88c-1.25-4.7-2.77-13-4-27.95-2.12-26,0-60.24,0-60.24h-.06c0-.11.06-.22.06-.33,0-5.68-8.19-10.28-18.28-10.28s-18.27,4.6-18.27,10.28c0,.11,0,.22.06.33h-.06S769,379,766.87,405c-1.21,14.9-2.73,23.25-4,27.95a9.18,9.18,0,0,0-2.4,5.88h0c0,7.66,11,13.88,24.65,13.88s24.66-6.22,24.66-13.88Z"/><path class="cls-7" d="M769.42,429.09c4.87-12.65,4.87-24.94,5.32-38.37.6-18,1-36.37.5-54.42-5.46,1.78-8.37,4.27-8.37,8.07,0,.11,0,.22.06.33h-.06S769,379,766.87,405c-1.21,14.9-2.73,23.25-4,27.95a9.18,9.18,0,0,0-2.4,5.88h0a8.63,8.63,0,0,0,1.4,4.43C764.37,438.54,767.47,434.13,769.42,429.09Z"/><path class="cls-6" d="M803.39,340.32c-3.57-3.7-10.45-6.23-18.45-6.23s-14.87,2.53-18.45,6.23h-2.64V346c0,6.55,9.44,11.87,21.09,11.87S806,352.51,806,346v-5.64Z"/><path class="cls-8" d="M763.85,340.66c0,6.55,9.45,11.87,21.09,11.87S806,347.21,806,340.66s-9.44-11.87-21.09-11.87S763.85,334.1,763.85,340.66Z"/><path class="cls-7" d="M799.21,306.24c-8-13.81-14-31.84-14-31.84s-6.06,18-14.08,31.84c-7.71,13.29-9.32,25.51-.83,33.5a13.81,13.81,0,0,0,1.41,1.12v0a13.91,13.91,0,0,0,1.29.87,25.15,25.15,0,0,0,24.06.15,14.81,14.81,0,0,0,3-2.16C808.54,331.75,806.92,319.53,799.21,306.24Z"/><path class="cls-5" d="M799.21,306.24a167.87,167.87,0,0,1-9.56-20c1.48,9.83,3.71,19.56,3.46,29.42-.17,6.76-2.48,14.29-8.65,17.85-7.39,4.28-15.31,1-19.7-5a17.56,17.56,0,0,0,5.53,11.18,13.81,13.81,0,0,0,1.41,1.12v0a13.91,13.91,0,0,0,1.29.87,25.15,25.15,0,0,0,24.06.15,14.81,14.81,0,0,0,3-2.16C808.54,331.75,806.92,319.53,799.21,306.24Z"/><path class="cls-6" d="M794.08,275.56a9.19,9.19,0,1,1-9.19-9.18A9.18,9.18,0,0,1,794.08,275.56Z"/><path class="cls-8" d="M786.49,269.47c1.5,1.89.79,4.93-1.57,6.8s-5.49,1.86-7,0-.79-4.93,1.57-6.8S785,267.59,786.49,269.47Z"/><path class="cls-9" d="M783.36,270.2a2.83,2.83,0,1,1-3.53,0A2.54,2.54,0,0,1,783.36,270.2Z"/><path class="cls-5" d="M875.69,477.16v9.93c0,10.92-15.73,19.78-35.14,19.78s-35.14-8.86-35.14-19.78v-9.93Z"/><path class="cls-6" d="M805.41,477.16c0,10.93,15.73,19.78,35.14,19.78s35.14-8.85,35.14-19.78S860,457.38,840.55,457.38,805.41,466.24,805.41,477.16Z"/><path class="cls-8" d="M813.47,472.72c0,8.42,12.13,15.24,27.08,15.24s27.07-6.82,27.07-15.24-12.12-15.23-27.07-15.23S813.47,464.31,813.47,472.72Z"/><path class="cls-5" d="M863.21,369.22a71.38,71.38,0,0,0-1.54-14.71l7.1-9.09-20.24-11.5,0,0c-7.54-4.34-17.1-4.29-26.65-1.84-8,2.06-9.18,1.77-13.37,2.52-.14,4.49.24,9.57,2.75,11.55-7.05,6-14.41,15.27-14.52,23.4,0,1.83-9.65,16.6-14.23,21.59-5.14,5.6-.9,17.27,2.39,18.27l20.61,11.72,14.19-27.73L814,390.68a21,21,0,0,0,3.29-8c7.37,9-2.22,23.55-8,34.43-4.32,8.07-7.42,16.47-8.14,24.85-1.61,18.74,4,25.56,13.83,33.25l20.62,11.73,12.38-21.46-6.26-5.71,3.17-1.83C845.62,433.54,863.47,401.52,863.21,369.22Z"/><path class="cls-7" d="M813.49,405.5c-.61-4.61.84-9.15,3.3-13.45L814,390.68a21,21,0,0,0,3.29-8,11.5,11.5,0,0,1,2.37,5.08c4.09-5.58,9.37-10.62,13.3-14.7,10.14-10.55,21.46-20,32.79-29.35l-17.17-9.76,0,0c-7.54-4.34-17.1-4.3-26.65-1.84-8,2.06-9.18,1.77-13.37,2.52-.14,4.49.24,9.57,2.75,11.55-7.05,6-14.41,15.27-14.52,23.4,0,1.83-9.66,16.6-14.23,21.59-5.14,5.6-.9,17.27,2.39,18.27l20.61,11.72Z"/><path class="cls-7" d="M844.8,457.91c.25-7.45,1.12-12,3.55-20.7-5.33-2.48-32.57-14.85-39.52-19.38-4.12,7.84-7.07,16-7.77,24.1-1.61,18.74,4,25.56,13.83,33.25l20.62,11.73,12.38-21.46-6.26-5.71Z"/><path class="cls-8" d="M868.77,345.42l-20.24-11.5,0,0c-7.54-4.34-17.1-4.29-26.65-1.84-8,2.06-9.18,1.77-13.37,2.52l20.62,11.73,33.65,14.8a63.84,63.84,0,0,0-1.07-6.65Z"/><path class="cls-6" d="M829.81,428.8c-4.32,8.08-7.41,16.48-8.14,24.86-1.61,18.74,4,25.56,13.84,33.25l29.9-17.27c.82-24.37,18.67-56.39,18.41-88.69-.29-36.85-20.93-42.37-41.37-37.11-8,2.06-9.18,1.77-13.36,2.52-.15,4.49.23,9.57,2.74,11.55-7.05,6-14.41,15.27-14.52,23.39,0,1.84-9.65,16.61-14.23,21.6-5.14,5.6-.9,17.27,2.39,18.26,2.49.75,6.13-3.09,8.86-6,4.28-3.1,8.32-3.11,14.2-6.9a20.75,20.75,0,0,0,9.32-13.91C845.22,403.38,835.64,417.93,829.81,428.8Z"/><path class="cls-5" d="M933,507.51v9.93c0,10.93-15.73,19.78-35.14,19.78s-35.14-8.85-35.14-19.78v-9.93Z"/><path class="cls-6" d="M862.76,507.51c0,10.93,15.73,19.78,35.14,19.78S933,518.44,933,507.51s-15.73-19.77-35.14-19.77S862.76,496.59,862.76,507.51Z"/><path class="cls-6" d="M873.45,501.61c0,7.67,11,13.88,24.66,13.88s24.65-6.21,24.65-13.88-11-13.87-24.65-13.87S873.45,494,873.45,501.61Z"/><path class="cls-6" d="M879.83,407.2c0,5.68,8.18,10.29,18.28,10.29s18.27-4.61,18.27-10.29-8.18-10.28-18.27-10.28S879.83,401.52,879.83,407.2Z"/><path class="cls-6" d="M879.83,407.54s2.12,34.26,0,60.24c-2.52,31-6.38,33.83-6.38,33.83l31.84,2.32-3.84-98.63Z"/><path class="cls-6" d="M916.38,467.78c-2.11-26,0-60.24,0-60.24l-21.62-2.24-3.84,98.63,31.84-2.32S918.9,498.79,916.38,467.78Z"/><path class="cls-5" d="M920.36,495.73c-1.25-4.69-2.77-13-4-28-2.11-26,0-60.24,0-60.24h-.06a3.23,3.23,0,0,0,.06-.33c0-5.68-8.18-10.28-18.27-10.28s-18.28,4.6-18.28,10.28c0,.12.06.22.06.33h-.06s2.12,34.26,0,60.24c-1.21,14.91-2.73,23.26-4,28a9.18,9.18,0,0,0-2.4,5.88c0,7.67,11,13.88,24.66,13.88s24.65-6.21,24.65-13.88A9.18,9.18,0,0,0,920.36,495.73Z"/><path class="cls-7" d="M876.35,502.83c7.93-12.64,9.59-26,10.43-40.74,1.2-21-.71-43.08,2.88-64-5.82,1.73-9.83,5.12-9.83,9.07,0,.12.06.22.06.33h-.06s2.12,34.26,0,60.24c-1.21,14.91-2.73,23.26-4,28a9.18,9.18,0,0,0-2.4,5.88,8.42,8.42,0,0,0,1.17,4Z"/><path class="cls-7" d="M871.52,404.72c0,8.2,11.81,14.85,26.38,14.85s26.38-6.65,26.38-14.85-11.81-14.84-26.38-14.84S871.52,396.52,871.52,404.72Z"/><rect class="cls-7" x="871.52" y="376" width="52.76" height="28.72"/><path class="cls-8" d="M871.52,376c0,8.2,11.81,14.85,26.38,14.85s26.38-6.65,26.38-14.85-11.81-14.84-26.38-14.84S871.52,367.8,871.52,376Z"/><path class="cls-5" d="M913.56,382.47c2.66-1.78,4.32-4,4.32-6.47,0-5.79-8.85-10.48-19.78-10.48s-19.78,4.69-19.78,10.48c0,2.46,1.66,4.69,4.33,6.47,3.62-2.42,9.16-4,15.45-4S909.93,380.05,913.56,382.47Z"/><path class="cls-6" d="M913.56,382.47c-3.63-2.42-9.17-4-15.46-4s-11.83,1.59-15.45,4c3.62,2.43,9.16,4,15.45,4S909.93,384.9,913.56,382.47Z"/><path class="cls-5" d="M475.76,316.18v8c0,8.86-12.76,16-28.5,16s-28.49-7.18-28.49-16v-8Z"/><path class="cls-6" d="M418.77,316.18c0,8.85,12.76,16,28.5,16s28.49-7.18,28.49-16-12.76-16-28.49-16S418.77,307.32,418.77,316.18Z"/><path class="cls-7" d="M467.42,311.39h0a7.5,7.5,0,0,0-1.94-4.77c-1-3.8-2.25-10.58-3.23-22.66-1.72-21.06,0-32.15,0-32.15l-.09-.07a3.89,3.89,0,0,0,.09-.47c0-4.61-6.64-8.34-14.82-8.34s-14.82,3.73-14.82,8.34a3.89,3.89,0,0,0,.09.47l-.09.07s1.72,11.09,0,32.15c-1,12.08-2.21,18.86-3.23,22.66a7.5,7.5,0,0,0-1.94,4.77h0c0,6.22,8.95,11.25,20,11.25s20-5,20-11.25Z"/><path class="cls-6" d="M440.9,243.82c-4.89,1.36-8.29,4.17-8.29,7.45a3.89,3.89,0,0,0,.09.47l-.09.07s1.72,11.09,0,32.15c-1,12.08-2.21,18.86-3.23,22.66a7.5,7.5,0,0,0-1.94,4.77h0a7.13,7.13,0,0,0,1.36,4C442.59,294.3,438.22,269,440.9,243.82Z"/><path class="cls-6" d="M465.71,243.79c-3.57-3.7-10.45-6.23-18.44-6.23s-14.88,2.53-18.45,6.23h-2.65v5.64c0,6.55,9.45,11.87,21.1,11.87s21.08-5.32,21.08-11.87v-5.64Z"/><path class="cls-5" d="M465.71,243.79c-3.57-3.7-10.45-6.23-18.44-6.23s-14.88,2.53-18.45,6.23h-2.65v5.64c0,6.55,9.45,11.87,21.1,11.87s21.08-5.32,21.08-11.87v-5.64Z"/><path class="cls-8" d="M426.17,244.13c0,6.55,9.45,11.87,21.09,11.87s21.09-5.32,21.09-11.87-9.44-11.87-21.09-11.87S426.17,237.57,426.17,244.13Z"/><path class="cls-7" d="M465,231.05a17.59,17.59,0,1,1-17.59-17.59A17.6,17.6,0,0,1,465,231.05Z"/><path class="cls-6" d="M450.49,219.38c2.86,3.61,1.51,9.44-3,13S437,236,434.11,232.34s-1.5-9.44,3-13S447.64,215.77,450.49,219.38Z"/><path class="cls-8" d="M444.49,220.77c1.44,1.83.76,4.77-1.53,6.58s-5.31,1.8-6.75,0-.76-4.77,1.52-6.58S443,219,444.49,220.77Z"/><path class="cls-5" d="M870.11,543.59v8c0,8.86-12.75,16-28.49,16s-28.49-7.17-28.49-16v-8Z"/><path class="cls-6" d="M813.13,543.59c0,8.86,12.76,16,28.49,16s28.49-7.18,28.49-16-12.75-16-28.49-16S813.13,534.73,813.13,543.59Z"/><path class="cls-7" d="M861.78,538.8h0a7.41,7.41,0,0,0-1.95-4.76c-1-3.81-2.24-10.58-3.22-22.66-1.72-21.07,0-32.16,0-32.16l-.09-.06a3.7,3.7,0,0,0,.09-.48c0-4.6-6.64-8.34-14.82-8.34S827,474.08,827,478.68a3.7,3.7,0,0,0,.09.48l-.09.06s1.71,11.09,0,32.16c-1,12.08-2.21,18.85-3.23,22.66a7.45,7.45,0,0,0-1.94,4.76h0c0,6.22,9,11.25,20,11.25s20-5,20-11.25Z"/><path class="cls-6" d="M835.25,471.23c-4.89,1.37-8.28,4.17-8.28,7.45a3.7,3.7,0,0,0,.09.48l-.09.06s1.71,11.09,0,32.16c-1,12.08-2.21,18.85-3.23,22.66a7.45,7.45,0,0,0-1.94,4.76h0a7.11,7.11,0,0,0,1.36,4C837,521.72,832.58,496.44,835.25,471.23Z"/><path class="cls-6" d="M860.07,471.2c-3.57-3.69-10.45-6.23-18.45-6.23s-14.87,2.54-18.45,6.23h-2.64v5.64c0,6.56,9.44,11.87,21.09,11.87s21.09-5.31,21.09-11.87V471.2Z"/><path class="cls-5" d="M860.07,471.2c-3.57-3.69-10.45-6.23-18.45-6.23s-14.87,2.54-18.45,6.23h-2.64v5.64c0,6.56,9.44,11.87,21.09,11.87s21.09-5.31,21.09-11.87V471.2Z"/><path class="cls-8" d="M820.53,471.54c0,6.56,9.44,11.87,21.09,11.87s21.09-5.31,21.09-11.87-9.44-11.87-21.09-11.87S820.53,465,820.53,471.54Z"/><path class="cls-7" d="M859.38,458.46a17.59,17.59,0,1,1-17.59-17.59A17.6,17.6,0,0,1,859.38,458.46Z"/><path class="cls-6" d="M844.85,446.79c2.86,3.62,1.51,9.44-3,13s-10.51,3.55-13.37-.06-1.51-9.44,3-13S842,443.18,844.85,446.79Z"/><path class="cls-8" d="M838.85,448.19c1.44,1.82.76,4.77-1.53,6.58s-5.31,1.79-6.75,0-.77-4.78,1.52-6.58S837.4,446.36,838.85,448.19Z"/><path class="cls-10" d="M590.67,708.32v8c0,8.86-12.75,16-28.49,16s-28.49-7.18-28.49-16v-8Z"/><path class="cls-11" d="M533.69,708.32c0,8.86,12.76,16,28.49,16s28.49-7.18,28.49-16-12.75-16-28.49-16S533.69,699.46,533.69,708.32Z"/><path class="cls-12" d="M582.34,703.53h0a7.45,7.45,0,0,0-1.94-4.76c-1-3.81-2.25-10.58-3.23-22.66-1.72-21.07,0-32.16,0-32.16l-.09-.06a3.7,3.7,0,0,0,.09-.48c0-4.6-6.64-8.33-14.82-8.33s-14.82,3.73-14.82,8.33a3.7,3.7,0,0,0,.09.48l-.09.06s1.71,11.09,0,32.16c-1,12.08-2.21,18.85-3.23,22.66a7.45,7.45,0,0,0-1.94,4.76h0c0,6.21,8.95,11.25,20,11.25s20-5,20-11.25Z"/><path class="cls-13" d="M555.81,636c-4.88,1.36-8.28,4.17-8.28,7.44a3.7,3.7,0,0,0,.09.48l-.09.06s1.71,11.09,0,32.16c-1,12.08-2.21,18.85-3.23,22.66a7.45,7.45,0,0,0-1.94,4.76h0a7.18,7.18,0,0,0,1.36,4C557.51,686.45,553.14,661.17,555.81,636Z"/><path class="cls-10" d="M580.63,635.93c-3.57-3.69-10.45-6.23-18.45-6.23s-14.87,2.54-18.45,6.23h-2.64v5.64c0,6.56,9.44,11.87,21.09,11.87s21.09-5.31,21.09-11.87v-5.64Z"/><path class="cls-11" d="M541.09,636.27c0,6.56,9.44,11.87,21.09,11.87s21.09-5.31,21.09-11.87-9.44-11.87-21.09-11.87S541.09,629.72,541.09,636.27Z"/><path class="cls-12" d="M579.94,623.19a17.59,17.59,0,1,1-17.59-17.59A17.59,17.59,0,0,1,579.94,623.19Z"/><path class="cls-13" d="M565.41,611.52c2.86,3.62,1.51,9.45-3,13s-10.5,3.56-13.36-.06-1.51-9.44,3-13S562.55,607.91,565.41,611.52Z"/><path class="cls-11" d="M559.41,612.92c1.44,1.82.76,4.77-1.53,6.58s-5.31,1.79-6.75,0-.77-4.77,1.52-6.58S558,611.09,559.41,612.92Z"/><path class="cls-10" d="M528.49,674.39v8.05c0,8.86-12.75,16-28.49,16s-28.49-7.18-28.49-16v-8.05Z"/><path class="cls-11" d="M471.51,674.39c0,8.86,12.75,16,28.49,16s28.49-7.18,28.49-16-12.75-16-28.49-16S471.51,665.53,471.51,674.39Z"/><path class="cls-12" d="M520.16,669.61h0a7.41,7.41,0,0,0-1.95-4.77c-1-3.81-2.24-10.58-3.23-22.66-1.71-21.07,0-32.15,0-32.15l-.08-.07a3.85,3.85,0,0,0,.08-.47c0-4.61-6.63-8.34-14.81-8.34s-14.82,3.73-14.82,8.34a3.89,3.89,0,0,0,.09.47l-.09.07s1.71,11.08,0,32.15c-1,12.08-2.21,18.85-3.23,22.66a7.47,7.47,0,0,0-1.94,4.77h0c0,6.21,8.95,11.25,20,11.25s20-5,20-11.25Z"/><path class="cls-13" d="M493.63,602c-4.89,1.36-8.28,4.17-8.28,7.45a3.89,3.89,0,0,0,.09.47l-.09.07s1.71,11.08,0,32.15c-1,12.08-2.21,18.85-3.23,22.66a7.47,7.47,0,0,0-1.94,4.77h0a7.11,7.11,0,0,0,1.36,4C495.33,652.52,491,627.24,493.63,602Z"/><path class="cls-10" d="M518.45,602c-3.58-3.69-10.45-6.23-18.45-6.23s-14.87,2.54-18.45,6.23h-2.64v5.64c0,6.56,9.44,11.87,21.09,11.87s21.09-5.31,21.09-11.87V602Z"/><path class="cls-11" d="M478.91,602.34c0,6.56,9.44,11.87,21.09,11.87s21.09-5.31,21.09-11.87-9.44-11.87-21.09-11.87S478.91,595.79,478.91,602.34Z"/><circle class="cls-12" cx="500.17" cy="589.26" r="17.59"/><path class="cls-13" d="M503.23,577.6c2.86,3.61,1.51,9.44-3,13s-10.5,3.55-13.36-.07-1.51-9.44,3-13S500.37,574,503.23,577.6Z"/><path class="cls-11" d="M497.23,579c1.44,1.82.76,4.77-1.53,6.58s-5.31,1.79-6.76,0-.76-4.77,1.53-6.58S495.78,577.16,497.23,579Z"/><path class="cls-10" d="M475.76,641.66v8.05c0,8.86-12.76,16-28.5,16s-28.49-7.17-28.49-16v-8.05Z"/><path class="cls-11" d="M418.77,641.66c0,8.86,12.76,16,28.5,16s28.49-7.18,28.49-16-12.76-16-28.49-16S418.77,632.8,418.77,641.66Z"/><path class="cls-12" d="M467.42,636.87h0a7.45,7.45,0,0,0-1.94-4.76c-1-3.81-2.25-10.58-3.23-22.66-1.72-21.07,0-32.16,0-32.16l-.09-.06a3.7,3.7,0,0,0,.09-.48c0-4.6-6.64-8.34-14.82-8.34s-14.82,3.74-14.82,8.34a3.7,3.7,0,0,0,.09.48l-.09.06s1.72,11.09,0,32.16c-1,12.08-2.21,18.85-3.23,22.66a7.45,7.45,0,0,0-1.94,4.76h0c0,6.22,8.95,11.25,20,11.25s20-5,20-11.25Z"/><path class="cls-13" d="M440.9,569.3c-4.89,1.37-8.29,4.18-8.29,7.45a3.7,3.7,0,0,0,.09.48l-.09.06s1.72,11.09,0,32.16c-1,12.08-2.21,18.85-3.23,22.66a7.45,7.45,0,0,0-1.94,4.76h0a7.19,7.19,0,0,0,1.36,4C442.59,619.79,438.22,594.51,440.9,569.3Z"/><path class="cls-10" d="M465.71,569.27c-3.57-3.69-10.45-6.23-18.44-6.23s-14.88,2.54-18.45,6.23h-2.65v5.64c0,6.56,9.45,11.87,21.1,11.87s21.08-5.31,21.08-11.87v-5.64Z"/><path class="cls-11" d="M426.17,569.61c0,6.56,9.45,11.87,21.09,11.87s21.09-5.31,21.09-11.87-9.44-11.87-21.09-11.87S426.17,563.06,426.17,569.61Z"/><path class="cls-12" d="M465,556.53a17.59,17.59,0,1,1-17.59-17.59A17.6,17.6,0,0,1,465,556.53Z"/><path class="cls-13" d="M450.49,544.86c2.86,3.62,1.51,9.45-3,13s-10.51,3.55-13.37-.06-1.5-9.44,3-13S447.64,541.25,450.49,544.86Z"/><path class="cls-11" d="M444.49,546.26c1.44,1.82.76,4.77-1.53,6.58s-5.31,1.79-6.75,0-.76-4.78,1.52-6.58S443,544.43,444.49,546.26Z"/><path class="cls-10" d="M419.68,609.17v8.05c0,8.86-12.76,16-28.5,16s-28.49-7.18-28.49-16v-8.05Z"/><path class="cls-11" d="M362.69,609.17c0,8.86,12.76,16,28.5,16s28.49-7.18,28.49-16-12.76-16-28.49-16S362.69,600.32,362.69,609.17Z"/><path class="cls-12" d="M411.34,604.39h0a7.47,7.47,0,0,0-1.94-4.77c-1-3.81-2.25-10.58-3.23-22.66-1.72-21.06,0-32.15,0-32.15l-.09-.07a3.89,3.89,0,0,0,.09-.47c0-4.61-6.64-8.34-14.82-8.34s-14.82,3.73-14.82,8.34a3.89,3.89,0,0,0,.09.47l-.09.07s1.72,11.09,0,32.15c-1,12.08-2.21,18.85-3.23,22.66a7.47,7.47,0,0,0-1.94,4.77h0c0,6.21,8.95,11.25,20,11.25s20-5,20-11.25Z"/><path class="cls-13" d="M384.82,536.82c-4.89,1.36-8.29,4.17-8.29,7.45a3.89,3.89,0,0,0,.09.47l-.09.07s1.72,11.09,0,32.15c-1,12.08-2.21,18.85-3.23,22.66a7.47,7.47,0,0,0-1.94,4.77h0a7.18,7.18,0,0,0,1.36,4C386.51,587.3,382.14,562,384.82,536.82Z"/><path class="cls-10" d="M409.63,536.79c-3.57-3.7-10.45-6.23-18.44-6.23s-14.88,2.53-18.45,6.23h-2.65v5.64c0,6.55,9.45,11.87,21.1,11.87s21.08-5.32,21.08-11.87v-5.64Z"/><path class="cls-11" d="M370.09,537.13c0,6.55,9.45,11.87,21.1,11.87s21.08-5.32,21.08-11.87-9.44-11.87-21.08-11.87S370.09,530.57,370.09,537.13Z"/><path class="cls-12" d="M408.94,524.05a17.59,17.59,0,1,1-17.59-17.59A17.59,17.59,0,0,1,408.94,524.05Z"/><path class="cls-13" d="M394.41,512.38c2.86,3.61,1.51,9.44-3,13S380.89,529,378,525.34s-1.5-9.44,3-13S391.56,508.77,394.41,512.38Z"/><path class="cls-11" d="M388.41,513.77c1.44,1.83.76,4.77-1.53,6.58s-5.31,1.8-6.75,0-.76-4.77,1.52-6.58S387,512,388.41,513.77Z"/><path class="cls-10" d="M363.2,576.37v8c0,8.86-12.76,16-28.5,16s-28.49-7.18-28.49-16v-8Z"/><path class="cls-11" d="M306.21,576.37c0,8.86,12.76,16,28.5,16s28.49-7.18,28.49-16-12.76-16-28.49-16S306.21,567.52,306.21,576.37Z"/><path class="cls-12" d="M354.86,571.59h0a7.47,7.47,0,0,0-1.94-4.77c-1-3.81-2.25-10.58-3.23-22.66-1.72-21.06,0-32.15,0-32.15l-.09-.07a3.89,3.89,0,0,0,.09-.47c0-4.61-6.64-8.34-14.82-8.34s-14.82,3.73-14.82,8.34a3.89,3.89,0,0,0,.09.47l-.09.07s1.72,11.09,0,32.15c-1,12.08-2.21,18.85-3.23,22.66a7.47,7.47,0,0,0-1.94,4.77h0c0,6.21,8.95,11.25,20,11.25s20-5,20-11.25Z"/><path class="cls-13" d="M328.34,504c-4.89,1.36-8.29,4.17-8.29,7.45a3.89,3.89,0,0,0,.09.47l-.09.07s1.72,11.09,0,32.15c-1,12.08-2.21,18.85-3.23,22.66a7.47,7.47,0,0,0-1.94,4.77h0a7.16,7.16,0,0,0,1.36,4C330,554.5,325.66,529.23,328.34,504Z"/><path class="cls-10" d="M353.15,504c-3.57-3.7-10.45-6.23-18.44-6.23s-14.88,2.53-18.45,6.23h-2.64v5.64c0,6.55,9.44,11.87,21.09,11.87s21.08-5.32,21.08-11.87V504Z"/><path class="cls-11" d="M313.62,504.33c0,6.55,9.44,11.87,21.09,11.87s21.08-5.32,21.08-11.87-9.44-11.87-21.08-11.87S313.62,497.77,313.62,504.33Z"/><path class="cls-12" d="M352.46,491.25a17.59,17.59,0,1,1-17.59-17.59A17.6,17.6,0,0,1,352.46,491.25Z"/><path class="cls-13" d="M337.93,479.58c2.86,3.61,1.51,9.44-3,13s-10.51,3.55-13.37-.06-1.5-9.44,3-13S335.08,476,337.93,479.58Z"/><path class="cls-11" d="M331.93,481c1.44,1.83.76,4.77-1.53,6.58s-5.31,1.8-6.75,0-.76-4.77,1.52-6.58S330.48,479.15,331.93,481Z"/><path class="cls-10" d="M306.92,545.77v8.05c0,8.86-12.76,16-28.5,16s-28.49-7.18-28.49-16v-8.05Z"/><path class="cls-11" d="M249.93,545.77c0,8.86,12.76,16,28.5,16s28.49-7.18,28.49-16-12.76-16-28.49-16S249.93,536.92,249.93,545.77Z"/><path class="cls-12" d="M298.58,541h0a7.47,7.47,0,0,0-1.94-4.77c-1-3.81-2.25-10.58-3.23-22.66-1.71-21.07,0-32.15,0-32.15l-.09-.07a3.89,3.89,0,0,0,.09-.47c0-4.61-6.64-8.34-14.82-8.34s-14.82,3.73-14.82,8.34a3.89,3.89,0,0,0,.09.47l-.09.07s1.72,11.08,0,32.15c-1,12.08-2.21,18.85-3.23,22.66A7.47,7.47,0,0,0,258.6,541h0c0,6.21,8.95,11.25,20,11.25s20-5,20-11.25Z"/><path class="cls-13" d="M272.06,473.42c-4.89,1.36-8.29,4.17-8.29,7.45a3.89,3.89,0,0,0,.09.47l-.09.07s1.72,11.08,0,32.15c-1,12.08-2.21,18.85-3.23,22.66A7.47,7.47,0,0,0,258.6,541h0a7.18,7.18,0,0,0,1.36,4C273.75,523.9,269.38,498.63,272.06,473.42Z"/><path class="cls-10" d="M296.87,473.38c-3.57-3.69-10.45-6.22-18.44-6.22s-14.88,2.53-18.45,6.22h-2.64V479c0,6.55,9.44,11.86,21.09,11.86s21.08-5.31,21.08-11.86v-5.65Z"/><path class="cls-11" d="M257.34,473.72c0,6.56,9.44,11.87,21.09,11.87s21.08-5.31,21.08-11.87-9.44-11.86-21.08-11.86S257.34,467.17,257.34,473.72Z"/><path class="cls-12" d="M296.18,460.64a17.59,17.59,0,1,1-17.59-17.58A17.58,17.58,0,0,1,296.18,460.64Z"/><path class="cls-13" d="M281.65,449c2.86,3.61,1.51,9.44-3,13s-10.51,3.55-13.37-.06-1.5-9.44,3-13S278.8,445.36,281.65,449Z"/><path class="cls-11" d="M275.65,450.37c1.44,1.83.76,4.77-1.53,6.58s-5.31,1.8-6.75,0-.76-4.77,1.52-6.58S274.2,448.54,275.65,450.37Z"/><path class="cls-10" d="M250.64,513v8.05c0,8.86-12.76,16-28.5,16s-28.49-7.18-28.49-16V513Z"/><path class="cls-11" d="M193.65,513c0,8.86,12.76,16,28.5,16s28.49-7.18,28.49-16-12.76-16-28.49-16S193.65,504.18,193.65,513Z"/><path class="cls-12" d="M242.3,508.26h0a7.45,7.45,0,0,0-1.94-4.77c-1-3.81-2.25-10.58-3.23-22.66-1.72-21.07,0-32.16,0-32.16l-.09-.06a3.89,3.89,0,0,0,.09-.47c0-4.61-6.64-8.34-14.82-8.34s-14.82,3.73-14.82,8.34a3.89,3.89,0,0,0,.09.47l-.09.06s1.72,11.09,0,32.16c-1,12.08-2.21,18.85-3.23,22.66a7.45,7.45,0,0,0-1.94,4.77h0c0,6.21,9,11.25,20,11.25s20-5,20-11.25Z"/><path class="cls-13" d="M215.78,440.69c-4.89,1.36-8.29,4.17-8.29,7.45a3.89,3.89,0,0,0,.09.47l-.09.06s1.72,11.09,0,32.16c-1,12.08-2.21,18.85-3.23,22.66a7.45,7.45,0,0,0-1.94,4.77h0a7.18,7.18,0,0,0,1.36,4C217.47,491.17,213.1,465.89,215.78,440.69Z"/><path class="cls-10" d="M240.59,440.65c-3.57-3.69-10.45-6.23-18.44-6.23s-14.88,2.54-18.45,6.23h-2.64v5.64c0,6.56,9.44,11.87,21.09,11.87s21.08-5.31,21.08-11.87v-5.64Z"/><path class="cls-11" d="M201.06,441c0,6.56,9.44,11.87,21.09,11.87s21.08-5.31,21.08-11.87-9.44-11.87-21.08-11.87S201.06,434.44,201.06,441Z"/><path class="cls-12" d="M239.9,427.91a17.59,17.59,0,1,1-17.59-17.59A17.58,17.58,0,0,1,239.9,427.91Z"/><path class="cls-13" d="M225.37,416.24c2.86,3.62,1.51,9.45-3,13s-10.51,3.55-13.37-.07-1.5-9.44,3-13S222.52,412.63,225.37,416.24Z"/><path class="cls-11" d="M219.37,417.64c1.44,1.82.76,4.77-1.53,6.58s-5.31,1.79-6.75,0-.76-4.77,1.52-6.58S217.92,415.81,219.37,417.64Z"/><path class="cls-10" d="M193.39,481.27v8.05c0,8.85-12.76,16-28.5,16s-28.49-7.18-28.49-16v-8.05Z"/><path class="cls-11" d="M136.4,481.27c0,8.85,12.76,16,28.5,16s28.49-7.18,28.49-16-12.76-16-28.49-16S136.4,472.41,136.4,481.27Z"/><path class="cls-12" d="M185.05,476.48h0a7.5,7.5,0,0,0-1.94-4.77c-1-3.8-2.25-10.58-3.23-22.66-1.72-21.06,0-32.15,0-32.15l-.09-.06a4,4,0,0,0,.09-.48c0-4.61-6.63-8.34-14.82-8.34s-14.82,3.73-14.82,8.34a4,4,0,0,0,.09.48l-.09.06s1.72,11.09,0,32.15c-1,12.09-2.21,18.86-3.23,22.66a7.5,7.5,0,0,0-1.94,4.77h0c0,6.22,9,11.25,20,11.25s20-5,20-11.25Z"/><path class="cls-13" d="M158.53,408.91c-4.89,1.36-8.29,4.17-8.29,7.45a4,4,0,0,0,.09.48l-.09.06s1.72,11.09,0,32.15c-1,12.09-2.21,18.86-3.23,22.66a7.5,7.5,0,0,0-1.94,4.77h0a7.07,7.07,0,0,0,1.37,4C160.22,459.39,155.85,434.12,158.53,408.91Z"/><path class="cls-10" d="M183.34,408.88c-3.57-3.7-10.45-6.23-18.44-6.23s-14.88,2.53-18.45,6.23h-2.64v5.64c0,6.55,9.44,11.87,21.09,11.87S186,421.07,186,414.52v-5.64Z"/><path class="cls-11" d="M143.8,409.22c0,6.55,9.45,11.87,21.1,11.87S186,415.77,186,409.22s-9.44-11.87-21.08-11.87S143.8,402.66,143.8,409.22Z"/><path class="cls-12" d="M182.65,396.14a17.59,17.59,0,1,1-17.59-17.59A17.59,17.59,0,0,1,182.65,396.14Z"/><path class="cls-13" d="M168.12,384.47c2.86,3.61,1.51,9.44-3,13s-10.51,3.55-13.37-.06-1.5-9.44,3-13S165.27,380.86,168.12,384.47Z"/><path class="cls-11" d="M162.12,385.86c1.44,1.83.76,4.78-1.53,6.58s-5.31,1.8-6.75,0-.76-4.77,1.52-6.58S160.67,384,162.12,385.86Z"/><path class="cls-5" d="M531.73,347.67v8.05c0,8.86-12.76,16-28.5,16s-28.49-7.18-28.49-16v-8.05Z"/><path class="cls-6" d="M474.74,347.67c0,8.86,12.76,16,28.5,16s28.49-7.18,28.49-16-12.76-16-28.49-16S474.74,338.81,474.74,347.67Z"/><path class="cls-7" d="M523.39,342.89h0a7.47,7.47,0,0,0-1.94-4.77c-1-3.81-2.25-10.58-3.23-22.66-1.72-21.07,0-32.15,0-32.15l-.09-.07a3.89,3.89,0,0,0,.09-.47c0-4.61-6.64-8.34-14.82-8.34s-14.82,3.73-14.82,8.34a3.89,3.89,0,0,0,.09.47l-.09.07s1.72,11.08,0,32.15c-1,12.08-2.21,18.85-3.23,22.66a7.47,7.47,0,0,0-1.94,4.77h0c0,6.21,8.95,11.25,20,11.25s20-5,20-11.25Z"/><path class="cls-6" d="M496.87,275.32c-4.89,1.36-8.29,4.17-8.29,7.45a3.89,3.89,0,0,0,.09.47l-.09.07s1.72,11.08,0,32.15c-1,12.08-2.21,18.85-3.23,22.66a7.47,7.47,0,0,0-1.94,4.77h0a7.18,7.18,0,0,0,1.36,4C498.56,325.8,494.19,300.53,496.87,275.32Z"/><path class="cls-6" d="M521.68,275.28c-3.57-3.69-10.45-6.22-18.44-6.22s-14.88,2.53-18.45,6.22h-2.65v5.64c0,6.56,9.45,11.87,21.1,11.87s21.08-5.31,21.08-11.87v-5.64Z"/><path class="cls-5" d="M521.68,275.28c-3.57-3.69-10.45-6.22-18.44-6.22s-14.88,2.53-18.45,6.22h-2.65v5.64c0,6.56,9.45,11.87,21.1,11.87s21.08-5.31,21.08-11.87v-5.64Z"/><path class="cls-8" d="M482.14,275.62c0,6.56,9.45,11.87,21.1,11.87s21.08-5.31,21.08-11.87-9.44-11.87-21.08-11.87S482.14,269.07,482.14,275.62Z"/><path class="cls-7" d="M521,262.54A17.59,17.59,0,1,1,503.4,245,17.59,17.59,0,0,1,521,262.54Z"/><path class="cls-6" d="M506.46,250.88c2.86,3.61,1.51,9.44-3,13s-10.51,3.55-13.37-.06-1.51-9.45,3-13S503.61,247.26,506.46,250.88Z"/><path class="cls-8" d="M500.46,252.27c1.44,1.82.76,4.77-1.53,6.58s-5.31,1.79-6.75,0-.76-4.77,1.52-6.58S499,250.44,500.46,252.27Z"/><path class="cls-5" d="M588.32,382.4v8.05c0,8.85-12.76,16-28.5,16s-28.49-7.18-28.49-16V382.4Z"/><path class="cls-6" d="M531.33,382.4c0,8.86,12.76,16,28.5,16s28.49-7.17,28.49-16-12.76-16-28.49-16S531.33,373.54,531.33,382.4Z"/><path class="cls-7" d="M580,377.61h0a7.5,7.5,0,0,0-1.94-4.77c-1-3.8-2.25-10.57-3.23-22.66-1.72-21.06,0-32.15,0-32.15l-.09-.06a4.46,4.46,0,0,0,.09-.48c0-4.61-6.64-8.34-14.82-8.34s-14.82,3.73-14.82,8.34a4.46,4.46,0,0,0,.09.48l-.09.06s1.72,11.09,0,32.15c-1,12.09-2.21,18.86-3.23,22.67a7.45,7.45,0,0,0-1.94,4.76h0c0,6.22,9,11.25,20,11.25s20-5,20-11.25Z"/><path class="cls-6" d="M553.46,310c-4.89,1.36-8.29,4.17-8.29,7.45a4.46,4.46,0,0,0,.09.48l-.09.06s1.72,11.09,0,32.15c-1,12.09-2.21,18.86-3.23,22.67a7.45,7.45,0,0,0-1.94,4.76h0a7.19,7.19,0,0,0,1.36,4C555.15,360.52,550.78,335.25,553.46,310Z"/><path class="cls-6" d="M578.27,310c-3.57-3.7-10.45-6.23-18.45-6.23S545,306.31,541.37,310h-2.64v5.64c0,6.56,9.45,11.87,21.09,11.87s21.09-5.31,21.09-11.87V310Z"/><path class="cls-5" d="M578.27,310c-3.57-3.7-10.45-6.23-18.45-6.23S545,306.31,541.37,310h-2.64v5.64c0,6.56,9.45,11.87,21.09,11.87s21.09-5.31,21.09-11.87V310Z"/><path class="cls-8" d="M538.73,310.35c0,6.55,9.45,11.87,21.09,11.87s21.09-5.32,21.09-11.87-9.44-11.87-21.09-11.87S538.73,303.79,538.73,310.35Z"/><path class="cls-7" d="M577.58,297.27A17.59,17.59,0,1,1,560,279.68,17.6,17.6,0,0,1,577.58,297.27Z"/><path class="cls-6" d="M563.05,285.6c2.86,3.61,1.51,9.44-3,13s-10.51,3.55-13.37-.06-1.51-9.44,3-13S560.2,282,563.05,285.6Z"/><path class="cls-8" d="M557.05,287c1.44,1.83.76,4.78-1.53,6.58s-5.31,1.8-6.75,0-.76-4.77,1.52-6.58S555.6,285.17,557.05,287Z"/><path class="cls-5" d="M644.75,415.12v8.05c0,8.85-12.76,16-28.5,16s-28.49-7.18-28.49-16v-8.05Z"/><path class="cls-6" d="M587.76,415.12c0,8.86,12.76,16,28.5,16s28.49-7.17,28.49-16-12.76-16-28.49-16S587.76,406.26,587.76,415.12Z"/><path class="cls-7" d="M636.41,410.33h0a7.5,7.5,0,0,0-1.94-4.77c-1-3.8-2.25-10.57-3.23-22.66-1.72-21.06,0-32.15,0-32.15l-.09-.06a4,4,0,0,0,.09-.48c0-4.6-6.64-8.34-14.82-8.34s-14.82,3.74-14.82,8.34a4,4,0,0,0,.09.48l-.09.06s1.72,11.09,0,32.15c-1,12.09-2.21,18.86-3.23,22.67a7.45,7.45,0,0,0-1.94,4.76h0c0,6.22,9,11.25,20,11.25s20-5,20-11.25Z"/><path class="cls-6" d="M609.89,342.76c-4.89,1.36-8.29,4.17-8.29,7.45a4,4,0,0,0,.09.48l-.09.06s1.72,11.09,0,32.15c-1,12.09-2.21,18.86-3.23,22.67a7.45,7.45,0,0,0-1.94,4.76h0a7.19,7.19,0,0,0,1.36,4C611.58,393.25,607.21,368,609.89,342.76Z"/><path class="cls-6" d="M634.7,342.73c-3.57-3.69-10.45-6.23-18.44-6.23s-14.88,2.54-18.45,6.23h-2.64v5.64c0,6.56,9.44,11.87,21.09,11.87s21.08-5.31,21.08-11.87v-5.64Z"/><path class="cls-5" d="M634.7,342.73c-3.57-3.69-10.45-6.23-18.44-6.23s-14.88,2.54-18.45,6.23h-2.64v5.64c0,6.56,9.44,11.87,21.09,11.87s21.08-5.31,21.08-11.87v-5.64Z"/><path class="cls-8" d="M595.17,343.07c0,6.56,9.44,11.87,21.09,11.87s21.08-5.31,21.08-11.87-9.44-11.87-21.08-11.87S595.17,336.51,595.17,343.07Z"/><path class="cls-7" d="M634,330a17.59,17.59,0,1,1-17.59-17.59A17.6,17.6,0,0,1,634,330Z"/><path class="cls-6" d="M619.48,318.32c2.86,3.61,1.51,9.44-3,13s-10.51,3.55-13.37-.06-1.51-9.44,3-13S616.63,314.71,619.48,318.32Z"/><path class="cls-8" d="M613.48,319.71c1.44,1.83.76,4.78-1.53,6.58s-5.31,1.8-6.75,0-.76-4.77,1.52-6.58S612,317.89,613.48,319.71Z"/><path class="cls-5" d="M701.42,446.52v8.05c0,8.86-12.76,16-28.5,16s-28.49-7.17-28.49-16v-8.05Z"/><path class="cls-6" d="M644.43,446.52c0,8.86,12.76,16,28.5,16s28.49-7.18,28.49-16-12.76-16-28.49-16S644.43,437.66,644.43,446.52Z"/><path class="cls-7" d="M693.08,441.73h0a7.45,7.45,0,0,0-1.94-4.76c-1-3.81-2.25-10.58-3.23-22.66-1.72-21.07,0-32.16,0-32.16l-.09-.06a3.7,3.7,0,0,0,.09-.48c0-4.6-6.64-8.34-14.82-8.34s-14.82,3.74-14.82,8.34a3.7,3.7,0,0,0,.09.48l-.09.06s1.72,11.09,0,32.16c-1,12.08-2.21,18.85-3.23,22.66a7.45,7.45,0,0,0-1.94,4.76h0c0,6.22,8.95,11.26,20,11.26s20-5,20-11.26Z"/><path class="cls-6" d="M666.56,374.16c-4.89,1.37-8.29,4.17-8.29,7.45a3.7,3.7,0,0,0,.09.48l-.09.06s1.72,11.09,0,32.16c-1,12.08-2.21,18.85-3.23,22.66a7.45,7.45,0,0,0-1.94,4.76h0a7.19,7.19,0,0,0,1.36,4C668.25,424.65,663.88,399.37,666.56,374.16Z"/><path class="cls-6" d="M691.37,374.13c-3.57-3.69-10.45-6.23-18.45-6.23s-14.87,2.54-18.44,6.23h-2.64v5.64c0,6.56,9.44,11.87,21.08,11.87S694,386.33,694,379.77v-5.64Z"/><path class="cls-5" d="M691.37,374.13c-3.57-3.69-10.45-6.23-18.45-6.23s-14.87,2.54-18.44,6.23h-2.64v5.64c0,6.56,9.44,11.87,21.08,11.87S694,386.33,694,379.77v-5.64Z"/><path class="cls-8" d="M651.84,374.47c0,6.56,9.44,11.87,21.08,11.87S694,381,694,374.47s-9.44-11.87-21.09-11.87S651.84,367.92,651.84,374.47Z"/><path class="cls-7" d="M690.68,361.39a17.59,17.59,0,1,1-17.59-17.59A17.59,17.59,0,0,1,690.68,361.39Z"/><path class="cls-6" d="M676.15,349.72c2.86,3.62,1.51,9.44-3,13s-10.51,3.55-13.37-.06-1.5-9.44,3-13S673.3,346.11,676.15,349.72Z"/><path class="cls-8" d="M670.15,351.12c1.44,1.82.76,4.77-1.53,6.58s-5.31,1.79-6.75,0-.76-4.78,1.52-6.58S668.7,349.29,670.15,351.12Z"/><path class="cls-5" d="M757,479.09v8.05c0,8.86-12.75,16-28.49,16S700,496,700,487.14v-8.05Z"/><path class="cls-6" d="M700,479.09c0,8.86,12.75,16,28.49,16S757,488,757,479.09s-12.75-16-28.49-16S700,470.24,700,479.09Z"/><path class="cls-7" d="M748.68,474.31h0a7.43,7.43,0,0,0-1.95-4.77c-1-3.81-2.24-10.58-3.23-22.66-1.71-21.06,0-32.15,0-32.15l-.08-.07a3.85,3.85,0,0,0,.08-.47c0-4.61-6.63-8.34-14.81-8.34s-14.82,3.73-14.82,8.34a3.89,3.89,0,0,0,.09.47l-.09.07s1.71,11.09,0,32.15c-1,12.08-2.21,18.85-3.23,22.66a7.47,7.47,0,0,0-1.94,4.77h0c0,6.21,8.95,11.25,20,11.25s20-5,20-11.25Z"/><path class="cls-6" d="M722.15,406.74c-4.89,1.36-8.28,4.17-8.28,7.45a3.89,3.89,0,0,0,.09.47l-.09.07s1.71,11.09,0,32.15c-1,12.08-2.21,18.85-3.23,22.66a7.47,7.47,0,0,0-1.94,4.77h0a7.08,7.08,0,0,0,1.36,4C723.85,457.22,719.48,432,722.15,406.74Z"/><path class="cls-6" d="M747,406.71c-3.57-3.7-10.45-6.23-18.45-6.23s-14.87,2.53-18.45,6.23h-2.64v5.64c0,6.55,9.44,11.87,21.09,11.87s21.09-5.32,21.09-11.87v-5.64Z"/><path class="cls-5" d="M747,406.71c-3.57-3.7-10.45-6.23-18.45-6.23s-14.87,2.53-18.45,6.23h-2.64v5.64c0,6.55,9.44,11.87,21.09,11.87s21.09-5.32,21.09-11.87v-5.64Z"/><path class="cls-8" d="M707.43,407.05c0,6.55,9.44,11.87,21.09,11.87s21.09-5.32,21.09-11.87-9.44-11.87-21.09-11.87S707.43,400.49,707.43,407.05Z"/><path class="cls-7" d="M746.28,394a17.59,17.59,0,1,1-17.59-17.59A17.59,17.59,0,0,1,746.28,394Z"/><path class="cls-6" d="M731.75,382.3c2.86,3.61,1.51,9.44-3,13s-10.5,3.55-13.36-.06-1.51-9.44,3-13S728.89,378.69,731.75,382.3Z"/><path class="cls-8" d="M725.74,383.69c1.45,1.83.77,4.77-1.52,6.58s-5.31,1.8-6.75,0-.77-4.77,1.52-6.58S724.3,381.86,725.74,383.69Z"/><path class="cls-5" d="M813.39,513v8c0,8.86-12.76,16-28.5,16s-28.49-7.18-28.49-16v-8Z"/><path class="cls-6" d="M756.4,513c0,8.86,12.76,16,28.5,16s28.49-7.18,28.49-16-12.76-16-28.49-16S756.4,504.12,756.4,513Z"/><path class="cls-7" d="M805.05,508.19h0a7.47,7.47,0,0,0-1.94-4.77c-1-3.81-2.25-10.58-3.23-22.66-1.72-21.07,0-32.15,0-32.15l-.09-.07a3.89,3.89,0,0,0,.09-.47c0-4.61-6.64-8.34-14.82-8.34s-14.82,3.73-14.82,8.34a3.89,3.89,0,0,0,.09.47l-.09.07s1.72,11.08,0,32.15c-1,12.08-2.21,18.85-3.23,22.66a7.47,7.47,0,0,0-1.94,4.77h0c0,6.21,8.95,11.25,20,11.25s20-5,20-11.25Z"/><path class="cls-6" d="M778.53,440.62c-4.89,1.36-8.29,4.17-8.29,7.45a3.89,3.89,0,0,0,.09.47l-.09.07s1.72,11.08,0,32.15c-1,12.08-2.21,18.85-3.23,22.66a7.47,7.47,0,0,0-1.94,4.77h0a7.18,7.18,0,0,0,1.36,4C780.22,491.1,775.85,465.83,778.53,440.62Z"/><path class="cls-6" d="M803.34,440.59c-3.57-3.7-10.45-6.23-18.44-6.23s-14.88,2.53-18.45,6.23h-2.64v5.64c0,6.55,9.44,11.86,21.09,11.86S806,452.78,806,446.23v-5.64Z"/><path class="cls-5" d="M803.34,440.59c-3.57-3.7-10.45-6.23-18.44-6.23s-14.88,2.53-18.45,6.23h-2.64v5.64c0,6.55,9.44,11.86,21.09,11.86S806,452.78,806,446.23v-5.64Z"/><path class="cls-8" d="M763.8,440.93c0,6.55,9.45,11.86,21.1,11.86S806,447.48,806,440.93s-9.44-11.87-21.08-11.87S763.8,434.37,763.8,440.93Z"/><path class="cls-7" d="M802.65,427.85a17.59,17.59,0,1,1-17.59-17.59A17.59,17.59,0,0,1,802.65,427.85Z"/><path class="cls-6" d="M788.12,416.18c2.86,3.61,1.51,9.44-3,13s-10.51,3.55-13.37-.06-1.51-9.45,3-13S785.27,412.57,788.12,416.18Z"/><path class="cls-8" d="M782.12,417.57c1.44,1.83.76,4.77-1.53,6.58s-5.31,1.8-6.75,0-.76-4.77,1.52-6.58S780.67,415.74,782.12,417.57Z"/><path class="cls-10" d="M144.72,508.64v9.92c0,10.93-15.73,19.78-35.14,19.78s-35.14-8.85-35.14-19.78v-9.92Z"/><path class="cls-11" d="M74.44,508.64c0,10.92,15.74,19.77,35.15,19.77s35.13-8.85,35.13-19.77S129,488.86,109.59,488.86,74.44,497.71,74.44,508.64Z"/><path class="cls-12" d="M132.05,496.86c-1.26-4.7-2.77-13.05-4-27.95-2.12-26,0-60.25,0-60.25H128c0-.11.06-.22.06-.33,0-5.69-8.19-10.29-18.28-10.29s-18.27,4.6-18.27,10.29c0,.11,0,.22.06.33h-.06s2.11,34.27,0,60.25c-1.22,14.9-2.73,23.25-4,27.95a9.2,9.2,0,0,0-2.39,5.87c0,7.67,11,13.88,24.65,13.88s24.66-6.21,24.66-13.88A9.21,9.21,0,0,0,132.05,496.86Z"/><path class="cls-13" d="M88,504c7.93-12.64,9.59-26,10.43-40.74,1.2-21-.7-43.08,2.88-63.95-5.81,1.72-9.82,5.11-9.82,9.07,0,.11,0,.22.06.33h-.06s2.11,34.27,0,60.25c-1.22,14.9-2.73,23.25-4,27.95a9.2,9.2,0,0,0-2.39,5.87,8.52,8.52,0,0,0,1.16,4C86.88,505.81,87.44,504.89,88,504Z"/><path class="cls-10" d="M83.21,377.12v28.73c0,8.2,11.81,14.84,26.38,14.84S136,414.05,136,405.85V377.12Z"/><path class="cls-11" d="M83.21,377.12C83.21,385.33,95,392,109.59,392S136,385.33,136,377.12s-11.81-14.84-26.37-14.84S83.21,368.92,83.21,377.12Z"/><path class="cls-10" d="M125.24,383.59c2.67-1.78,4.33-4,4.33-6.47,0-5.79-8.86-10.48-19.78-10.48S90,371.33,90,377.12c0,2.46,1.66,4.69,4.33,6.47,3.62-2.42,9.16-4,15.46-4S121.62,381.17,125.24,383.59Z"/><path class="cls-12" d="M125.24,383.59c-3.62-2.42-9.16-4-15.45-4s-11.84,1.59-15.46,4c3.62,2.43,9.16,4,15.46,4S121.62,386,125.24,383.59Z"/><path class="cls-10" d="M198.66,541.2v9.93c0,10.92-15.74,19.77-35.15,19.77s-35.13-8.85-35.13-19.77V541.2Z"/><path class="cls-11" d="M128.38,541.2c0,10.92,15.73,19.78,35.14,19.78s35.14-8.86,35.14-19.78-15.74-19.78-35.14-19.78S128.38,530.27,128.38,541.2Z"/><path class="cls-14" d="M136.44,536.76c0,8.42,12.12,15.24,27.08,15.24s27.07-6.82,27.07-15.24-12.12-15.24-27.07-15.24S136.44,528.34,136.44,536.76Z"/><path class="cls-10" d="M172.51,457.53c4.31,3.06,7.39,7.88,8.11,15.4,1.61,16.81-3.93,30-13.79,49l-9,28.16-20.81-11c-.82-23.35-18.61-34.71-18.35-67.19.29-37.06,20.85-66.31,41.22-84.58,8-7.13,9.15-8.8,13.32-12.87.15,4.31-.23,9.81-2.73,14.67,7-2.1,14.35-1.36,14.47,6.6,0,1.8,9.61,5.44,14.17,5.15,5.12-.33.9,16.17-2.38,21-2.47,3.6-6.11,4-8.83,4.24-4.26,1.83-8.28,6.47-14.14,9.46-4.55,2.32-8.11,1.81-9.29-3.13C157.16,449.92,166.7,453.39,172.51,457.53Z"/><path class="cls-15" d="M158.59,510.62a305.14,305.14,0,0,1-37.12-17.28c5,17.72,15,28.47,15.57,45.84l20.81,11,9-28.16c1.19-2.29,2.26-4.44,3.31-6.58C166.3,513.76,162.46,512.14,158.59,510.62Z"/><polygon class="cls-10" points="178.91 407.59 164.83 392.39 173.23 374.54 194.04 385.5 178.91 407.59"/><polygon class="cls-10" points="186.39 421.87 172.31 406.67 180.72 388.83 201.53 399.78 186.39 421.87"/><polygon class="cls-12" points="205.97 434.21 191.89 419.01 200.29 401.17 221.11 412.13 205.97 434.21"/><polygon class="cls-10" points="185.34 430.25 174.73 429.29 167.22 436.59 188.03 447.55 185.34 430.25"/><path class="cls-11" d="M193.32,468.48c4.31,3.07,7.39,7.88,8.11,15.4,1.61,16.82-3.93,30-13.78,49l-29.8,17.2c-.81-23.35-18.6-34.71-18.35-67.19.3-37.06,20.86-66.3,41.23-84.58,8-7.13,9.14-8.8,13.31-12.86.15,4.3-.23,9.8-2.73,14.66,7-2.09,14.36-1.36,14.47,6.6,0,1.8,9.62,5.45,14.18,5.15,5.12-.33.89,16.18-2.39,21-2.47,3.6-6.1,4-8.83,4.24-4.26,1.83-8.28,6.46-14.14,9.45-4.55,2.32-8.11,1.82-9.29-3.13C178,460.87,187.52,464.35,193.32,468.48Z"/><path class="cls-10" d="M255.13,571.69v9.93c0,10.92-15.73,19.78-35.14,19.78s-35.14-8.86-35.14-19.78v-9.93Z"/><path class="cls-11" d="M184.85,571.69c0,10.93,15.73,19.78,35.14,19.78s35.14-8.85,35.14-19.78S239.4,551.91,220,551.91,184.85,560.77,184.85,571.69Z"/><path class="cls-12" d="M244.65,566.52h0a9.29,9.29,0,0,0-2.4-5.88c-1.26-4.7-2.77-13-4-27.95-2.11-26,0-60.24,0-60.24h0c0-.11,0-.22,0-.33,0-5.68-8.18-10.28-18.27-10.28s-18.27,4.6-18.27,10.28c0,.11.05.22.06.33h-.06s2.11,34.26,0,60.24c-1.22,14.9-2.73,23.25-4,27.95a9.22,9.22,0,0,0-2.39,5.88h0c0,7.66,11,13.88,24.65,13.88s24.66-6.22,24.66-13.88Z"/><path class="cls-13" d="M204.26,556.79c4.88-12.66,4.88-24.95,5.33-38.38.6-17.95,1-36.37.49-54.42-5.45,1.78-8.36,4.27-8.36,8.07a3.23,3.23,0,0,0,.06.33h-.06s2.11,34.26,0,60.24c-1.22,14.9-2.73,23.25-4,28a9.22,9.22,0,0,0-2.39,5.88h0a8.63,8.63,0,0,0,1.4,4.43C199.22,566.23,202.32,561.83,204.26,556.79Z"/><path class="cls-10" d="M238.24,468.05c-3.58-3.69-10.45-6.22-18.45-6.22s-14.87,2.53-18.45,6.22H198.7v5.64c0,6.56,9.44,11.87,21.09,11.87s21.09-5.31,21.09-11.87v-5.64Z"/><path class="cls-11" d="M198.7,468.39c0,6.56,9.44,11.87,21.09,11.87s21.09-5.31,21.09-11.87-9.44-11.87-21.09-11.87S198.7,461.84,198.7,468.39Z"/><path class="cls-12" d="M234.06,434c-8-13.81-14-31.84-14-31.84S214,420.17,206,434c-7.71,13.29-9.33,25.51-.84,33.5a15.08,15.08,0,0,0,1.42,1.12v0a13.91,13.91,0,0,0,1.29.87A22.86,22.86,0,0,0,220,472.63a23.2,23.2,0,0,0,11.92-3,14.81,14.81,0,0,0,3-2.16C243.39,459.49,241.77,447.27,234.06,434Z"/><path class="cls-10" d="M234.06,434a166.34,166.34,0,0,1-9.56-20c1.48,9.83,3.71,19.56,3.46,29.42-.17,6.76-2.48,14.29-8.65,17.85-7.4,4.28-15.32,1-19.7-5a17.55,17.55,0,0,0,5.52,11.18,15.08,15.08,0,0,0,1.42,1.12v0a13.91,13.91,0,0,0,1.29.87A22.86,22.86,0,0,0,220,472.63a23.2,23.2,0,0,0,11.92-3,14.81,14.81,0,0,0,3-2.16C243.39,459.49,241.77,447.27,234.06,434Z"/><circle class="cls-10" cx="219.74" cy="403.3" r="9.19"/><path class="cls-13" d="M221.34,397.21c1.49,1.89.79,4.93-1.57,6.8s-5.49,1.86-7,0-.79-4.93,1.57-6.8S219.85,395.32,221.34,397.21Z"/><path class="cls-11" d="M218.2,397.94a2.82,2.82,0,1,1-3.52,0A2.53,2.53,0,0,1,218.2,397.94Z"/><path class="cls-10" d="M426.49,672.89v9.93c0,10.92-15.73,19.77-35.14,19.77s-35.14-8.85-35.14-19.77v-9.93Z"/><path class="cls-11" d="M356.21,672.89c0,10.92,15.73,19.78,35.14,19.78s35.14-8.86,35.14-19.78-15.73-19.78-35.14-19.78S356.21,662,356.21,672.89Z"/><path class="cls-12" d="M416,667.72h0a9.29,9.29,0,0,0-2.4-5.88c-1.26-4.7-2.77-13.05-4-28-2.11-26,0-60.24,0-60.24h-.05c0-.11.05-.22.05-.33,0-5.68-8.18-10.29-18.27-10.29s-18.27,4.61-18.27,10.29c0,.11.05.22.06.33h-.06s2.11,34.26,0,60.24c-1.22,14.9-2.73,23.25-4,28a9.22,9.22,0,0,0-2.39,5.88h0c0,7.66,11,13.87,24.65,13.87S416,675.38,416,667.72Z"/><path class="cls-13" d="M375.62,658c4.88-12.66,4.88-24.94,5.33-38.37.6-17.95,1-36.37.5-54.43-5.46,1.78-8.37,4.27-8.37,8.08,0,.11.05.22.06.33h-.06s2.11,34.26,0,60.24c-1.22,14.9-2.73,23.25-4,28a9.22,9.22,0,0,0-2.39,5.88h0a8.63,8.63,0,0,0,1.4,4.43C370.58,667.48,373.68,663.07,375.62,658Z"/><path class="cls-10" d="M409.6,569.25C406,565.56,399.15,563,391.15,563s-14.87,2.54-18.45,6.23h-2.64v5.64c0,6.56,9.44,11.87,21.09,11.87s21.09-5.31,21.09-11.87v-5.64Z"/><path class="cls-11" d="M370.06,569.59c0,6.56,9.44,11.87,21.09,11.87s21.09-5.31,21.09-11.87-9.44-11.87-21.09-11.87S370.06,563,370.06,569.59Z"/><path class="cls-12" d="M405.42,535.18c-8-13.81-14-31.84-14-31.84s-6.07,18-14.08,31.84c-7.71,13.29-9.32,25.5-.84,33.5a16.91,16.91,0,0,0,1.42,1.12h0a12.31,12.31,0,0,0,1.29.88,22.86,22.86,0,0,0,12.14,3.14,23.18,23.18,0,0,0,11.92-3,14.81,14.81,0,0,0,3-2.16C414.75,560.68,413.13,548.47,405.42,535.18Z"/><path class="cls-15" d="M405.42,535.18a165.72,165.72,0,0,1-9.56-20c1.48,9.84,3.71,19.57,3.46,29.43-.17,6.75-2.48,14.28-8.65,17.85-7.4,4.27-15.32,1-19.7-5a17.55,17.55,0,0,0,5.52,11.18,16.91,16.91,0,0,0,1.42,1.12h0a12.31,12.31,0,0,0,1.29.88,22.86,22.86,0,0,0,12.14,3.14,23.18,23.18,0,0,0,11.92-3,14.81,14.81,0,0,0,3-2.16C414.75,560.68,413.13,548.47,405.42,535.18Z"/><path class="cls-10" d="M400.29,504.5a9.19,9.19,0,1,1-9.19-9.18A9.18,9.18,0,0,1,400.29,504.5Z"/><path class="cls-13" d="M392.7,498.41c1.49,1.88.79,4.93-1.57,6.8s-5.49,1.85-7,0-.79-4.93,1.57-6.8S391.21,496.52,392.7,498.41Z"/><path class="cls-11" d="M389.57,499.14a2.83,2.83,0,1,1-3.53,0A2.53,2.53,0,0,1,389.57,499.14Z"/><path class="cls-10" d="M480.26,701.73v9.93c0,10.93-15.73,19.78-35.14,19.78S410,722.59,410,711.66v-9.93Z"/><path class="cls-11" d="M410,701.73c0,10.93,15.73,19.78,35.14,19.78s35.14-8.85,35.14-19.78S464.53,682,445.12,682,410,690.81,410,701.73Z"/><path class="cls-14" d="M418.05,697.3c0,8.41,12.12,15.23,27.07,15.23s27.08-6.82,27.08-15.23-12.13-15.24-27.08-15.24S418.05,688.88,418.05,697.3Z"/><path class="cls-10" d="M454.11,618.06c4.31,3.07,7.39,7.88,8.11,15.4,1.61,16.82-3.93,30-13.78,49l-9,28.16-20.82-11c-.81-23.35-18.6-34.71-18.35-67.18.3-37.06,20.86-66.31,41.23-84.58,8-7.14,9.14-8.8,13.32-12.87.14,4.3-.24,9.8-2.74,14.66,7-2.09,14.36-1.36,14.47,6.61,0,1.8,9.62,5.44,14.18,5.14,5.12-.33.89,16.18-2.39,21-2.47,3.6-6.1,4-8.82,4.24-4.27,1.83-8.29,6.46-14.14,9.45-4.56,2.32-8.12,1.82-9.3-3.13C438.76,610.45,448.31,613.93,454.11,618.06Z"/><path class="cls-15" d="M440.2,671.16a306.78,306.78,0,0,1-37.13-17.28c5,17.72,15,28.47,15.57,45.83l20.82,11,9-28.16c1.18-2.29,2.26-4.45,3.31-6.58C447.91,674.29,444.06,672.67,440.2,671.16Z"/><polygon class="cls-10" points="460.51 568.12 446.43 552.92 454.83 535.08 475.65 546.03 460.51 568.12"/><polygon class="cls-10" points="468 582.41 453.92 567.21 462.32 549.36 483.13 560.32 468 582.41"/><polygon class="cls-12" points="487.57 594.75 473.49 579.55 481.9 561.71 502.71 572.66 487.57 594.75"/><polygon class="cls-10" points="466.95 590.78 456.33 589.83 448.82 597.13 469.64 608.08 466.95 590.78"/><path class="cls-11" d="M474.93,629c4.31,3.06,7.39,7.88,8.11,15.4,1.61,16.81-3.94,30-13.79,49l-29.79,17.21c-.82-23.35-18.61-34.71-18.35-67.19.29-37.06,20.85-66.31,41.22-84.58,7.95-7.13,9.15-8.8,13.32-12.87.15,4.31-.24,9.81-2.73,14.67,7-2.1,14.35-1.36,14.46,6.6,0,1.8,9.62,5.44,14.18,5.15,5.12-.33.9,16.18-2.38,20.95-2.47,3.6-6.11,4-8.83,4.24-4.26,1.83-8.29,6.47-14.14,9.46-4.55,2.32-8.11,1.81-9.3-3.13C459.58,621.41,469.12,624.88,474.93,629Z"/><path class="cls-10" d="M537.85,738.68v9.93c0,10.93-15.73,19.78-35.14,19.78s-35.14-8.85-35.14-19.78v-9.93Z"/><path class="cls-11" d="M467.57,738.68c0,10.93,15.73,19.78,35.14,19.78s35.14-8.85,35.14-19.78-15.73-19.77-35.14-19.77S467.57,727.76,467.57,738.68Z"/><path class="cls-12" d="M525.17,726.9c-1.25-4.69-2.77-13-4-27.94-2.11-26,0-60.25,0-60.25h-.06c0-.12.06-.22.06-.33,0-5.69-8.18-10.29-18.27-10.29s-18.28,4.6-18.28,10.29c0,.11.06.21.06.33h-.06s2.12,34.27,0,60.25c-1.21,14.9-2.73,23.25-4,27.94a9.18,9.18,0,0,0-2.4,5.88c0,7.67,11,13.88,24.66,13.88s24.65-6.21,24.65-13.88A9.18,9.18,0,0,0,525.17,726.9Z"/><path class="cls-13" d="M481.16,734c7.93-12.64,9.59-26,10.43-40.74,1.2-21-.7-43.08,2.88-64-5.82,1.72-9.83,5.11-9.83,9.07,0,.11.06.21.06.33h-.06s2.12,34.27,0,60.25c-1.21,14.9-2.73,23.25-4,27.94a9.18,9.18,0,0,0-2.4,5.88,8.42,8.42,0,0,0,1.17,4Z"/><path class="cls-10" d="M476.33,607.17v28.72c0,8.21,11.81,14.85,26.38,14.85s26.38-6.64,26.38-14.85V607.17Z"/><path class="cls-11" d="M476.33,607.17c0,8.2,11.81,14.85,26.38,14.85s26.38-6.65,26.38-14.85-11.81-14.84-26.38-14.84S476.33,599,476.33,607.17Z"/><path class="cls-10" d="M518.37,613.64c2.66-1.78,4.32-4,4.32-6.47,0-5.79-8.85-10.48-19.78-10.48s-19.78,4.69-19.78,10.48c0,2.46,1.66,4.69,4.33,6.47,3.62-2.42,9.16-4,15.45-4S514.74,611.22,518.37,613.64Z"/><path class="cls-12" d="M518.37,613.64c-3.63-2.42-9.17-4-15.46-4s-11.83,1.59-15.45,4c3.62,2.43,9.16,4,15.45,4S514.74,616.07,518.37,613.64Z"/><path class="cls-10" d="M310.18,606.87v9.93c0,10.92-15.73,19.78-35.14,19.78s-35.14-8.86-35.14-19.78v-9.93Z"/><path class="cls-11" d="M239.9,606.87c0,10.93,15.73,19.78,35.14,19.78s35.14-8.85,35.14-19.78S294.45,587.09,275,587.09,239.9,596,239.9,606.87Z"/><path class="cls-12" d="M299.35,601.28h0A9.22,9.22,0,0,0,297,595.4c-1.26-4.69-2.77-13-4-27.95-2.11-26,0-96.93,0-96.93h-.06c0-.11.06-.22.06-.33,0-5.68-8.18-10.29-18.27-10.29s-18.27,4.61-18.27,10.29c0,.11.05.22.05.33h-.06s2.12,71,0,96.93c-1.21,14.91-2.73,23.26-4,27.95a9.29,9.29,0,0,0-2.4,5.88h0c0,7.67,11,13.88,24.66,13.88s24.65-6.21,24.65-13.88Z"/><path class="cls-13" d="M259.3,588.42c3.08-17.38,2.95-35.72,3.48-57.06.64-25.78.35-48.74.35-70.72-6.95,1.46-7.16,4.79-7.16,9.21,0,.11,0,.22.06.33H256s2.11,70.95,0,96.93c-1.22,14.9-2.73,23.25-4,28a9.22,9.22,0,0,0-2.39,5.88h0a9.1,9.1,0,0,0,2.17,5.65C253.1,601.29,257.41,599.08,259.3,588.42Z"/><path class="cls-10" d="M297.35,467.06c-4.28-4.43-12.52-7.47-22.11-7.47s-17.83,3-22.11,7.47H250v6.76c0,7.86,11.32,14.23,25.28,14.23s25.28-6.37,25.28-14.23v-6.76Z"/><path class="cls-11" d="M250,467.47c0,7.85,11.32,14.22,25.28,14.22s25.28-6.37,25.28-14.22-11.32-14.23-25.28-14.23S250,459.61,250,467.47Z"/><path class="cls-10" d="M293.09,440.5c5.62-8.65,9.92-13,9.92-18.45l-23.88-6,.07-2-4,1-4-1,.07,2-23.88,6c0,5.49,4.3,9.8,9.92,18.45,3.47,5.34,2.59,22,2.59,22,0,4.74,6.83,8.59,15.26,8.59s15.26-3.85,15.26-8.59h0S289.62,445.83,293.09,440.5Z"/><path class="cls-13" d="M262.49,435.22c-2.78-5.44-5.84-9.73-7.23-15.12l-7.79,1.95c0,5.49,4.3,9.8,9.92,18.45,3.47,5.34,2.59,22,2.59,22,0,3.09,2.94,5.78,7.3,7.29C268.62,458.67,267.13,444.31,262.49,435.22Z"/><path class="cls-11" d="M247.47,422.05c0,8.63,12.43,15.63,27.77,15.63s27.77-7,27.77-15.63-12.43-15.63-27.77-15.63S247.47,413.41,247.47,422.05Z"/><path class="cls-14" d="M257.31,417.8c0,5.57,8,10.09,17.93,10.09s17.93-4.52,17.93-10.09-8-10.09-17.93-10.09S257.31,412.23,257.31,417.8Z"/><polygon class="cls-15" points="291.73 414.87 283.92 419.55 266.16 400.11 266.16 384.05 291.73 398.82 291.73 414.87"/><polygon class="cls-15" points="283.19 414.57 274.7 409.67 274.7 378.92 278.94 376.31 283.19 383.82 283.19 414.57"/><path class="cls-15" d="M288.3,419c0-6.87-4.21-14.81-9.36-17.78s-9.31.16-9.36,7Z"/><polygon class="cls-15" points="288.3 419.03 280.5 423.71 277.16 415.21 285.52 411.3 288.3 419.03"/><path class="cls-10" d="M283.92,403.49l-8.54-4.93V388.5L271.14,381l-4.25,2.61v10.06l-8.54-4.93v16l4.73,2.73a10.72,10.72,0,0,0-1.3,5.39l18.72,10.81a21.59,21.59,0,0,0-1.31-6.89l4.73,2.73Z"/><polygon class="cls-11" points="271.14 380.99 278.94 376.31 283.19 383.82 275.38 388.5 271.14 380.99"/><polygon class="cls-11" points="266.16 384.05 258.35 388.73 266.89 393.66 266.89 384.48 266.16 384.05"/><polygon class="cls-11" points="283.19 393.89 275.38 398.56 283.92 403.49 291.73 398.82 283.19 393.89"/><path class="cls-10" d="M366.46,637.45v9.93c0,10.92-15.73,19.78-35.14,19.78s-35.14-8.86-35.14-19.78v-9.93Z"/><path class="cls-11" d="M296.18,637.45c0,10.93,15.73,19.78,35.14,19.78s35.14-8.85,35.14-19.78-15.73-19.78-35.14-19.78S296.18,626.53,296.18,637.45Z"/><path class="cls-12" d="M355.63,631.86h0a9.22,9.22,0,0,0-2.39-5.88c-1.26-4.69-2.77-13-4-27.94-2.11-26,0-96.93,0-96.93h-.06c0-.11.06-.22.06-.33,0-5.68-8.18-10.29-18.27-10.29s-18.27,4.61-18.27,10.29c0,.11.05.22.05.33h-.05s2.11,70.94,0,96.93c-1.22,14.9-2.74,23.25-4,27.94a9.29,9.29,0,0,0-2.4,5.88h0c0,7.67,11,13.88,24.66,13.88s24.65-6.21,24.65-13.88Z"/><path class="cls-13" d="M316,619.28c3.08-17.38,2.95-35.73,3.47-57.07.64-25.78.36-48.73.36-70.71-6.95,1.45-7.16,4.79-7.16,9.21,0,.11.05.22.05.33h-.05s2.11,70.95,0,96.93c-1.22,14.9-2.74,23.26-4,27.95a9.29,9.29,0,0,0-2.4,5.88h0a9.1,9.1,0,0,0,2.18,5.65C309.84,632.15,314.15,629.93,316,619.28Z"/><path class="cls-10" d="M353.63,497.64c-4.28-4.43-12.52-7.47-22.11-7.47s-17.83,3-22.11,7.47h-3.17v6.76c0,7.86,11.32,14.23,25.28,14.23s25.28-6.37,25.28-14.23v-6.76Z"/><path class="cls-11" d="M306.24,498.05c0,7.86,11.32,14.22,25.28,14.22s25.28-6.36,25.28-14.22-11.32-14.23-25.28-14.23S306.24,490.19,306.24,498.05Z"/><path class="cls-11" d="M349.37,450.27a18.55,18.55,0,0,0-7.61,1.73,85.82,85.82,0,0,0-4.38-8.49,25.84,25.84,0,0,0-5.86-6.41,26.06,26.06,0,0,0-5.86,6.41,85.82,85.82,0,0,0-4.38,8.49,18.49,18.49,0,0,0-7.61-1.73,21.3,21.3,0,0,0-6.88.75,33.32,33.32,0,0,1,5.82,7.46c2.52,4.48,4.84,16.16,4.65,16.67s10.52-6.54,13.48-8.48c3.32,2,15.2,8.92,15,8.48s1.75-11.46,4.27-15.93a44.06,44.06,0,0,1,6.2-8.2A21.3,21.3,0,0,0,349.37,450.27Z"/><path class="cls-10" d="M317.17,459.64a45.27,45.27,0,0,0-3.5-4.81,13.12,13.12,0,0,0-4.26-3.13s6.67-.79,9.5,1.54S317.17,459.64,317.17,459.64Z"/><path class="cls-10" d="M346,459.64a43.78,43.78,0,0,1,3.5-4.81,13.14,13.14,0,0,1,4.25-3.13s-6.66-.79-9.49,1.54S346,459.64,346,459.64Z"/><path class="cls-15" d="M350.05,462.65a17.72,17.72,0,1,1-17.72-17.71A17.72,17.72,0,0,1,350.05,462.65Z"/><path class="cls-11" d="M325.75,462.5a9.38,9.38,0,0,1,11.51-.09c6.27,4.42-7.31,7.36-7.31,7.36Z"/><path class="cls-10" d="M349.37,469.77A63.42,63.42,0,0,1,356.25,451a78.12,78.12,0,0,0-8.17,8.57,50.2,50.2,0,0,0-5.51,9.21,14.93,14.93,0,0,0-5.31-6.39c-3.35-2.2-5.74,2.53-5.74,2.53s-2.66-4.24-5.77-2.44c-3.46,2-5.28,6.3-5.28,6.3S317.8,464,315,459.59a42.13,42.13,0,0,0-8.17-8.57,63.42,63.42,0,0,1,6.88,18.75C315.59,480.19,315,495,315,495c0,5.15,7.42,9.32,16.56,9.32s16.56-4.17,16.56-9.32h0S347.45,480.19,349.37,469.77Z"/><path class="cls-13" d="M320.13,468.18c-.8-1.41-2.92-5.12-5.17-8.59a42.13,42.13,0,0,0-8.17-8.57,63.42,63.42,0,0,1,6.88,18.75C315.59,480.19,315,495,315,495c0,2.59,1.88,4.93,4.91,6.62C319.87,491.5,320.13,479.65,320.13,468.18Z"/><path class="cls-10" d="M340.17,441.83a9.19,9.19,0,1,1-9.19-9.18A9.19,9.19,0,0,1,340.17,441.83Z"/><path class="cls-13" d="M332.58,435.74c1.49,1.89.79,4.93-1.58,6.8s-5.48,1.86-7,0-.78-4.93,1.58-6.8S331.09,433.86,332.58,435.74Z"/><path class="cls-11" d="M329.44,436.47a2.82,2.82,0,1,1-3.53,0A2.53,2.53,0,0,1,329.44,436.47Z"/><path class="cls-11" d="M313.67,457.8l1.29-1.36s1.94,2.59,3.22,4.78,3.44,5.49,3.44,5.49l-1.15,2.09s-1.8-3.25-3.33-5.73S313.67,457.8,313.67,457.8Z"/><path class="cls-11" d="M349.45,457.8l-.32-2.49a71.51,71.51,0,0,0-4.18,5.91c-1.28,2.19-3.45,5.49-3.45,5.49l1.15,2.09s1.8-3.25,3.34-5.73S349.45,457.8,349.45,457.8Z"/></svg>