<svg xmlns="http://www.w3.org/2000/svg" viewBox="0 0 149.78 150"><defs><style>.cls-1{fill:#f5a84d;}</style></defs><title>Asset 2</title><g id="Layer_2" data-name="Layer 2"><g id="Layer_1-2" data-name="Layer 1"><g id="NewGroupe7"><g id="NewGroup0-16"><path class="cls-1" d="M144.43,136.63a8,8,0,0,1-8,8h-123a8,8,0,0,1-8-8v-8H53.49a10.71,10.71,0,0,0,10.7,10.7H90.94a10.7,10.7,0,0,0,10.69-10.7h42.8v8Zm-48.14-8A5.36,5.36,0,0,1,90.94,134H64.19a5.35,5.35,0,0,1-5.35-5.35Zm50.81-5.35h-2.67V56.39A13.38,13.38,0,0,0,131.06,43H120.58a2.68,2.68,0,0,0,0,5.35h10.48a8,8,0,0,1,8,8v66.86h-5.35V59.06a5.36,5.36,0,0,0-5.35-5.35H115.45a2.68,2.68,0,0,0,0,5.35h12.93v64.19H21.4V59.06H39.23a2.68,2.68,0,0,0,0-5.35H21.4a5.36,5.36,0,0,0-5.35,5.35v64.19H10.7V56.39a8,8,0,0,1,8-8h18.5a2.68,2.68,0,0,0,0-5.35H18.72A13.38,13.38,0,0,0,5.35,56.39v66.86H2.67A2.68,2.68,0,0,0,0,125.93H0v10.7A13.39,13.39,0,0,0,13.37,150h123a13.39,13.39,0,0,0,13.38-13.37v-10.7a2.68,2.68,0,0,0-2.67-2.68Z"/><path class="cls-1" d="M115,134a2.68,2.68,0,1,1-2.68,2.68A2.68,2.68,0,0,1,115,134Z"/><path class="cls-1" d="M125.71,134a2.68,2.68,0,1,1-2.68,2.68,2.68,2.68,0,0,1,2.68-2.68Z"/><path class="cls-1" d="M45.47,134H18.72a2.68,2.68,0,0,0,0,5.35H45.47a2.68,2.68,0,0,0,0-5.35Z"/><path class="cls-1" d="M109.21,45.75s-.34.19-1.42,0A2.7,2.7,0,0,0,104.74,48a3.51,3.51,0,0,1-1.3,2.2,3.48,3.48,0,0,1-2.75-.34C96.54,48,96.91,45.57,97,45.16a2.68,2.68,0,0,0-1.57-3.26A19.37,19.37,0,0,1,86.91,35a5.54,5.54,0,0,0-5.55-3.47A5.24,5.24,0,0,0,77,35.51a6.28,6.28,0,0,0,2.41,6.72c4.73,3.67,15.66,17.91,11,32.66H60.55a73.62,73.62,0,0,1-4-6.75L59,70.23a2.68,2.68,0,1,0,3.49-4.06h0L52.12,57.26s-.12-.06-.17-.1A60.23,60.23,0,0,1,50.36,51l5,4.27a2.67,2.67,0,0,0,3.49-4l-9.39-8.07c0-.53-.1-1.05-.1-1.58,0-.86.08-1.7.16-2.55l5.84,5A2.68,2.68,0,0,0,58.83,40l-8.17-7a32.32,32.32,0,0,1,2.18-5.47L59,32.79a2.68,2.68,0,0,0,3.49-4.06h0L55.71,22.9A32.83,32.83,0,0,1,87.77,10.16c.92.17,1.79.13,7-2.22l-.85,2.12a2.68,2.68,0,0,0,1.35,3.41l3.8,1.78-1.78,1.49h0A2.68,2.68,0,0,0,97,20.52a2.76,2.76,0,0,0,1.41.88,18.36,18.36,0,0,1,4.07,8.16,49.7,49.7,0,0,0,6.82,15.05,2.74,2.74,0,0,1-.05,1.14ZM85.59,85.59H64.19V80.24h21.4v5.35Zm10.28,10.7h-42a7.72,7.72,0,0,1,7.35-5.35H88.56a7.69,7.69,0,0,1,7.31,5.35Zm18.5-53.37a2.7,2.7,0,0,0-.33-.76,47.32,47.32,0,0,1-6.3-13.32,23.46,23.46,0,0,0-4.56-10l2.57-2.14a2.69,2.69,0,0,0,.34-3.77,2.78,2.78,0,0,0-.92-.71L99.85,9.7l2.41-6a2.69,2.69,0,0,0-1.5-3.48,2.66,2.66,0,0,0-2.09,0L97.59.75a90,90,0,0,1-9.28,4.07,38,38,0,0,0-30.66,8.31A37.16,37.16,0,0,0,44,41.52,69.43,69.43,0,0,0,57,79.17a2.66,2.66,0,0,0,1.81,1v5.67A13.19,13.19,0,0,0,48.15,99a2.66,2.66,0,0,0,2.67,2.67H99a2.94,2.94,0,0,0,2.68-3,13.07,13.07,0,0,0-10.7-12.83V80.24H92.3a2.69,2.69,0,0,0,2.49-1.69A36.33,36.33,0,0,0,88.3,44a28.66,28.66,0,0,0,3.32,2,10.2,10.2,0,0,0,6.92,8.73,8.16,8.16,0,0,0,7.48.13,7.75,7.75,0,0,0,3.28-3.71,5.66,5.66,0,0,0,3.85-1.8,7.45,7.45,0,0,0,1.22-6.44Z"/><path class="cls-1" d="M95.47,23.35A2.67,2.67,0,1,0,91,26.27l0,0,2.9,4.37a2.68,2.68,0,0,0,4.48-2.93l0,0-2.9-4.37Z"/></g></g></g></g></svg>