<svg id="Layer_1" data-name="Layer 1" xmlns="http://www.w3.org/2000/svg" viewBox="0 0 50 50"><defs><style>.cls-1{fill:#f5a84d;}</style></defs><title>pawn</title><g id="NewGroupe16"><g id="NewGroup0-7"><path class="cls-1" d="M5.54,48.21A2.67,2.67,0,0,1,8,46.43H42a2.67,2.67,0,0,1,2.5,1.78Zm3.39-4.46a4.41,4.41,0,0,1,4.46-4.46H36.61a4.41,4.41,0,0,1,4.46,4.46v.89H8.93v-.89Zm12.5-22.32h7.14c0,6.78,2.32,11.43,7.14,13.75V37.5H14.29V35.18c4.82-2.32,7.14-7,7.14-13.75Zm-5.36-3.57a1.7,1.7,0,0,1,1.79-1.79H32.14a1.7,1.7,0,0,1,1.79,1.79,1.69,1.69,0,0,1-1.79,1.78H17.86a1.69,1.69,0,0,1-1.79-1.78ZM25,1.79a7.16,7.16,0,0,1,7.14,7.14,7,7,0,0,1-2.5,5.36H20.18a7.43,7.43,0,0,1-2.32-5.36A7.16,7.16,0,0,1,25,1.79Zm17.86,43V43.75a6.15,6.15,0,0,0-5.36-6.07V34.82a1,1,0,0,0-.54-.89c-4.46-2-6.6-6.07-6.6-12.5h1.78a3.57,3.57,0,0,0,0-7.14,8.45,8.45,0,0,0,1.79-5.36,8.93,8.93,0,0,0-17.86,0,9.67,9.67,0,0,0,1.79,5.36,3.57,3.57,0,0,0,0,7.14h1.78c0,6.25-2.14,10.36-6.6,12.5-.36.18-.54.36-.54.71V37.5a6.16,6.16,0,0,0-5.36,6.07v1.07a4.38,4.38,0,0,0-3.57,4.29c0,.71.36,1.07.89,1.07H45.54a.85.85,0,0,0,.89-.89,4.24,4.24,0,0,0-3.57-4.29Z"/></g></g><path class="cls-1" d="M24.89,14c7.73,0,7.74-12,0-12s-7.73,12,0,12Z"/><path class="cls-1" d="M20.65,3l-.38.32,1.21-.94c-.77.59-1.58,1.15-2.3,1.79a7.06,7.06,0,0,0-2.1,3.39,6.5,6.5,0,0,0,3.07,7.21,9.15,9.15,0,0,0,4.29,1.07,9.36,9.36,0,0,0,5.3-1.27,6.89,6.89,0,0,0,3.34-5.74,7.05,7.05,0,0,0-1.22-4.1,4.53,4.53,0,0,0-1.54-1.68,4.58,4.58,0,0,0-2-1.08,6.14,6.14,0,0,0-4.63.61A6,6,0,0,0,20.9,6.19a5.89,5.89,0,0,0,.6,4.63,2.65,2.65,0,0,1,.32.54l-.6-1.43a1.28,1.28,0,0,1,.07.28l-.21-1.6a1,1,0,0,1,0,.25l.22-1.59a1.72,1.72,0,0,1-.07.21l.61-1.43-.08.13L22.7,5a1.61,1.61,0,0,1-.23.22l1.22-.94-.3.17,1.43-.61a4,4,0,0,1-1,.25l1.59-.22a5.86,5.86,0,0,1-1.45,0L25.6,4a3.1,3.1,0,0,1-.73-.17l1.43.61a1.57,1.57,0,0,1-.25-.14l1.22.94a.47.47,0,0,1-.1-.1l.94,1.21,0,0,.61,1.43a.23.23,0,0,1,0-.11l.22,1.59V9.19l-.22,1.6a.5.5,0,0,1,0-.13l-.61,1.43a1.17,1.17,0,0,1,.17-.26L27.31,13a4.52,4.52,0,0,1,.8-.71l-1.22.93c.75-.57,1.54-1.11,2.25-1.74a6.11,6.11,0,0,0,1.75-4.24A6.13,6.13,0,0,0,29.14,3a6.06,6.06,0,0,0-4.25-1.75A6.53,6.53,0,0,0,20.65,3Z"/><path class="cls-1" d="M17.25,19.19a13.68,13.68,0,0,1,1.92-.29l-1.45-1.11c0,.15,0-.66.15-.67l1.3,2.26c-.25.35.16-.12.28-.21l.64-.44.76-.47c.12-.06.81-.39.37-.21L19.37,17c.12.32,0,.46-.3.69a1.5,1.5,0,0,0,.66,2.5c1.25.24,2.66.06,3-1.4a3.11,3.11,0,0,0-.12-1.51c-.05-.22-.11-.43-.15-.64s0,.2,0,0a2.06,2.06,0,0,1,0-.35l-2.8.76a4.91,4.91,0,0,1,.25,1.21,3.53,3.53,0,0,0,.86,1.56,1.51,1.51,0,0,0,2.12,0,6.56,6.56,0,0,0,1.26-1.9H21.56a16.26,16.26,0,0,0,.76,1.73,1.53,1.53,0,0,0,2.75-.35,6.19,6.19,0,0,0,0-3.28c-.42-1.69-2.87-1.25-2.95.4-.06,1.36.83,3.44,2.13,4a1.52,1.52,0,0,0,2.2-.9,18,18,0,0,0,.72-2.71l-2.8.76a8.55,8.55,0,0,1,.36,1.15,4.46,4.46,0,0,0,.85,1.44c.81,1,2.12.27,2.51-.66a6.6,6.6,0,0,0,.19-2.69l-2.94.4a10.57,10.57,0,0,0,1,2.52,1.51,1.51,0,0,0,2.8-.76,5.82,5.82,0,0,1,.12-1.25l-2.51.66c.4.47.62,1.07,1,1.54a1.52,1.52,0,0,0,2.51-.66,10,10,0,0,0,.43-2.49l-3,.4a5.43,5.43,0,0,0,1.39,2.37,1.51,1.51,0,0,0,2.51-.66,9.09,9.09,0,0,0,.2-1.95l-2.8.76a10.49,10.49,0,0,0,1.24,1.85,1.47,1.47,0,0,0,1.64.31,1.53,1.53,0,0,0,.92-1.37c0-.16.2-.81.24-1.11l-2.26,1.3a.46.46,0,0,1,.22.19,1.53,1.53,0,0,0,1.82.24l0,0-1.7-.69c.1,0,.13.11.1.23v-.8l.13-.1a1.56,1.56,0,0,0,0,2.12,1.52,1.52,0,0,0,2.12,0,2.33,2.33,0,0,0,.24-3,1.51,1.51,0,0,0-1.69-.69,4.17,4.17,0,0,0-.75.33l1.82.23a8.86,8.86,0,0,0-.82-.67c-1-.78-2.13.33-2.26,1.3,0,.17-.2.81-.24,1.11l2.56-1.06a7.23,7.23,0,0,1-.77-1.25c-.69-1.38-2.77-.65-2.79.76a5.62,5.62,0,0,1-.09,1.16l2.51-.67a2.27,2.27,0,0,1-.62-1,1.51,1.51,0,0,0-2.95.39,6.83,6.83,0,0,1-.32,1.69L30,17.8c-.41-.46-.63-1.07-1-1.54a1.5,1.5,0,0,0-2.5.66,10.14,10.14,0,0,0-.23,2l2.8-.76a7.24,7.24,0,0,1-.73-1.8,1.51,1.51,0,0,0-2.95.4,4.45,4.45,0,0,1-.09,1.89L27.72,18a2.36,2.36,0,0,1-.27-.77A7,7,0,0,0,27,16.05a1.52,1.52,0,0,0-1.69-.69,1.58,1.58,0,0,0-1.1,1.45,13.24,13.24,0,0,1-.61,1.91l2.2-.9c-.14-.06,0,.05-.1-.05a3,3,0,0,1-.33-.58,2.41,2.41,0,0,1-.16-.45c0-.11-.06-.22-.08-.33,0,.15,0,.14,0,0l-2.94.4a3.09,3.09,0,0,1,0,1.68l2.74-.36a17.78,17.78,0,0,1-.76-1.73,1.51,1.51,0,0,0-2.59,0,4.86,4.86,0,0,1-.79,1.29h2.12c-.17-.19-.15-.64-.19-.88a3.82,3.82,0,0,0-.45-1.29,1.5,1.5,0,0,0-1.69-.68,1.56,1.56,0,0,0-1.1,1.44,4.82,4.82,0,0,0,.21,1.68c0,.09,0,.18.08.27s0,.13,0,.19,0,.08,0,0c-.27,0,.77-1,.78-1s.37,0,0,0l.66,2.51a3.33,3.33,0,0,0,1.07-3.6,1.51,1.51,0,0,0-1.84-1.05,8.75,8.75,0,0,0-3.84,2.7,1.5,1.5,0,0,0,1.29,2.26c1.7-.16,3.1-1.3,2.74-3.12a1.49,1.49,0,0,0-1.44-1.1,20.74,20.74,0,0,0-2.72.4c-1.88.43-1.08,3.33.8,2.89Z"/><path class="cls-1" d="M21.4,21.43a12,12,0,0,0-.66,3.79c.06,1.4,2.07,2.15,2.79.76.62-1.21.76-2.83,1.66-3.86l-2.36-.3A3.24,3.24,0,0,1,23,23.7a6.32,6.32,0,0,0,.2,2.08,1.52,1.52,0,0,0,2.9,0A25,25,0,0,0,27,21.49l-2.74.36a18.68,18.68,0,0,1,1.61,3.76,1.52,1.52,0,0,0,2.74.36c.74-1.27.17-2.5.57-3.79H26.29a11,11,0,0,1,.17,2.92l2.95-.4a26.6,26.6,0,0,0-.9-4.52,1.51,1.51,0,0,0-2.89,0c-1,3.06-1.35,6.33-2.66,9.29h2.59a9,9,0,0,1-.18-2.8c-.08-1.12-.26-2.23-.28-3.36,0-1.63-2.61-2.11-2.95-.4a24,24,0,0,1-2.51,6.51l2.8.75a39,39,0,0,1,.41-4.43l-2.79.76c.54,1.08.11,2.56-.18,3.66l2.94.39A19.23,19.23,0,0,1,23.15,27l-2.94-.4a9.33,9.33,0,0,1-1.57,4.5l2.79.76a10.88,10.88,0,0,1,.28-1.38l-2.94-.4a5.43,5.43,0,0,1-.89,2.56l2.8.76a2.08,2.08,0,0,1,.19-1L18,31.57a6.6,6.6,0,0,1-2.34,3.25l2,2.06c.16-.36.31-.72.46-1.09.44-1.08-.84-2.15-1.85-1.84a4.88,4.88,0,0,0-.54.18l1.69,2.2c.13-.19.27-.38.42-.56.93-1.22-.86-2.81-2-2.05a5.35,5.35,0,0,0-2.13,2.67,1.51,1.51,0,0,0,1.05,1.84c2.08.5,4.59-.17,6.58-.76C23.1,36.94,26,36.06,26.5,34a1.53,1.53,0,0,0-1.45-1.9c-2-.16-3.91,1-5.73,1.69l1.16,2.74c1.91-1.19,4.1-2.84,4.7-5.13a1.51,1.51,0,0,0-2.74-1.16,24.43,24.43,0,0,0-2.78,5.09c-.51,1.45,1.5,2.49,2.51,1.46,1.6-1.63,3.34-4.81,2.52-7.15A1.52,1.52,0,0,0,22,29.23c-1.07,1.54-1.57,6.26,1.07,6.59,1.67.22,2.35-1.69,2.91-2.89a16,16,0,0,0,1.87-5.79h-3A35,35,0,0,0,26,33.77a1.5,1.5,0,0,0,2.94-.4,21.23,21.23,0,0,0-.67-6.15,1.5,1.5,0,0,0-2.94.4A11,11,0,0,0,26.23,32a1.51,1.51,0,0,0,2.95-.4A19.56,19.56,0,0,0,29,26.5l-2.89.79c.25,1.18.62,2.32.91,3.49a1.5,1.5,0,0,0,2.94-.4c0-1.13-.37-2.23-.39-3.36l-2.95.4a34.46,34.46,0,0,0,1.29,3.7c.64,1.4,2.8.64,2.79-.76a14,14,0,0,0-.42-3.14c-.38-1.66-2.94-1.27-2.95.4a16.8,16.8,0,0,0,1.35,6,1.51,1.51,0,0,0,2.95-.39,20.08,20.08,0,0,0-.21-2.45l-2.8.76a25.51,25.51,0,0,1,1.56,3c.48,1.55,3.08,1.36,2.95-.39a10.24,10.24,0,0,0-.93-3.2c-.7-1.65-3.06-.41-2.74,1.15a6.67,6.67,0,0,0,3.24,4.29A1.52,1.52,0,0,0,35,35.07a4.11,4.11,0,0,0-.37-1.59L32,35c.47,1,1.31,1.69,1.76,2.67l.54-2c-.61.39-2.09-.16-2.78-.21-1.45-.1-2.93,0-4.38,0-1.95,0-1.91,2.87,0,3a7.94,7.94,0,0,0,4-.58,1.5,1.5,0,0,0,.31-2.35c-1.45-1.15-3.2-1.08-5-.93-1.6.13-2.14,2.52-.4,2.94a8.87,8.87,0,0,0,5.37-.27c.78-.32,1.54-1.34.89-2.2-1.27-1.68-4.08-1.54-6-1.5s-4.73,0-6,1.71A1.5,1.5,0,0,0,20.58,37c1.55,1.28,3.4,1,5.29,1a1.5,1.5,0,0,0,0-3,4.7,4.7,0,0,0-3.47,1,1.51,1.51,0,0,0,.3,2.36,4.09,4.09,0,0,0,4,0,1.52,1.52,0,0,0-.36-2.74,8.12,8.12,0,0,0-5.74.7A1.52,1.52,0,0,0,20.94,39a23.49,23.49,0,0,0,4.67.14,1.5,1.5,0,0,0,0-3,25.09,25.09,0,0,0-6.42.41,1.5,1.5,0,0,0,.4,2.94c2.35,0,4.69.15,7,.16,2,0,1.9-2.84,0-3a19.3,19.3,0,0,0-8.21.72c-1.08.41-1.64,2.14-.36,2.74,2,.94,4.15.47,6.25.43a1.5,1.5,0,0,0,0-3c-1.72,0-3.61-.18-5.16.69-1.18.67-2.29,2.13-1.3,3.43,1.13,1.49,4.8,1.29,6,0a1.52,1.52,0,0,0,0-2.12c-1.35-1.37-3.93-1.19-5.68-1s-4.34.34-5.58,1.75a1.51,1.51,0,0,0,.3,2.35,8.82,8.82,0,0,0,3.93.8,7.26,7.26,0,0,0,3.91-.65,1.5,1.5,0,0,0,.3-2.35c-1.66-1.36-5.37-1.51-6.61.54a1.53,1.53,0,0,0,.9,2.2,4.23,4.23,0,0,0,4.82-1.31A1.5,1.5,0,0,0,20,40.05c-1.1-1-2.81-1.06-4.22-.93s-3.11.36-4.12,1.4a1.53,1.53,0,0,0,.3,2.36c1.38.95,4.72.91,5.66-.66,1.55-2.62-2.44-3.38-4.13-3.16a2.36,2.36,0,0,0-2.24,1.65A2.1,2.1,0,0,0,13,43.1c1.83.44,5.41-.49,4.23-3.08-1.07-2.36-5.76-1.36-6.3,1a1.53,1.53,0,0,0,1,1.84,2.59,2.59,0,0,0,3.19-1,1.51,1.51,0,0,0-.9-2.2,3.19,3.19,0,0,0-3.47,1.43,1.52,1.52,0,0,0,1.07,2.56c2,0,3.64-2.6,1.93-4.12S10,39.88,10,41.77a1.53,1.53,0,0,0,1.5,1.5,2.59,2.59,0,0,0,2.65-2.13,1.55,1.55,0,0,0-1-1.85A2.88,2.88,0,0,0,9.4,42.36,1.52,1.52,0,0,0,12,43.42a2.37,2.37,0,0,0,.86-1.93,1.52,1.52,0,0,0-2.26-1.29,3.7,3.7,0,0,0-1.83,3.16,1.5,1.5,0,0,0,1.5,1.5,2.12,2.12,0,0,0,2.2-2.38A1.52,1.52,0,0,0,10.53,41a3,3,0,0,0-2.09,3.29c.44,1.75,2.36,1.54,3.7,1.27,3.87-.78,7.85.3,11.7-.66a1.51,1.51,0,0,0,0-2.89c-2.48-.5-4.87.09-7.35.14a1.5,1.5,0,0,0-.4,2.94,14.83,14.83,0,0,0,7.9-.28A1.51,1.51,0,0,0,24,42a7.6,7.6,0,0,0-4.55.1,1.5,1.5,0,0,0,.4,2.94,24.07,24.07,0,0,0,6-.56c1.14-.23,3-.39,3.57-1.56.84-1.58-.89-2.68-2.25-2.82a4.47,4.47,0,0,0-3.75,1.27,1.51,1.51,0,0,0,.31,2.35c2.41,1.36,6-.41,6-3.32,0-3.09-3.58-4-5.66-2.17A3.12,3.12,0,0,0,26,43.74c2.47.17,5.12-2.26,3.61-4.79s-5.36-.11-6.5,1.65,1.54,3.13,2.59,1.52a3.07,3.07,0,0,1,.85-.79,7.43,7.43,0,0,1,1.07-.5c-.25-.43-.46-.55-.61-.35s0,.16,0,0c0,0-.4.25-.23.19a1.19,1.19,0,0,1-.87.05c.06,0,0,.2,0,0a.64.64,0,0,1,.24-.35c.21-.21.65-.16.55-.26.52.52-1,1.23-1.46,1l.3,2.36c.22-.25,1.23-.71,1.52-.38L26.65,42l.53-1-.23.08a2.22,2.22,0,0,0-.55.14c-.67.16-1.34.29-2,.42a18.33,18.33,0,0,1-4.55.32l.39,3a4.83,4.83,0,0,1,3-.1V42a11.94,11.94,0,0,1-6.3.28l-.4,2.95c2.17,0,4.4-.68,6.55-.25V42.05c-2.43.61-5,.22-7.45.24a22.3,22.3,0,0,0-3.74.31,5.66,5.66,0,0,0-.91.19c-.48.17-.71-.36,0,.61.49.67.55.5.39.53l-1.9-1.45.8-.62,1.5,1.5a.63.63,0,0,1,.34-.57l-2.25-1.3,0-.19,2.56,1.06c-.12-.93,0-.16-.06-.17l-1.05-1.85.24-.07,1.5,1.5c-.32.53-.7.15-1.12-1.13L13,43.2a8,8,0,0,0,.55-.66l-.9-2.2c.59-.21.65-.35.2-.41l1,1.85c-.12.5-.28.11,0,.11a2.78,2.78,0,0,0,.53-.14c.09,0,.47,0,.54,0s-.19-1.49-.23-1.51a2.45,2.45,0,0,0-.66,0c-.09,0-.33-.09-.42-.07.45-.11-.3,1.79.08,1.87s.75-.05,1.08,0c.17,0,.37.12.53.12s.12,0,0,0a2,2,0,0,1-.12-1.78c-.27-.06-.78.06-1.09,0-.16,0-.33-.06-.48-.06s-.19,0-.24-.07l.3,2.36a4.86,4.86,0,0,1,2-.53,8.25,8.25,0,0,1,1.49,0c.21,0,.75.23.61.09l-.24-1.82c-.09.14-1.11,0-1.43-.07l.9,2.2c-.22.35-.2.05.08.07s.54-.08.79-.08a6.81,6.81,0,0,1,1,.08l.31-2.36c-1,.59-3.82.4-4.81-.15l.3,2.36c.15-.18-.13,0,0-.06a3.13,3.13,0,0,0,.36-.19c.2-.07.49-.15.73-.21a13.07,13.07,0,0,1,2.33-.41,16,16,0,0,1,2.4-.05,4.65,4.65,0,0,1,.9.13c.29.08.38.2.26.08V39.57c.25-.26.37-.11,0-.07-.19,0-.37.09-.56.11-.37,0-1.08-.06-1.26,0s-.11,0,0,0c-.13,1.46,0,1.91.48,1.37a7.8,7.8,0,0,1,1.12-.4,18.15,18.15,0,0,1,2.76,0v-3c-1.4,0-3.43.6-4.74,0l-.35,2.74a17.32,17.32,0,0,1,7.41-.61v-3c-2.35,0-4.69-.13-7-.16l.4,3a22,22,0,0,1,5.62-.3v-3a19.25,19.25,0,0,1-3.87,0l.36,2.75a4.89,4.89,0,0,1,3.42-.41l-.36-2.74a1,1,0,0,1-.94,0l.3,2.35c.26-.22,1-.08,1.35-.07V35c-.77,0-2.53.43-3.17-.1l.23,1.82c-.69.91-.33.22-.16.24s-.06,0,.14,0a6.23,6.23,0,0,1,1-.23,16.91,16.91,0,0,1,2.47-.2,17.7,17.7,0,0,1,2.52.09c.28,0,.54.09.81.14.52.11.4.25,0-.22l.9-2.2a6.16,6.16,0,0,1-3.77.27l-.4,3c.67-.06,2.27-.4,2.84,0l.3-2.36a5.16,5.16,0,0,1-2.44.17v3a37.8,37.8,0,0,1,4.88.08c1.27.16,2.64.47,3.79-.27a1.54,1.54,0,0,0,.54-2.05c-.45-1-1.29-1.7-1.76-2.67-.86-1.77-3.33-.22-2.59,1.51-.06-.27-.08-.24,0,.08l2.25-1.29a3.77,3.77,0,0,1-1.86-2.49l-2.74,1.15a5.91,5.91,0,0,1,.52,1.69l2.94-.4A32,32,0,0,0,31.22,30a1.51,1.51,0,0,0-2.79.76,20.08,20.08,0,0,1,.21,2.45l2.94-.4a14.77,14.77,0,0,1-1.24-5.22L27.4,28a10.29,10.29,0,0,1,.31,2.34l2.8-.76a26,26,0,0,1-1-3c-.51-1.56-3-1.36-3,.4,0,1.14.34,2.23.39,3.36l3-.39c-.28-1.17-.66-2.32-.91-3.49-.39-1.9-3.24-1.09-2.89.79a16.58,16.58,0,0,1,.06,4.28l2.94-.4a8.9,8.9,0,0,1-.78-3.55l-2.95.4A18.18,18.18,0,0,1,26,33.37L28.9,33a31.38,31.38,0,0,1-1.1-5.83,1.5,1.5,0,0,0-3,0,9.22,9.22,0,0,1-.91,3.07c-.24.57-.51,1.12-.78,1.68-.09.2-.59,1-.54,1.14s1.7.3,1.66.36-.09-.18-.07-.29a6.83,6.83,0,0,0,0-.78,2.77,2.77,0,0,1,.4-1.57l-2.74-.36c.45,1.28-.89,3.36-1.75,4.23l2.51,1.46A21.43,21.43,0,0,1,25,31.71l-2.74-1.16C21.9,32,20.17,33.14,19,33.89c-1.37.86-.49,3.39,1.16,2.75s3.24-1.72,4.93-1.59l-1.45-1.9c-.07.29,0,0,.07-.06-.08,0-.17.2-.23.23-.3.15-.62.38-.94.53a14.31,14.31,0,0,1-2.53.88,21.71,21.71,0,0,1-2.64.55,10.38,10.38,0,0,1-1.11.09c-.17,0-.37,0-.54,0s.1,0-.15,0l1,1.84a2,2,0,0,1,.74-.87l-2.05-2.06q-.23.28-.42.57A1.51,1.51,0,0,0,16.54,37a5.05,5.05,0,0,1,.55-.18L15.25,35l-.16.37c-.53,1.22.68,3,2.05,2.06a10,10,0,0,0,3.73-5.06c.61-1.85-2.22-2.56-2.9-.79a4.37,4.37,0,0,0-.29,1.83c.05,1.38,2.1,2.17,2.79.76a8.46,8.46,0,0,0,1.3-4.08c-.09-1.63-2.51-2.1-2.95-.4a14.88,14.88,0,0,0-.39,2.18c-.14,1.56,2.07,1.93,2.8.76a12.37,12.37,0,0,0,2-6c.06-1.66-2.61-2.07-2.95-.4a22.77,22.77,0,0,0-.45,4.35,1.51,1.51,0,0,0,3,.4c.53-2,.82-4.08-.12-6-.72-1.43-2.7-.62-2.8.75a39,39,0,0,0-.41,4.43c.06,1.41,2.07,2.15,2.79.76A26.61,26.61,0,0,0,25,23.71l-2.94-.4c0,1.36.29,2.7.32,4.05A8.57,8.57,0,0,0,23,31a1.5,1.5,0,0,0,2.59,0c1.43-3.21,1.89-6.68,3-10H25.62a25.46,25.46,0,0,1,.89,4.52c.26,1.76,2.85,1.18,2.95-.4a14,14,0,0,0-.28-3.71c-.31-1.52-2.48-1.33-2.89,0a4.85,4.85,0,0,0-.2,1.61c0,.45.17,1.05-.07,1.45l2.75.36a22.74,22.74,0,0,0-1.92-4.48c-.67-1-2.48-1-2.74.36A25,25,0,0,1,23.19,25h2.9c-.49-1.59.29-3.13-.66-4.68a1.52,1.52,0,0,0-2.36-.3c-1.17,1.34-1.34,2.94-2.13,4.46l2.8.76a9.31,9.31,0,0,1,.56-3,1.51,1.51,0,0,0-2.9-.8Z"/><path class="cls-1" d="M30,41.78a7.64,7.64,0,0,0-2.1.54,1.5,1.5,0,0,0,.4,2.94,3.93,3.93,0,0,0,1.7-.15,1.52,1.52,0,0,0,0-2.9,10.15,10.15,0,0,0-5.87.29c-1.35.4-1.5,2.57,0,2.89a9.6,9.6,0,0,0,4.46-.06c1.76-.45,1.17-2.75-.4-2.95a3,3,0,0,0-1.72.41,1.51,1.51,0,0,0,.36,2.74c2.07.43,5.15.22,6.82-1.24,2-1.72.31-3.95-1.47-4.93a1.52,1.52,0,0,0-2.2.89,3.68,3.68,0,0,0,.7,3.58,1.94,1.94,0,0,0,3.09-.48c1.44-2.43-.79-6.48-3.8-5.88-2.7.54-2.41,4.37-.51,5.67,2.58,1.77,3.81-1.86,3.14-3.83a1.52,1.52,0,0,0-2.51-.66c-1.9,2-.05,5.32,2.35,5.81A2.54,2.54,0,0,0,35.29,43c.51-1,.31-2.22.75-3.26l-2.74.35c.74,1.44,1.07,3,2.54,3.9A1.51,1.51,0,0,0,38,42.34a16,16,0,0,0-1.39-3.21c-.61-1.23-2.35-.78-2.74.36a4.41,4.41,0,0,0,1.58,4.82c1.24.95,2.75-.85,2-2.06-1.78-3-6.45.07-4.1,2.76a2.49,2.49,0,0,0,3.51.52A2.1,2.1,0,0,0,37,42.47a3,3,0,0,0-4,.23c-1.37,1.42,0,3.27,1.62,3.4a6.3,6.3,0,0,0,4-.81c1.52-1.15,1-2.83-.1-4.07s-3,.38-2.35,1.82a8.43,8.43,0,0,0,.89,1.42,1.52,1.52,0,0,0,2.74-.36,5.49,5.49,0,0,0-.64-4,1.51,1.51,0,0,0-2.8.76c0,.19,0,.38.05.57l2.8-.75a11,11,0,0,0-.94-1.11C37.18,38.4,35,40,36,41.42l.36.53,2.36-1.82c-.2-.25-.39-.52-.6-.78l-1.46,2.51c1.23.46,1.43,2.21,2,3.24s2.55,1,2.74-.36c.06-.45.14-.89.18-1.34h-3c0,2.66,1.77,4.19,3.8,5.59l1.16-2.74c-3-.54-5.94,0-8.94,0-3.32,0-6.62-.07-9.94-.05s-6.57-.12-9.86-.2c-2.87-.07-5.74-.68-8.57,0a1.51,1.51,0,0,0,.8,2.9c2.66-.69,5.55,0,8.25.06,3.13,0,6.25.22,9.38.19s6.29,0,9.45,0c2.85.06,5.81-.6,8.63-.09a1.51,1.51,0,0,0,1.16-2.74c-1.12-.77-2.32-1.51-2.32-3,0-2-2.82-1.9-3,0,0,.18,0,.36-.07.54l2.74-.36c-.49-.85-.71-1.82-1.22-2.66a4.79,4.79,0,0,0-2.59-2c-1.57-.59-2.26,1.47-1.46,2.5.2.26.39.53.6.79,1.06,1.31,3.33-.43,2.36-1.82l-.37-.53-2.35,1.81c.16.17.32.33.47.5.79,1.06,2.93.89,2.79-.76,0-.19,0-.38-.05-.57l-2.79.75A2.41,2.41,0,0,1,37,43.3l2.74-.36a7.7,7.7,0,0,1-.89-1.42l-2.36,1.82c.2.43.31.41.34-.07.23-.38.17-.48-.16-.3a3.31,3.31,0,0,0-.62.09c-.2,0-.41,0-.62,0h-.3c-.61-.08-.47.17.43.75l-.44,1.07a.26.26,0,0,1,.27-.09c-.72-.28-1.05-1.49-.06-1.63.47-.08.5-.3.39.26,0,.22-.4.91-.76.3l2-2.05c-.35-.27-.32-1.08-.19-1.43l-2.75.36a12.54,12.54,0,0,1,1.09,2.49l2.2-1.7c-.77-.47-1.07-2-1.46-2.82-.66-1.28-2.29-.72-2.74.36a4.89,4.89,0,0,0-.31,1.36c0,.08-.25,1.29-.22,1.33s.31-.17.33-.14-.17-.15-.18-.18a6.7,6.7,0,0,1-.45-.6c-.23-.19.27-.37-.1,0l-2.51-.66c.1.28,0,.72.08,1-.14-.35,1.92,0,1.22-.63-.05,0,0-.3-.06-.31a.71.71,0,0,1-.27.21c-.24.07-.23.15,0,.22a6.11,6.11,0,0,0,.51.69.66.66,0,0,1,0,.48l1.61,0a4.35,4.35,0,0,1,0-.71l-2.2.9c.09,0,.84.63.88.62l.18-.56-.27.15a5.46,5.46,0,0,0-.84.27,6.5,6.5,0,0,1-3,.2L28,45.38c-.17-.06-.11-.05.21,0l-.4-2.94a6.28,6.28,0,0,1-2.86.06v2.89a7.34,7.34,0,0,1,4.27-.28v-2.9a1.72,1.72,0,0,1-.9,0l.4,3a5.36,5.36,0,0,1,1.3-.43c1.9-.2,1.92-3.2,0-3Z"/><path class="cls-1" d="M38.2,41.87V44a1.54,1.54,0,0,0,.44,1.06,1.52,1.52,0,0,0,1.06.44,1.46,1.46,0,0,0,1.06-.44A1.54,1.54,0,0,0,41.2,44V41.87a1.56,1.56,0,0,0-.44-1.06,1.5,1.5,0,0,0-2.12,0,1.58,1.58,0,0,0-.44,1.06Z"/></svg>