<svg id="Layer_1" data-name="Layer 1" xmlns="http://www.w3.org/2000/svg" viewBox="0 0 250 250"><defs><style>.cls-1{opacity:0.5;}.cls-2{fill:#96c;}.cls-3{fill:#fba53b;}.cls-4{fill:#ffdeab;}.cls-5{fill:#ffc375;}.cls-6{fill:#fff;}</style></defs><title>icon_person</title><g class="cls-1"><circle class="cls-2" cx="125" cy="126" r="105.56"/></g><path class="cls-3" d="M180.26,147.36l-13,22.1c-25.5-9.85-59-9.85-84.54,0l-13-22.1C50,161.59,47.91,180,48.92,204.1c-.89,11.89,6.51,24,22.23,33,29.74,17.17,78,17.17,107.7,0,15.72-9.07,23.12-21.13,22.23-33C202.09,180,200,161.59,180.26,147.36Z"/><ellipse class="cls-4" cx="125" cy="169.03" rx="66.9" ry="38.63"/><path class="cls-3" d="M125,97.73H98.78c-5.12,26.43-11,35.24-22,56.74C70.42,165,74.47,177,88.8,185.22c10,5.78,23.1,8.66,36.2,8.66s26.2-2.88,36.2-8.66c14.33-8.27,18.38-20.22,12.17-30.58-11.15-21.67-17-30.48-22.15-56.91Z"/><path class="cls-5" d="M157.67,65.24c18,10.42,18,27.3,0,37.72s-47.29,10.42-65.33,0-18-27.3,0-37.72S139.62,54.83,157.67,65.24Z"/><path class="cls-4" d="M147.28,58.43c12.31,7.1,12.31,18.62,0,25.72s-32.26,7.1-44.56,0-12.3-18.62,0-25.72S135,51.32,147.28,58.43Z"/><path class="cls-3" d="M166.73,41.73A41.73,41.73,0,1,1,125,0,41.73,41.73,0,0,1,166.73,41.73Z"/><path class="cls-6" d="M168.08,157.05l-4.28-8.18c-1.66-3.18-3.18-6.1-4.61-8.92a137.6,137.6,0,0,1-10.69-27.23,74.32,74.32,0,0,1-11.25,2.51c4.76,22.32,7.46,44.55,17.51,65.5q1.73-.82,3.33-1.74c6.24-3.6,10.33-8.11,11.52-12.67A11.82,11.82,0,0,0,168.08,157.05Z"/><path class="cls-6" d="M195.33,203.7a130.22,130.22,0,0,0-.43-20.86A43.47,43.47,0,0,1,183,196.42v30.24c8.51-6.7,13-14.67,12.35-22.59Z"/><path class="cls-6" d="M157.7,37.36c1.87-1.08,2.66-3.59,2.41-6.69a22.85,22.85,0,0,0-2.88-8.61c-3.73-6.46-9.55-10.07-13-8.07s-3.25,8.85.47,15.3a22.14,22.14,0,0,0,5.11,6.13C153.25,37.87,155.82,38.44,157.7,37.36Z"/></svg>