<svg id="Layer_1" data-name="Layer 1" xmlns="http://www.w3.org/2000/svg" viewBox="0 0 100 100"><defs><style>.cls-1{fill:#f5a84d;}</style></defs><title>Artboard 1</title><g id="NewGroupe14"><g id="NewGroup0-9"><path class="cls-1" d="M53.39,91.43a4.87,4.87,0,0,1,1.07-6.07L82,57.14a5.39,5.39,0,0,1,3.93-1.43,4.53,4.53,0,0,1,2.15.36L53.39,91.43ZM54.11,75l17.5-17.86a4.87,4.87,0,0,1,6.07-1.07L64.82,68.93,53,81.07A6.37,6.37,0,0,1,54.11,75Zm-2.5-4.64A126.64,126.64,0,0,0,24.46,38.93l10-10.36A119.91,119.91,0,0,0,66.61,55l1.07,1.07L53,71.43l-1.43-1.07ZM20.89,37.5a1.77,1.77,0,0,1-2.5-2.5l12.5-12.86a1.73,1.73,0,0,1,2.5,0,1.31,1.31,0,0,1,.36,1.07c0,.36-.36,1.08-.36,1.43L20.89,37.5Zm-5-5L12,36.43a1.77,1.77,0,0,1-2.5-2.5l5-5.36,10-10.36,5-5a1.77,1.77,0,0,1,2.5,2.5l-3.57,3.58L15.89,32.5ZM9.46,23.57l10-10.36a1.73,1.73,0,0,1,2.5,0c.36.72.72,1.08.72,1.43s-.36,1.07-.36,1.43l-5.36,5-5,5a1.77,1.77,0,0,1-2.5-2.5ZM92,54.64c-3.21-2.85-7.85-3.57-11.42-1.07a8.59,8.59,0,0,0-10,0L69.46,52.5c-.35-.36-.35-.36-.71-.71C56.61,45,46.25,36.07,37,25.71a4.84,4.84,0,0,0-1.07-6.07c-.35-.35-1.07-.71-1.43-1.07a5.17,5.17,0,0,0,0-7.5,5.18,5.18,0,0,0-7.5,0L25.54,12.5A5,5,0,0,0,18.39,10,1.94,1.94,0,0,0,17,11.07L13,14.64,9.46,11.07,13,7.14a1.77,1.77,0,0,0-2.5-2.5L6.61,8.57l-2.5-2.5a1.73,1.73,0,0,0-2.5,0,1.72,1.72,0,0,0,0,2.5l2.5,2.5L.54,15a1.72,1.72,0,0,0,0,2.5,1.73,1.73,0,0,0,2.5,0L7,13.57l3.58,3.93L7,21.07c-2.14,2.14-2.14,5.72,0,7.5.36.36,1.08.72,1.43,1.07L7,31.43a5.18,5.18,0,0,0,0,7.5c2.15,2.14,5.72,1.78,7.86-.36,1.07,2.5,4.29,3.57,7.14,2.5A123.55,123.55,0,0,1,48.75,72.14l.71.72,1.08,1.07a9.19,9.19,0,0,0,0,10c-2.5,3.57-1.79,8.21,1.07,11.43a1.73,1.73,0,0,0,2.5,0L92,57.14a1.72,1.72,0,0,0,0-2.5Z"/><path class="cls-1" d="M92.68,86.43,89.46,67.14a1.82,1.82,0,1,0-3.57.72l3.22,17.85H67.68a1.79,1.79,0,0,0,0,3.58H89.11a7.73,7.73,0,0,1,7.5,7.14H39.11a7.24,7.24,0,0,1,7.5-7.14,1.69,1.69,0,0,0,1.78-1.79A2.38,2.38,0,0,0,47,85.71h-.35L48,77.5a2.41,2.41,0,0,0-1.43-2.14,2,2,0,0,0-2.15,1.43l-1.78,9.64a10.85,10.85,0,0,0-7.14,10.36v1.42A1.68,1.68,0,0,0,37.32,100H98.39a1.69,1.69,0,0,0,1.79-1.79V96.79c-.36-4.65-3.22-8.93-7.5-10.36Z"/><path class="cls-1" d="M48,18.93H87.68a1.54,1.54,0,0,1,1.43,1.43,1.55,1.55,0,0,1-1.43,1.43H48a1.54,1.54,0,0,1-1.43-1.43A1.31,1.31,0,0,1,48,18.93ZM52.32,3.57V7.86a1.69,1.69,0,0,0,1.79,1.78h9.28a1.69,1.69,0,0,0,1.79-1.78V3.57h5.71V7.86a1.69,1.69,0,0,0,1.79,1.78H82a1.68,1.68,0,0,0,1.79-1.78V3.57h1.79L83,15.36H52.32L50.18,3.57ZM81.61,27.5H54.11A4.38,4.38,0,0,1,50.18,25H85.54a4.85,4.85,0,0,1-3.93,2.5ZM46.25,24.64a7.6,7.6,0,0,0,6.07,6.07l-1.07,5a1.82,1.82,0,1,0,3.57.72l.72-3.93H79.82l2.86,16.07A1.63,1.63,0,0,0,84.46,50h.36a1.57,1.57,0,0,0,1.43-2.14L83.39,30.71a8.65,8.65,0,0,0,6.07-6.07,4.51,4.51,0,0,0,2.86-6.07,5.08,5.08,0,0,0-4.64-3.21H87l2.5-13.22C89.82,1.07,89.11.36,88,0H81.61a1.69,1.69,0,0,0-1.79,1.79V6.07H74.11V1.79A1.69,1.69,0,0,0,72.32,0H63a1.68,1.68,0,0,0-1.79,1.79V6.07H55.54V1.79A1.69,1.69,0,0,0,53.75,0H47.68a1.63,1.63,0,0,0-1.43,1.79v.35l2.5,13.22H48c-2.5,0-5,2.14-5,4.64a5.07,5.07,0,0,0,3.21,4.64Z"/></g></g></svg>