<svg xmlns="http://www.w3.org/2000/svg" viewBox="0 0 150.04 150"><defs><style>.cls-1{fill:#f5a84d;}</style></defs><title>Asset 1</title><g id="Layer_2" data-name="Layer 2"><g id="Layer_1-2" data-name="Layer 1"><g id="NewGroupe15"><g id="NewGroup0-8"><path class="cls-1" d="M116.82,62.49A63.84,63.84,0,0,0,106.1,52.34l21.44-47h15.54L116.82,62.49ZM75,144.21a48.07,48.07,0,1,1,48.23-48.07A48,48,0,0,1,75,144.21ZM7,5.34H22.51l22,47A60,60,0,0,0,33.76,62L7,5.34ZM57.34,45.93a60.18,60.18,0,0,0-8.58,3.74L28.4,5.34H38.58L57.34,45.93ZM111.46,5.34h10.18l-20.9,44.33a41.88,41.88,0,0,0-8.57-3.74L111.46,5.34Zm38.05-4.27A2.79,2.79,0,0,0,147.36,0H109.85a3,3,0,0,0-2.68,1.6L87.35,44.33a48.13,48.13,0,0,0-24.65,0L42.87,1.6A3,3,0,0,0,40.19,0H2.68A2.53,2.53,0,0,0,0,2.67V3.74l30,63A53.5,53.5,0,0,0,45.55,141c25.18,16.56,57.87,9.62,74.48-15.49a53.35,53.35,0,0,0,.54-58.21L150,3.74a5.84,5.84,0,0,0-.53-2.67Z"/><path class="cls-1" d="M75,133.52a37.39,37.39,0,1,1,37.51-37.38A37.21,37.21,0,0,1,75,133.52Zm0-80.11a42.73,42.73,0,1,0,42.87,42.73A42.93,42.93,0,0,0,75,53.41Z"/><path class="cls-1" d="M99.14,92.4a2.67,2.67,0,1,1,2.67-2.67,2.53,2.53,0,0,1-2.67,2.67Zm-9.65,19.23H60.55L55.73,96.14c.54,0,.54-.54,1.07-1.07l4.82,2.14a2.59,2.59,0,0,0,3.22-1.07l8.57-13.89h3.22l8,13.89a2.58,2.58,0,0,0,3.21,1.07l4.82-2.14,1.08,1.07-4.29,15.49ZM89,120.17H61.62V117H89v3.2ZM48.23,89.73a2.68,2.68,0,1,1,2.68,2.67,2.53,2.53,0,0,1-2.68-2.67ZM75,72.1a2.67,2.67,0,1,1-2.68,2.67A2.53,2.53,0,0,1,75,72.1Zm32.15,17.63a8,8,0,0,0-16.07,0v.53l-2.68,1.07-7-11.21c1.07-1.61,2.15-3.21,2.15-5.35a8,8,0,0,0-16.08,0,6.86,6.86,0,0,0,2.14,5.35l-7,11.75L59,90.26v-.53a8.24,8.24,0,0,0-8-8,8,8,0,1,0,0,16l5.36,17.09v8A2.52,2.52,0,0,0,59,125.51H91.63a2.52,2.52,0,0,0,2.68-2.67v-8l5.36-17.09c3.75,0,7.5-3.74,7.5-8Z"/></g></g></g></g></svg>